<svg width="16" height="10" viewBox="0 0 16 10" fill="none" xmlns="http://www.w3.org/2000/svg">
<path d="M4.82016 0.200195C5.28727 0.200195 5.71364 0.24087 6.09929 0.321371C6.48494 0.401873 6.81425 0.534064 7.08897 0.717946C7.36369 0.901828 7.57688 1.14587 7.72854 1.45093C7.8802 1.75599 7.9556 2.13223 7.9556 2.58049C7.9556 3.06435 7.84293 3.4677 7.61848 3.79055C7.39402 4.11341 7.06124 4.37779 6.62186 4.5837C7.22677 4.75403 7.67828 5.0523 7.9764 5.47769C8.27451 5.90308 8.42357 6.41659 8.42357 7.01738C8.42357 7.50124 8.32738 7.92069 8.13499 8.2749C7.9426 8.6291 7.68348 8.91806 7.35763 9.14177C7.03178 9.36633 6.66086 9.53156 6.24402 9.63918C5.82457 9.7468 5.39213 9.80103 4.95882 9.80019H0.200195V0.200195H4.82016ZM4.54544 4.08544C4.93022 4.08544 5.24654 3.99562 5.49439 3.81682C5.74224 3.63718 5.86617 3.34652 5.8653 2.94317C5.8653 2.71946 5.82371 2.53558 5.74138 2.39237C5.65905 2.24916 5.54899 2.13646 5.41119 2.05596C5.2734 1.97546 5.11567 1.91953 4.93715 1.88818C4.75343 1.85683 4.5671 1.84073 4.37991 1.84157H2.35982V4.08714L4.54544 4.08544ZM4.66936 8.15881C4.87302 8.15965 5.07581 8.13932 5.27427 8.09864C5.46666 8.05797 5.63652 7.99102 5.78297 7.89697C5.92943 7.80291 6.04643 7.67495 6.13396 7.51395C6.22062 7.35295 6.26482 7.14618 6.26482 6.89536C6.26482 6.40303 6.12269 6.05052 5.83844 5.84037C5.55419 5.62937 5.17807 5.5243 4.71096 5.5243H2.35982V8.15965L4.66936 8.15881ZM11.1396 7.95713C11.4325 8.23507 11.8545 8.37404 12.4048 8.37404C12.7991 8.37404 13.138 8.27744 13.4222 8.08508C13.7065 7.89273 13.8807 7.68851 13.9448 7.47327H15.6633C15.3886 8.3071 14.9666 8.90281 14.3981 9.26125C13.8296 9.61969 13.1423 9.79934 12.3355 9.79934C11.7765 9.79934 11.2722 9.71206 10.8232 9.5375C10.3743 9.36294 9.99389 9.11381 9.68191 8.79095C9.36992 8.4681 9.129 8.08339 8.96001 7.63512C8.79102 7.18686 8.70609 6.69368 8.70609 6.15644C8.70609 5.637 8.79275 5.15314 8.96694 4.70488C9.14113 4.25661 9.38899 3.86936 9.70964 3.54227C10.0303 3.21518 10.4133 2.95758 10.8579 2.76946C11.3025 2.58134 11.7956 2.48728 12.3364 2.48728C12.9413 2.48728 13.4682 2.60168 13.918 2.83047C14.3669 3.05926 14.736 3.36601 15.0246 3.75157C15.3132 4.13713 15.5221 4.57608 15.6503 5.06925C15.7786 5.56243 15.8245 6.07764 15.7881 6.61572H10.6595C10.6863 7.23177 10.8466 7.68004 11.1396 7.95713ZM13.3469 4.30068C13.1129 4.04985 12.7575 3.92444 12.2809 3.92444C11.9689 3.92444 11.7098 3.97613 11.5044 4.07866C11.2982 4.18204 11.1335 4.30915 11.0096 4.46168C10.8856 4.61421 10.799 4.77521 10.7487 4.94553C10.6985 5.11586 10.6681 5.26839 10.6595 5.40227H13.8356C13.7429 4.91927 13.58 4.5515 13.3469 4.30068ZM10.3249 0.68744H14.2932V1.76361H10.3249V0.68744Z" fill="white"/>
</svg>
