<svg width="56" height="24" viewBox="0 0 56 24" fill="none" xmlns="http://www.w3.org/2000/svg">
<path d="M2.90206 3.79223C2.37484 4.20662 1.90056 4.69326 1.41604 5.15707C0.931528 5.62087 0.339735 6.10531 0.1327 6.76011C0.000521437 7.16889 0.0671384 7.57773 0.32411 7.92185C0.374481 7.98839 0.433717 8.0441 0.4961 8.09155C0.843403 8.48432 1.46102 8.57776 1.91242 8.30015C2.2776 8.07488 2.45426 7.6736 2.42642 7.27482C2.79872 6.88184 3.2035 6.51545 3.5943 6.14846C3.58859 6.15102 3.58288 6.15358 3.58288 6.15358C3.59745 6.1402 3.6063 6.12936 3.62343 6.12169C3.63229 6.11087 3.63801 6.10833 3.64687 6.09751C3.65829 6.09239 3.66714 6.08156 3.67029 6.07329L3.66458 6.07585C3.67029 6.07329 3.676 6.07073 3.68486 6.05991C3.68486 6.05991 3.69056 6.05734 3.688 6.05164C4.04337 5.72794 4.4064 5.42138 4.79108 5.13253C5.20371 4.84487 5.61831 4.57692 6.0571 4.33237C6.26321 4.22633 6.47129 4.13998 6.68506 4.05106C7.24214 3.85635 7.81454 3.69586 8.38322 3.55763C9.3499 3.34392 10.3198 3.12198 11.3006 2.97048C11.8332 2.88952 12.3728 2.77803 12.9182 2.72561C13.4553 2.67005 14.0008 2.61764 14.5348 2.57034C15.1349 2.54825 15.7408 2.52363 16.3435 2.50725C16.6464 2.49493 16.959 2.51942 17.2696 2.52422C17.5522 2.52783 17.8431 2.53458 18.1315 2.53563C19.0418 2.59393 19.935 2.65992 20.8435 2.76014C21.7743 2.86411 22.6925 3.00114 23.6132 3.14388C24.2182 3.2704 24.8258 3.40263 25.4308 3.52915C25.7416 3.59556 26.0455 3.69249 26.35 3.77543C26.6544 3.85838 26.9563 3.93558 27.2608 4.01853C28.0758 4.27717 28.8743 4.52952 29.6736 4.8295C30.5255 5.14011 31.351 5.4832 32.1872 5.83514C33.1647 6.2883 34.136 6.758 35.0983 7.23851C36.0003 7.69125 36.8625 8.22349 37.7221 8.75003C38.2967 9.13006 38.8714 9.51009 39.4251 9.92003C39.9955 10.3363 40.5398 10.771 41.0866 11.2115C41.5642 11.635 42.0418 12.0585 42.4934 12.5005C42.9342 12.9336 43.3579 13.3744 43.7867 13.8267C44.7993 14.9701 45.8315 16.1116 46.7225 17.3507C46.6906 17.3101 46.6613 17.2752 46.6351 17.2321C46.7665 17.4337 46.8923 17.6379 47.0123 17.8446C47.1956 18.208 47.3676 18.5765 47.5249 18.9584C47.7647 19.509 48.4457 19.7591 48.988 19.5161C49.5475 19.2655 49.7882 18.6094 49.5458 18.0531C49.1506 17.1403 48.7091 16.2619 48.0901 15.4768C47.3379 14.532 46.5591 13.6197 45.7517 12.7202C44.9794 11.853 44.1696 11.0094 43.301 10.2332C42.7967 9.78059 42.2829 9.35272 41.7633 8.92744C41.2814 8.54015 40.7786 8.1828 40.2846 7.8146C40.1026 7.68367 39.9117 7.56352 39.724 7.43514C39.4325 7.24355 39.1499 7.04116 38.8496 6.86039C38.3775 6.57152 37.9142 6.27183 37.4301 6.00205C36.3601 5.41896 35.2869 4.84413 34.1777 4.32658C31.9397 3.29344 29.6492 2.37288 27.2656 1.73395C26.089 1.41794 24.901 1.10703 23.6937 0.921301C23.0983 0.831592 22.501 0.722202 21.9018 0.65473C21.3027 0.587261 20.6933 0.496944 20.093 0.457423C19.4368 0.415524 18.7792 0.339983 18.1218 0.326033C17.5063 0.31387 16.8934 0.307413 16.2779 0.295251C15.9927 0.285923 15.6975 0.315362 15.4142 0.325723C15.089 0.3343 14.7665 0.348603 14.4356 0.359737C14.1441 0.366947 13.8565 0.413518 13.5669 0.440406C13.2241 0.470632 12.878 0.509139 12.5351 0.53936C12.0431 0.588442 11.5543 0.690865 11.0667 0.765338C10.6382 0.833923 10.2117 0.922186 9.78 0.999038C8.49268 1.24671 7.19333 1.51346 5.965 1.95404C5.77465 2.01875 5.58942 2.09489 5.40674 2.17672C4.51815 2.59534 3.6789 3.17005 2.90206 3.79223Z" fill="#16BAC5"/>
<path d="M3.66518 6.06186L3.67088 6.05931C3.67088 6.05931 3.67088 6.05931 3.67659 6.05675C3.67088 6.05931 3.67089 6.0593 3.66518 6.06186Z" fill="#16BAC5"/>
<path d="M3.65632 6.07269L3.66202 6.07014C3.66202 6.07014 3.66203 6.07014 3.65632 6.07269Z" fill="#16BAC5"/>
<path d="M3.60947 6.12112C3.60061 6.13195 3.58918 6.13703 3.58603 6.1453C3.59489 6.13448 3.59805 6.12624 3.60947 6.12112Z" fill="#16BAC5"/>
<path d="M49.9013 1.985C49.9141 2.01354 49.9243 2.03638 49.9288 2.06178C50.4821 3.6029 50.8628 5.18707 51.2714 6.77244C51.4833 7.58225 51.7238 8.37926 51.9498 9.18966C52.1905 10.0483 52.4115 10.9089 52.6294 11.7778C52.7184 12.252 52.8075 12.7261 52.8939 13.1946C52.9346 13.4231 52.9474 13.6505 52.9684 13.881C52.9976 14.1146 53.0186 14.3451 53.0479 14.5788C53.074 15.0195 53.0975 15.4545 53.1178 15.8977C53.14 16.2991 53.1227 16.7043 53.1195 17.1102C53.0741 17.6515 53.0401 18.1876 52.9502 18.7214C52.9001 18.9769 52.8393 19.2235 52.767 19.4752C52.7228 19.5909 52.6756 19.7149 52.6257 19.8332C52.5923 19.8962 52.5588 19.9592 52.5253 20.0222C52.4893 20.0794 52.4475 20.1392 52.4032 20.1934C52.3589 20.2475 52.3121 20.2959 52.2595 20.3469C52.1518 20.4431 52.0416 20.5336 51.9288 20.6184C51.7329 20.7473 51.5402 20.8679 51.3366 20.9796C51.102 21.0984 50.8622 21.2059 50.6116 21.3044C50.623 21.2993 50.6344 21.2941 50.6427 21.2973C50.3699 21.3921 50.0919 21.4755 49.8089 21.5475C49.5518 21.6009 49.287 21.6373 49.0255 21.6654C48.6324 21.6907 48.2405 21.688 47.8518 21.6771C47.6008 21.6524 47.3467 21.636 47.0957 21.6113C46.8251 21.5886 46.5588 21.5297 46.2977 21.4822L46.3034 21.4797C45.99 21.4075 45.6684 21.3323 45.3525 21.2544C44.9685 21.1317 44.5897 21.0204 44.2177 20.8786C43.7217 20.6895 43.2372 20.4953 42.7418 20.2923C41.9438 19.9643 41.1546 19.6256 40.3685 19.2786C39.2453 18.7604 38.143 18.2124 37.0413 17.6503C35.8932 17.0611 34.721 16.5101 33.6063 15.8579C33.495 15.7776 33.3804 15.7055 33.269 15.6252C33.2582 15.6163 33.2499 15.6131 33.2448 15.6017C32.9044 15.1784 32.2709 15.0647 31.7992 15.3583C31.2844 15.678 31.1289 16.3714 31.4486 16.8862C31.619 17.1594 31.8876 17.3612 32.146 17.5402C32.4127 17.7224 32.6908 17.8994 32.9726 18.0542C33.4955 18.334 34.0272 18.603 34.5533 18.8745C35.6251 19.4157 36.6823 19.9703 37.7573 20.5032C38.8297 21.0303 39.9235 21.5136 41.0237 21.9804C41.596 22.2175 42.1683 22.4547 42.7406 22.6918C43.313 22.9289 43.8927 23.1216 44.4814 23.3034C45.0561 23.4846 45.644 23.6188 46.242 23.7142C46.8507 23.8185 47.4581 23.8891 48.0793 23.8988C48.5608 23.9024 49.0288 23.8915 49.5069 23.8418C50.2689 23.7678 51.0094 23.5389 51.7244 23.2529C52.4336 22.9695 53.1317 22.5539 53.7024 22.0378C54.2554 21.5433 54.6156 20.909 54.8581 20.2109C55.1837 19.27 55.2538 18.2789 55.3265 17.2936C55.351 16.9811 55.3335 16.6667 55.3383 16.3561C55.3408 16.1014 55.3375 15.8493 55.326 15.594C55.2891 14.9456 55.2491 14.3055 55.1786 13.6585C55.148 13.3912 55.1345 13.1163 55.0867 12.8566C55.0209 12.4954 54.9493 12.1368 54.8809 11.7699C54.7003 10.8158 54.4377 9.87785 54.1809 8.93733C53.9261 8.0165 53.6629 7.09253 53.4081 6.17169C53.1578 5.27625 52.9442 4.37116 52.7079 3.47631C52.5942 3.05428 52.4609 2.63421 52.3244 2.22241C52.2032 1.84486 52.0909 1.4565 51.9298 1.09686C51.69 0.546266 51.0148 0.293543 50.4667 0.539046C49.9028 0.764271 49.6589 1.4287 49.9013 1.985Z" fill="#16BAC5"/>
<path d="M46.3262 21.4694L46.3179 21.4663C46.3205 21.472 46.3205 21.472 46.3262 21.4694Z" fill="#16BAC5"/>
</svg>
