<svg width="24" height="24" viewBox="0 0 24 24" fill="none" xmlns="http://www.w3.org/2000/svg">
<path fill-rule="evenodd" clip-rule="evenodd" d="M12 0.000244141C5.37528 0.000244141 0 5.37552 0 12.0002C0 18.625 5.37528 24.0003 12 24.0003C18.6117 24.0003 24 18.625 24 12.0002C24 5.37552 18.6117 0.000244141 12 0.000244141ZM19.9262 5.5317C21.3579 7.27573 22.217 9.50132 22.243 11.9091C21.9046 11.8441 18.5206 11.1542 15.1106 11.5838C15.0326 11.4146 14.9675 11.2323 14.8894 11.0501C14.6811 10.5556 14.4469 10.048 14.2126 9.56642C17.987 8.03065 19.705 5.81803 19.9262 5.5317ZM12 1.77031C14.603 1.77031 16.9848 2.74645 18.794 4.34732C18.6117 4.60762 17.0629 6.67704 13.4186 8.04362C11.7397 4.95903 9.87856 2.43409 9.59221 2.04363C10.3601 1.86142 11.1671 1.77031 12 1.77031ZM7.63995 2.73343C7.91325 3.09786 9.73538 5.63582 11.4404 8.65532C6.65076 9.93085 2.42083 9.90482 1.96529 9.90482C2.62907 6.7291 4.77657 4.08701 7.63995 2.73343ZM1.74404 12.0133C1.74404 11.9091 1.74404 11.805 1.74404 11.7009C2.18655 11.7139 7.15836 11.779 12.2733 10.2432C12.5727 10.8158 12.846 11.4015 13.1063 11.9872C12.9761 12.0263 12.833 12.0653 12.7028 12.1044C7.41866 13.8093 4.60738 18.4688 4.3731 18.8592C2.7462 17.0502 1.74404 14.6424 1.74404 12.0133ZM12 22.2562C9.6312 22.2562 7.44469 21.4493 5.71367 20.0957C5.89588 19.7183 7.97828 15.7096 13.757 13.6923C13.7831 13.6792 13.7961 13.6792 13.8221 13.6662C15.2668 17.4015 15.8525 20.5382 16.0087 21.4362C14.7722 21.9699 13.4186 22.2562 12 22.2562ZM17.7137 20.4992C17.6096 19.8744 17.0629 16.881 15.7223 13.1976C18.9371 12.69 21.7484 13.5231 22.0998 13.6402C21.6573 16.4905 20.0174 18.9504 17.7137 20.4992Z" fill="white"/>
</svg>
