<svg width="24" height="24" viewBox="0 0 24 24" fill="none" xmlns="http://www.w3.org/2000/svg">
<g clip-path="url(#clip0_44_1583)">
<path d="M12 2.16301C15.206 2.16301 15.5824 2.1773 16.8496 2.23446C18.0215 2.28687 18.655 2.48218 19.079 2.64891C19.6411 2.86805 20.0413 3.12529 20.4605 3.54451C20.8797 3.96372 21.1417 4.36388 21.3561 4.92601C21.5181 5.34999 21.7182 5.98357 21.7706 7.15546C21.8277 8.42263 21.842 8.79897 21.842 12.005C21.842 15.211 21.8277 15.5874 21.7706 16.8545C21.7182 18.0264 21.5228 18.66 21.3561 19.084C21.137 19.6461 20.8797 20.0463 20.4605 20.4655C20.0413 20.8847 19.6411 21.1467 19.079 21.3611C18.655 21.5231 18.0215 21.7231 16.8496 21.7756C15.5824 21.8327 15.206 21.847 12 21.847C8.79397 21.847 8.41763 21.8327 7.15046 21.7756C5.97857 21.7231 5.34498 21.5278 4.921 21.3611C4.35888 21.142 3.95872 20.8847 3.5395 20.4655C3.12029 20.0463 2.85828 19.6461 2.64391 19.084C2.48194 18.66 2.28186 18.0264 2.22946 16.8545C2.17229 15.5874 2.158 15.211 2.158 12.005C2.158 8.79897 2.17229 8.42263 2.22946 7.15546C2.28186 5.98357 2.47718 5.34999 2.64391 4.92601C2.86304 4.36388 3.12029 3.96372 3.5395 3.54451C3.95872 3.12529 4.35888 2.86328 4.921 2.64891C5.34498 2.48694 5.97857 2.28687 7.15046 2.23446C8.41763 2.17253 8.79874 2.16301 12 2.16301ZM12 0.000244141C8.74157 0.000244141 8.33188 0.0145355 7.05042 0.0717011C5.77372 0.128867 4.90195 0.33371 4.13974 0.629065C3.34895 0.933948 2.68202 1.3484 2.01509 2.01533C1.34816 2.68226 0.938468 3.35396 0.628821 4.13998C0.333466 4.90219 0.128623 5.77396 0.071457 7.05542C0.0142914 8.33212 0 8.74181 0 12.0002C0 15.2587 0.0142914 15.6684 0.071457 16.9498C0.128623 18.2265 0.333466 19.0983 0.628821 19.8653C0.933705 20.6561 1.34816 21.323 2.01509 21.9899C2.68202 22.6569 3.35371 23.0665 4.13974 23.3762C4.90195 23.6715 5.77372 23.8764 7.05519 23.9335C8.33665 23.9907 8.74157 24.005 12.0048 24.005C15.268 24.005 15.6729 23.9907 16.9544 23.9335C18.2311 23.8764 19.1028 23.6715 19.8698 23.3762C20.6606 23.0713 21.3275 22.6569 21.9945 21.9899C22.6614 21.323 23.0711 20.6513 23.3807 19.8653C23.6761 19.1031 23.8809 18.2313 23.9381 16.9498C23.9953 15.6684 24.0095 15.2634 24.0095 12.0002C24.0095 8.73704 23.9953 8.33212 23.9381 7.05066C23.8809 5.77396 23.6761 4.90219 23.3807 4.13522C23.0758 3.34443 22.6614 2.6775 21.9945 2.01057C21.3275 1.34363 20.6558 0.933948 19.8698 0.624301C19.1076 0.328946 18.2358 0.124103 16.9544 0.0669373C15.6681 0.0145355 15.2584 0.000244141 12 0.000244141Z" fill="white"/>
<path d="M12 2.16301C15.206 2.16301 15.5824 2.1773 16.8496 2.23446C18.0215 2.28687 18.655 2.48218 19.079 2.64891C19.6411 2.86805 20.0413 3.12529 20.4605 3.54451C20.8797 3.96372 21.1417 4.36388 21.3561 4.92601C21.5181 5.34999 21.7182 5.98357 21.7706 7.15546C21.8277 8.42263 21.842 8.79897 21.842 12.005C21.842 15.211 21.8277 15.5874 21.7706 16.8545C21.7182 18.0264 21.5228 18.66 21.3561 19.084C21.137 19.6461 20.8797 20.0463 20.4605 20.4655C20.0413 20.8847 19.6411 21.1467 19.079 21.3611C18.655 21.5231 18.0215 21.7231 16.8496 21.7756C15.5824 21.8327 15.206 21.847 12 21.847C8.79397 21.847 8.41763 21.8327 7.15046 21.7756C5.97857 21.7231 5.34498 21.5278 4.921 21.3611C4.35888 21.142 3.95872 20.8847 3.5395 20.4655C3.12029 20.0463 2.85828 19.6461 2.64391 19.084C2.48194 18.66 2.28186 18.0264 2.22946 16.8545C2.17229 15.5874 2.158 15.211 2.158 12.005C2.158 8.79897 2.17229 8.42263 2.22946 7.15546C2.28186 5.98357 2.47718 5.34999 2.64391 4.92601C2.86304 4.36388 3.12029 3.96372 3.5395 3.54451C3.95872 3.12529 4.35888 2.86328 4.921 2.64891C5.34498 2.48694 5.97857 2.28687 7.15046 2.23446C8.41763 2.17253 8.79874 2.16301 12 2.16301Z" fill="white"/>
<path d="M11.9998 5.84058C8.59845 5.84058 5.83545 8.59881 5.83545 12.0049C5.83545 15.411 8.59369 18.1693 11.9998 18.1693C15.4059 18.1693 18.1642 15.411 18.1642 12.0049C18.1642 8.59881 15.4059 5.84058 11.9998 5.84058ZM11.9998 16.0017C9.7894 16.0017 7.99821 14.2106 7.99821 12.0002C7.99821 9.78976 9.7894 7.99857 11.9998 7.99857C14.2102 7.99857 16.0014 9.78976 16.0014 12.0002C16.0014 14.2106 14.2102 16.0017 11.9998 16.0017Z" fill="black"/>
<path d="M18.4074 7.03163C19.202 7.03163 19.8461 6.38752 19.8461 5.59296C19.8461 4.79841 19.202 4.1543 18.4074 4.1543C17.6129 4.1543 16.9688 4.79841 16.9688 5.59296C16.9688 6.38752 17.6129 7.03163 18.4074 7.03163Z" fill="black"/>
</g>
<defs>
<clipPath id="clip0_44_1583">
<rect width="24" height="24" fill="white" transform="translate(0 0.000244141)"/>
</clipPath>
</defs>
</svg>
