<svg width="24" height="24" viewBox="0 0 24 24" fill="none" xmlns="http://www.w3.org/2000/svg">
<path d="M13.5374 12.2278C13.5374 15.9986 10.5069 19.0553 6.76883 19.0553C3.03073 19.0553 0 15.9979 0 12.2278C0 8.45782 3.0305 5.40015 6.76883 5.40015C10.5072 5.40015 13.5374 8.45713 13.5374 12.2278Z" fill="white"/>
<path d="M20.9627 12.2278C20.9627 15.7771 19.4474 18.6556 17.5783 18.6556C15.7091 18.6556 14.1938 15.7771 14.1938 12.2278C14.1938 8.67848 15.7089 5.80005 17.578 5.80005C19.4472 5.80005 20.9625 8.67756 20.9625 12.2278" fill="white"/>
<path d="M24 12.2277C24 15.4071 23.4672 17.986 22.8097 17.986C22.1522 17.986 21.6196 15.4077 21.6196 12.2277C21.6196 9.04772 22.1525 6.46948 22.8097 6.46948C23.467 6.46948 24 9.04749 24 12.2277Z" fill="white"/>
</svg>
