<svg width="18" height="16" viewBox="0 0 18 16" fill="none" xmlns="http://www.w3.org/2000/svg">
<path d="M0.995256 7C0.445591 7 -3.51977e-07 7.44772 -3.27835e-07 8C-3.03694e-07 8.55229 0.445591 9 0.995256 9L15.0142 9L10.2441 13.7929C9.8554 14.1834 9.8554 14.8166 10.2441 15.2071C10.6327 15.5976 11.2629 15.5976 11.6516 15.2071L17.417 9.41421C18.1943 8.63317 18.1943 7.36684 17.417 6.58579L11.6516 0.792894C11.2629 0.402369 10.6327 0.402369 10.2441 0.792894C9.8554 1.18342 9.8554 1.81658 10.2441 2.20711L15.0142 7L0.995256 7Z" fill="#F7F4F9"/>
</svg>
