<svg width="22" height="22" viewBox="0 0 22 22" fill="none" xmlns="http://www.w3.org/2000/svg">
<g clip-path="url(#clip0_0_3070)">
<path d="M18.0278 4.27783H6.41667C6.17355 4.27783 5.94039 4.37441 5.76849 4.54632C5.59658 4.71823 5.5 4.95138 5.5 5.1945V19.8612C5.5 20.1043 5.59658 20.3374 5.76849 20.5093C5.94039 20.6813 6.17355 20.7778 6.41667 20.7778H18.0278C18.2709 20.7778 18.5041 20.6813 18.676 20.5093C18.8479 20.3374 18.9444 20.1043 18.9444 19.8612V5.1945C18.9444 4.95138 18.8479 4.71823 18.676 4.54632C18.5041 4.37441 18.2709 4.27783 18.0278 4.27783ZM17.7222 19.5556H6.72222V5.50005H17.7222V19.5556Z" fill="#2E3047"/>
<path d="M15.8898 2.13883C15.8898 1.89572 15.7932 1.66256 15.6213 1.49065C15.4494 1.31875 15.2162 1.22217 14.9731 1.22217H3.36198C3.11886 1.22217 2.88571 1.31875 2.7138 1.49065C2.54189 1.66256 2.44531 1.89572 2.44531 2.13883V16.8055C2.44531 17.0486 2.54189 17.2818 2.7138 17.4537C2.88571 17.6256 3.11886 17.7222 3.36198 17.7222H3.66753V2.44439H15.8898V2.13883Z" fill="#2E3047"/>
</g>
<defs>
<clipPath id="clip0_0_3070">
<rect width="22" height="22" fill="white"/>
</clipPath>
</defs>
</svg>
