<svg width="54" height="54" viewBox="0 0 54 54" fill="none" xmlns="http://www.w3.org/2000/svg">
<path fill-rule="evenodd" clip-rule="evenodd" d="M10.0801 45.9201V10.0801H45.9201V45.9201H10.0801ZM10.6401 44.4624V10.6401H27.6865L10.6401 44.4624ZM15.4156 45.3601H40.5846L28.0001 43.9618L15.4156 45.3601ZM42.0381 44.9581L28.0001 41.1701L13.962 44.9581L28.0001 43.3984L42.0381 44.9581ZM28.0001 37.8283L42.4992 44.5025L28.0001 40.5901L13.5009 44.5025L28.0001 37.8283ZM42.2679 43.7796L28.0001 34.4942L13.7322 43.7796L28.0001 37.2118L42.2679 43.7796ZM28.0001 31.166L41.9652 42.9144L28.0001 33.826L14.035 42.9144L28.0001 31.166ZM41.6069 41.8812L28.0001 27.8424L14.3932 41.8812L28.0001 30.4342L41.6069 41.8812ZM28.0001 24.5223L41.2065 40.6635L28.0001 27.0378L14.7936 40.6635L28.0001 24.5223ZM40.7744 39.2509L28.0001 21.2047L15.2258 39.2509L28.0001 23.6379L40.7744 39.2509ZM28.0001 17.8891L40.3182 37.6373L28.0001 20.2355L15.6819 37.6373L28.0001 17.8891ZM39.8438 35.8185L28.0001 14.5751L16.1564 35.8185L28.0001 16.831L39.8438 35.8185ZM28.0001 11.2622L39.3552 33.7921L28.0001 13.4251L16.645 33.7921L28.0001 11.2622ZM45.3601 44.4624V10.6401H28.3136L45.3601 44.4624Z" fill="url(#paint0_linear_0_3050)"/>
<defs>
<linearGradient id="paint0_linear_0_3050" x1="10.6401" y1="45.9201" x2="45.9201" y2="45.9201" gradientUnits="userSpaceOnUse">
<stop stop-color="white" stop-opacity="0.1"/>
<stop offset="0.49336" stop-color="white"/>
<stop offset="1" stop-color="white" stop-opacity="0.1"/>
</linearGradient>
</defs>
</svg>
