<svg width="40" height="44" viewBox="0 0 40 44" fill="none" xmlns="http://www.w3.org/2000/svg">
<path d="M20.0005 0.399902C20.0005 0.399902 20.8873 11.1551 21.0538 19.4989C25.8573 14.9727 32.2418 9.78117 32.2418 9.78117C32.2418 9.78117 27.0617 16.1517 22.539 20.9534C30.0056 21.1356 39.4405 21.9999 39.4405 21.9999C39.4405 21.9999 29.987 22.8659 22.5169 23.047C27.0396 27.8486 32.2194 34.2187 32.2194 34.2187C32.2194 34.2187 25.8543 29.0431 21.0534 24.5218C20.8858 32.8627 20.0005 43.5999 20.0005 43.5999C20.0005 43.5999 19.1167 32.8805 18.9482 24.5426C14.1498 29.059 7.80422 34.2188 7.80422 34.2188C7.80422 34.2188 12.9836 27.8491 17.5062 23.0475C10.0327 22.8676 0.560547 21.9999 0.560547 21.9999C0.560547 21.9999 10.0141 21.1339 17.4841 20.9528C12.9615 16.1512 7.78174 9.78113 7.78174 9.78113C7.78174 9.78113 14.1468 14.9568 18.9477 19.4781C19.1153 11.1372 20.0005 0.399902 20.0005 0.399902Z" fill="url(#paint0_radial_0_3065)"/>
<defs>
<radialGradient id="paint0_radial_0_3065" cx="0" cy="0" r="1" gradientUnits="userSpaceOnUse" gradientTransform="translate(20.0005 21.1899) rotate(57.4396) scale(26.5892 20.5709)">
<stop stop-color="white"/>
<stop offset="1" stop-color="white"/>
</radialGradient>
</defs>
</svg>
