<svg width="207" height="207" viewBox="0 0 207 207" fill="none" xmlns="http://www.w3.org/2000/svg">
<path d="M47.8971 118.62C48.68 119.29 49.2679 120.234 49.661 121.453C50.308 123.459 50.1431 125.326 49.1663 127.054C48.2003 128.84 46.5056 130.123 44.0821 130.905C41.6312 131.696 39.4488 131.655 37.535 130.783C35.6212 129.912 34.3066 128.367 33.5911 126.149C32.9706 124.225 32.9621 122.523 33.5657 121.044C34.1603 119.559 35.159 118.496 36.562 117.855L37.5657 120.967C36.6092 121.54 36.0758 122.358 35.9653 123.421C35.9072 124.015 35.9809 124.63 36.1862 125.266C36.5793 126.485 37.3649 127.339 38.5431 127.828C39.7122 128.312 41.221 128.257 43.0695 127.66C44.9316 127.06 46.1126 126.21 46.6123 125.112C47.1121 124.013 47.1876 122.923 46.8387 121.842C46.4964 120.78 45.9113 120.009 45.0833 119.528C44.2486 119.049 43.3095 118.891 42.266 119.054L43.3955 122.555L40.8693 123.37L38.8355 117.065L46.9584 114.445L47.6341 116.54L45.8473 117.468C46.7626 117.845 47.4459 118.229 47.8971 118.62Z" fill="#F7F4F9"/>
<path d="M42.6357 102.786C43.3373 102.814 44.0705 103.125 44.8351 103.718C46.0491 104.639 46.7222 106.004 46.8542 107.812C46.9632 109.304 46.5786 110.656 45.7006 111.867C44.8225 113.078 43.3002 113.762 41.1335 113.92C39.1032 114.069 37.5089 113.669 36.3507 112.723C35.1919 111.769 34.5525 110.47 34.4325 108.827C34.3613 107.851 34.48 106.959 34.7888 106.151C35.0976 105.342 35.628 104.654 36.38 104.087C37.0423 103.577 37.8277 103.22 38.7361 103.017C39.2684 102.899 40.0409 102.81 41.0535 102.75L41.6398 110.778C42.8132 110.649 43.6113 110.22 44.034 109.489C44.2972 109.044 44.4071 108.524 44.3636 107.929C44.3175 107.297 44.1007 106.798 43.7131 106.429C43.5037 106.228 43.2208 106.058 42.8644 105.918L42.6357 102.786ZM39.2629 106.083C38.4559 106.193 37.8606 106.485 37.477 106.96C37.0856 107.429 36.9138 107.99 36.9615 108.642C37.0134 109.353 37.2761 109.889 37.7497 110.251C38.2228 110.606 38.8433 110.806 39.6111 110.851L39.2629 106.083Z" fill="#F7F4F9"/>
<path d="M44.577 95.3374L46.8674 95.528L46.8004 96.9841C46.73 98.4364 46.3968 99.4047 45.8006 99.8893C45.4207 100.204 44.8652 100.331 44.134 100.27L36.9187 99.6697L36.7827 101.304L34.5999 101.123L34.7359 99.4881L31.467 99.216L31.7194 96.1836L34.9883 96.4557L35.1467 94.5524L37.3296 94.7341L37.1711 96.6374L43.3648 97.1529C43.8451 97.1929 44.1513 97.157 44.2833 97.0453C44.4082 96.933 44.4965 96.565 44.5484 95.9413C44.5562 95.8481 44.5642 95.7513 44.5726 95.651C44.5744 95.5429 44.5759 95.4383 44.577 95.3374Z" fill="#F7F4F9"/>
<path d="M37.9159 82.0584L49.1693 85.4771L48.2629 88.4608L37.0095 85.0421L37.9159 82.0584ZM33.8585 80.8258L36.5737 81.6507L35.6673 84.6344L32.952 83.8095L33.8585 80.8258Z" fill="#F7F4F9"/>
<path d="M43.6625 73.9538C43.2042 74.8907 43.2872 75.7281 43.9113 76.4658C44.2428 76.8522 44.7349 77.205 45.3875 77.5242L51.1063 80.3214L49.7598 83.0741L39.2141 77.9159L40.5179 75.2504L42.059 76.0042C41.6901 75.3833 41.4635 74.8561 41.3793 74.4225C41.2309 73.6453 41.3701 72.8205 41.7968 71.9481C42.3309 70.8561 43.0547 70.105 43.968 69.6949C44.878 69.2751 45.9953 69.3892 47.32 70.0372L54.4345 73.5171L53.0501 76.3474L46.6238 73.2041C46.0681 72.9322 45.6052 72.7979 45.2353 72.8012C44.5598 72.8071 44.0355 73.1913 43.6625 73.9538Z" fill="#F7F4F9"/>
<path d="M61.302 61.4152L63.0184 62.9437L62.09 64.0674C61.1612 65.1861 60.3131 65.76 59.5454 65.7892C59.0525 65.8127 58.5321 65.5804 57.9841 65.0925L52.577 60.2776L51.4863 61.5025L49.8505 60.0458L50.9412 58.8209L48.4914 56.6395L50.515 54.3671L52.9647 56.5485L54.2348 55.1221L55.8707 56.5788L54.6006 58.0051L59.2422 62.1383C59.6021 62.4589 59.8684 62.6141 60.041 62.6041C60.2083 62.5893 60.5001 62.3482 60.9162 61.8809C60.9784 61.811 61.043 61.7385 61.11 61.6633C61.1764 61.5779 61.2404 61.4952 61.302 61.4152Z" fill="#F7F4F9"/>
<path d="M64.5644 48.0484C66.1179 48.396 67.4266 49.2313 68.4905 50.5543C69.5724 51.8996 70.112 53.3626 70.1093 54.9433C70.1021 56.5184 69.3109 57.9393 67.7357 59.206C66.1606 60.4728 64.603 60.9408 63.0631 60.6099C61.5186 60.2735 60.2054 59.4326 59.1235 58.0872C58.0596 56.7643 57.5245 55.3069 57.5182 53.715C57.5118 52.1231 58.2963 50.6938 59.8715 49.427C61.4466 48.1603 63.011 47.7007 64.5644 48.0484ZM61.4927 51.4602C60.792 52.0237 60.4517 52.7082 60.4717 53.5137C60.4928 54.309 60.8731 55.1663 61.6124 56.0856C62.3517 57.005 63.1098 57.5631 63.8866 57.7599C64.6689 57.9523 65.4105 57.7667 66.1112 57.2032C66.8119 56.6397 67.1494 55.9575 67.1238 55.1565C67.0982 54.3556 66.7157 53.4955 65.9764 52.5761C65.237 51.6568 64.4812 51.1015 63.7089 50.9103C62.9322 50.7134 62.1934 50.8967 61.4927 51.4602Z" fill="#F7F4F9"/>
<path d="M79.2535 49.6424C79.2436 49.6874 79.2268 49.816 79.2032 50.0282C79.1796 50.2404 79.1271 50.4428 79.0456 50.6354C78.8045 51.2358 78.5157 51.7072 78.1793 52.0496C77.8494 52.3889 77.4135 52.6923 76.8717 52.9597C75.3106 53.7301 73.9822 53.6878 72.8864 52.8328C72.2776 52.3631 71.6756 51.5252 71.0803 50.3189L67.943 43.9618L70.7684 42.5674L73.9057 48.9246C74.2017 49.5245 74.4955 49.941 74.7871 50.1741C75.3029 50.5854 75.9285 50.6096 76.6638 50.2466C77.6056 49.7819 78.0629 49.0829 78.0356 48.1498C78.0124 47.6479 77.8337 47.0582 77.4995 46.3809L74.6678 40.643L77.4641 39.263L82.6691 49.8098L79.9889 51.1325L79.2535 49.6424Z" fill="#F7F4F9"/>
<path d="M92.8397 39.1758L89.7875 39.9576C89.6229 39.5468 89.3818 39.2001 89.0644 38.9176C88.6121 38.5433 88.0341 38.4463 87.3303 38.6266C86.3268 38.8836 85.768 39.5577 85.6539 40.6488C85.5945 41.2284 85.6772 41.9572 85.9021 42.8352C86.1163 43.6714 86.3861 44.3189 86.7115 44.7776C87.3096 45.6343 88.1 45.9368 89.0825 45.6851C89.7794 45.5066 90.2259 45.1918 90.4222 44.7405C90.6185 44.2892 90.6713 43.7559 90.5805 43.1406L93.6222 42.3615C93.7846 43.2852 93.6766 44.2262 93.2983 45.1845C92.6983 46.7268 91.4819 47.7326 89.6492 48.2021C87.8165 48.6715 86.3289 48.4733 85.1864 47.6076C84.0438 46.7418 83.2504 45.4414 82.8059 43.7062C82.3044 41.7481 82.3917 40.1032 83.0679 38.7716C83.7442 37.44 84.922 36.5591 86.6014 36.1289C88.0299 35.763 89.2793 35.7846 90.3494 36.1937C91.4265 36.601 92.2566 37.595 92.8397 39.1758Z" fill="#F7F4F9"/>
<path d="M106.224 38.9827L106.495 45.883L103.357 46.0063L103.076 38.8579C103.052 38.2254 102.924 37.7193 102.693 37.3396C102.391 36.8043 101.848 36.5521 101.065 36.5828C100.253 36.6147 99.6453 36.9121 99.2427 37.4751C98.8469 38.0305 98.6688 38.8114 98.7084 39.8177L98.9582 46.179L95.8961 46.2993L95.2741 30.4607L98.3362 30.3405L98.5568 35.9578C98.9756 35.2575 99.4709 34.7629 100.043 34.4741C100.621 34.1778 101.234 34.0169 101.881 33.9915C102.607 33.963 103.27 34.063 103.869 34.2914C104.475 34.5196 104.979 34.8849 105.381 35.3875C105.721 35.8133 105.937 36.2583 106.027 36.7227C106.117 37.1799 106.182 37.9332 106.224 38.9827Z" fill="#F7F4F9"/>
<path d="M118.797 48.4602C117.258 47.9806 116.198 47.1527 115.615 45.9765C115.032 44.8002 114.913 43.6592 115.258 42.5536C115.543 41.6402 116.014 40.928 116.67 40.4169C117.327 39.9058 118.27 39.4914 119.499 39.1739L119.879 39.0777C119.594 38.4463 119.411 37.8355 119.332 37.2455C119.252 36.6555 119.299 36.0824 119.472 35.5261C119.817 34.4205 120.456 33.6742 121.391 33.2874C122.327 32.8937 123.386 32.8809 124.567 33.2492C125.645 33.5853 126.435 34.1819 126.937 35.0389C127.447 35.8912 127.548 36.8119 127.24 37.8008C126.961 38.6935 126.523 39.3517 125.923 39.7752C125.331 40.2009 124.552 40.5233 123.587 40.7423L124.912 44.0712C125.27 43.7912 125.58 43.462 125.841 43.0838C126.109 42.7077 126.319 42.2872 126.472 41.8224L129.078 42.6349C128.75 43.5423 128.24 44.4043 127.549 45.221C127.164 45.6813 126.625 46.1537 125.931 46.6382L127.658 50.8158L124.094 49.7047L123.444 48.0895C122.789 48.4049 122.205 48.6074 121.695 48.697C120.786 48.8581 119.82 48.7792 118.797 48.4602ZM120.809 41.4246C119.922 41.6831 119.301 41.9603 118.945 42.2562C118.596 42.5543 118.352 42.9265 118.213 43.3729C118.056 43.8742 118.115 44.3975 118.39 44.9427C118.671 45.4901 119.131 45.8633 119.77 46.0624C120.251 46.2123 120.738 46.2437 121.233 46.1567C121.736 46.065 122.164 45.9235 122.518 45.7323L120.809 41.4246ZM122.203 36.2645C122.117 36.5392 122.124 36.8576 122.222 37.2197C122.283 37.4574 122.441 37.8946 122.694 38.5312C123.196 38.3713 123.568 38.2195 123.808 38.076C124.267 37.8122 124.564 37.464 124.699 37.0314C124.798 36.7155 124.782 36.4018 124.653 36.0903C124.524 35.7789 124.251 35.5578 123.832 35.4273C123.571 35.3459 123.304 35.342 123.033 35.4156C122.623 35.5214 122.346 35.8044 122.203 36.2645Z" fill="#F7F4F9"/>
<path d="M142.706 41.389L145.267 43.0914L136.462 56.3367L133.901 54.6343L142.706 41.389Z" fill="#F7F4F9"/>
<path d="M148.367 61.8638C147.839 62.3263 147.093 62.6056 146.13 62.7015C144.615 62.8689 143.188 62.3424 141.848 61.1217C140.741 60.1142 140.09 58.8691 139.894 57.3863C139.697 55.9035 140.33 54.359 141.793 52.7529C143.164 51.2479 144.595 50.4402 146.087 50.3298C147.584 50.2242 148.942 50.726 150.16 51.8353C150.883 52.494 151.411 53.223 151.744 54.0222C152.076 54.8214 152.165 55.6854 152.01 56.6143C151.88 57.4402 151.556 58.2395 151.037 59.0123C150.732 59.4644 150.233 60.0606 149.54 60.8008L143.588 55.3806C142.826 56.2819 142.543 57.1429 142.739 57.9638C142.854 58.4676 143.132 58.9205 143.574 59.3226C144.042 59.7488 144.543 59.9622 145.078 59.9627C145.368 59.9644 145.691 59.8933 146.046 59.7495L148.367 61.8638ZM148.544 57.1504C149.054 56.5156 149.285 55.8937 149.236 55.285C149.198 54.6757 148.936 54.1507 148.452 53.7099C147.926 53.2304 147.366 53.0223 146.773 53.0856C146.186 53.1538 145.598 53.4358 145.01 53.9318L148.544 57.1504Z" fill="#F7F4F9"/>
<path d="M152.02 68.517L150.229 69.9573L149.274 68.856C148.324 67.7552 147.898 66.8238 147.996 66.0619C148.054 65.5719 148.369 65.097 148.941 64.6372L154.583 60.0999L153.555 58.8218L155.262 57.4491L156.29 58.7272L158.846 56.6715L160.753 59.0427L158.197 61.0983L159.394 62.5866L157.687 63.9593L156.49 62.471L151.647 66.366C151.271 66.668 151.074 66.905 151.055 67.077C151.042 67.2444 151.232 67.5719 151.624 68.0596C151.683 68.1325 151.744 68.2082 151.807 68.2866C151.88 68.3662 151.951 68.443 152.02 68.517Z" fill="#F7F4F9"/>
<path d="M164.091 66.2551C163.177 66.8414 162.312 67.0794 161.498 66.9691C160.688 66.8649 159.946 66.4606 159.272 65.7562L160.226 65.1446C160.794 65.6177 161.374 65.8226 161.966 65.7593C162.31 65.7095 162.612 65.5882 162.873 65.3953L161.959 63.9693L164.348 62.4375L166.008 65.0262L164.091 66.2551Z" fill="#F7F4F9"/>
<path d="M167.441 78.05C167.281 79.1318 166.574 80.0308 165.319 80.7469L164.055 77.9436C164.398 77.7416 164.637 77.5113 164.773 77.2527C165.014 76.773 164.968 76.1627 164.634 75.4217C164.359 74.8118 164.067 74.4187 163.758 74.2421C163.453 74.0722 163.172 74.0449 162.916 74.1602C162.595 74.3051 162.424 74.5478 162.404 74.8883C162.378 75.2317 162.558 76.3223 162.945 78.16C163.185 79.3931 163.166 80.4081 162.886 81.205C162.597 81.9983 162.049 82.5769 161.242 82.9407C160.18 83.4198 159.132 83.4149 158.099 82.9261C157.075 82.4409 156.191 81.3721 155.445 79.7196C154.685 78.0344 154.477 76.6288 154.822 75.5028C155.176 74.3805 155.904 73.5708 157.005 73.074L158.287 75.9166C157.816 76.2004 157.519 76.488 157.398 76.7793C157.181 77.2954 157.284 78.0223 157.707 78.96C157.955 79.5109 158.234 79.9099 158.543 80.1573C158.855 80.4112 159.174 80.4643 159.502 80.3164C159.817 80.1744 159.997 79.9353 160.043 79.5991C160.089 79.2629 159.931 78.1619 159.571 76.2963C159.326 74.9471 159.317 73.9214 159.545 73.2189C159.766 72.5195 160.296 71.9805 161.135 71.6019C162.125 71.1553 163.149 71.1592 164.206 71.6136C165.273 72.0715 166.124 73.0054 166.76 74.4152C167.363 75.7529 167.59 76.9645 167.441 78.05Z" fill="#F7F4F9"/>
<path d="M169.283 97.1747C169.834 96.8812 170.087 96.3575 170.04 95.6037C169.986 94.7277 169.666 94.1565 169.08 93.89C168.747 93.7448 168.261 93.6919 167.622 93.7314L160.557 94.1676L160.365 91.0552L172.082 90.3317L172.266 93.3149L170.554 93.4206C171.188 93.7634 171.644 94.0956 171.924 94.4171C172.42 94.9846 172.697 95.7423 172.756 96.69C172.811 97.5875 172.659 98.3248 172.298 98.9021C171.959 99.3698 171.51 99.7363 170.95 100.002C171.664 100.361 172.201 100.829 172.561 101.405C172.923 102.017 173.128 102.71 173.175 103.486C173.207 104.003 173.138 104.519 172.968 105.034C172.798 105.549 172.475 106.026 171.997 106.466C171.609 106.822 171.12 107.076 170.531 107.227C170.14 107.323 169.565 107.395 168.804 107.442L161.404 107.877L161.209 104.733L168.683 104.271C169.129 104.244 169.49 104.149 169.769 103.988C170.298 103.681 170.539 103.162 170.494 102.43C170.442 101.582 170.054 101.019 169.33 100.739C168.947 100.597 168.493 100.542 167.969 100.575L160.979 101.006L160.788 97.9154L167.778 97.4839C168.474 97.4409 168.976 97.3378 169.283 97.1747Z" fill="#F7F4F9"/>
<path d="M171.089 112.112C171.946 113.112 172.182 114.582 171.795 116.522C171.544 117.784 171.07 118.856 170.373 119.737C169.677 120.618 168.634 120.92 167.244 120.643L161.953 119.589C161.586 119.516 161.141 119.434 160.616 119.345C160.216 119.287 159.936 119.294 159.776 119.364C159.615 119.435 159.469 119.56 159.338 119.739L158.893 119.651L159.547 116.37C159.798 116.325 160.029 116.305 160.241 116.31C160.453 116.316 160.691 116.334 160.956 116.365C160.588 115.859 160.299 115.302 160.089 114.696C159.845 113.972 159.804 113.201 159.967 112.383C160.175 111.339 160.644 110.534 161.372 109.967C162.107 109.41 163.021 109.24 164.115 109.457C165.533 109.74 166.45 110.491 166.867 111.711C167.093 112.38 167.165 113.311 167.081 114.504L167.003 115.556C166.963 116.127 166.972 116.544 167.03 116.805C167.128 117.271 167.37 117.544 167.758 117.621C168.231 117.715 168.589 117.614 168.831 117.317C169.079 117.029 169.266 116.568 169.393 115.933C169.535 115.22 169.459 114.681 169.165 114.314C168.946 114.051 168.622 113.839 168.191 113.68L168.771 110.77C169.767 111.035 170.54 111.482 171.089 112.112ZM162.536 112.741C162.247 112.977 162.062 113.299 161.98 113.708C161.851 114.357 161.923 114.991 162.196 115.61C162.467 116.237 163.105 116.661 164.11 116.883L165.231 117.106C165.149 116.892 165.089 116.678 165.051 116.465C165.018 116.261 165.004 115.983 165.008 115.632L165.016 114.929C165.03 114.272 164.983 113.789 164.875 113.482C164.693 112.961 164.312 112.643 163.734 112.528C163.219 112.426 162.82 112.496 162.536 112.741Z" fill="#F7F4F9"/>
<path d="M154.44 130.641L155.862 127.212L161.585 126.537L160.847 124.852L157.428 123.435L158.585 120.644L173.227 126.715L172.07 129.505L164.156 126.224L166.775 131.457L165.316 134.975L162.735 129.455L154.44 130.641Z" fill="#F7F4F9"/>
<path d="M151.413 141.363C150.877 140.909 150.491 140.213 150.254 139.275C149.864 137.801 150.174 136.312 151.183 134.806C152.016 133.563 153.151 132.735 154.588 132.321C156.026 131.907 157.647 132.305 159.452 133.514C161.143 134.648 162.153 135.944 162.483 137.403C162.809 138.868 162.513 140.285 161.596 141.654C161.052 142.466 160.409 143.096 159.667 143.543C158.926 143.991 158.085 144.206 157.143 144.19C156.307 144.184 155.469 143.981 154.628 143.582C154.135 143.348 153.472 142.942 152.637 142.366L157.118 135.679C156.114 135.058 155.221 134.905 154.438 135.22C153.957 135.409 153.55 135.751 153.217 136.247C152.865 136.773 152.728 137.3 152.807 137.829C152.848 138.117 152.966 138.425 153.161 138.755L151.413 141.363ZM156.1 140.842C156.804 141.252 157.453 141.388 158.048 141.25C158.645 141.122 159.125 140.786 159.49 140.242C159.886 139.65 160.009 139.066 159.859 138.489C159.705 137.918 159.339 137.379 158.761 136.871L156.1 140.842Z" fill="#F7F4F9"/>
<path d="M144.11 158.857C143.022 158.97 141.976 158.507 140.972 157.468L143.376 155.549C143.656 155.832 143.938 156.007 144.223 156.075C144.747 156.19 145.327 155.994 145.962 155.487C146.485 155.07 146.794 154.69 146.889 154.347C146.978 154.009 146.935 153.731 146.76 153.511C146.54 153.236 146.263 153.13 145.928 153.195C145.589 153.254 144.577 153.698 142.892 154.528C141.756 155.065 140.768 155.297 139.927 155.223C139.086 155.139 138.39 154.751 137.838 154.06C137.112 153.149 136.857 152.132 137.076 151.01C137.293 149.898 138.11 148.777 139.527 147.646C140.972 146.493 142.282 145.944 143.458 146C144.633 146.065 145.598 146.57 146.352 147.515L143.914 149.46C143.523 149.073 143.171 148.857 142.858 148.812C142.305 148.729 141.626 149.008 140.822 149.65C140.349 150.027 140.031 150.395 139.868 150.756C139.699 151.121 139.727 151.444 139.951 151.725C140.167 151.995 140.443 152.11 140.78 152.071C141.117 152.033 142.145 151.608 143.864 150.798C145.11 150.227 146.102 149.964 146.839 150.011C147.571 150.053 148.225 150.433 148.799 151.153C149.476 152.002 149.726 152.995 149.547 154.132C149.367 155.278 148.672 156.334 147.463 157.299C146.316 158.214 145.198 158.733 144.11 158.857Z" fill="#F7F4F9"/>
<path d="M130.431 165.619C128.985 164.954 127.881 163.863 127.118 162.346C126.342 160.804 126.121 159.26 126.454 157.715C126.792 156.177 127.863 154.953 129.669 154.045C131.474 153.136 133.095 153.005 134.532 153.651C135.971 154.304 137.079 155.401 137.855 156.944C138.618 158.46 138.836 159.997 138.509 161.555C138.181 163.113 137.115 164.346 135.309 165.255C133.503 166.163 131.877 166.285 130.431 165.619ZM134.15 162.927C134.953 162.523 135.429 161.925 135.578 161.133C135.724 160.351 135.532 159.433 135.002 158.379C134.472 157.325 133.848 156.621 133.129 156.265C132.405 155.913 131.641 155.939 130.837 156.344C130.034 156.748 129.561 157.344 129.418 158.133C129.276 158.921 129.469 159.842 130 160.896C130.53 161.95 131.152 162.651 131.867 163C132.586 163.355 133.347 163.331 134.15 162.927Z" fill="#F7F4F9"/>
<path d="M118.653 167.587C119.019 168.094 119.572 168.273 120.312 168.125C121.173 167.952 121.696 167.558 121.88 166.942C121.979 166.592 121.966 166.103 121.84 165.475L120.452 158.534L123.51 157.923L125.812 169.434L122.881 170.021L122.545 168.338C122.291 169.013 122.024 169.51 121.743 169.83C121.248 170.399 120.535 170.776 119.604 170.962C118.722 171.139 117.971 171.087 117.35 170.808C116.841 170.536 116.417 170.14 116.078 169.621C115.818 170.377 115.428 170.972 114.906 171.407C114.349 171.848 113.689 172.145 112.927 172.298C112.419 172.399 111.899 172.401 111.365 172.302C110.832 172.203 110.315 171.947 109.814 171.534C109.409 171.197 109.092 170.747 108.862 170.184C108.714 169.81 108.565 169.249 108.416 168.501L106.983 161.228L110.072 160.61L111.541 167.953C111.629 168.391 111.771 168.736 111.969 168.99C112.344 169.473 112.891 169.642 113.611 169.498C114.443 169.332 114.949 168.871 115.128 168.116C115.217 167.717 115.21 167.26 115.107 166.745L113.733 159.878L116.77 159.271L118.143 166.138C118.28 166.822 118.45 167.305 118.653 167.587Z" fill="#F7F4F9"/>
<path d="M94.985 163.791C95.1065 163.099 95.5122 162.414 96.2022 161.735C97.2771 160.655 98.7192 160.17 100.529 160.281C102.022 160.372 103.31 160.933 104.393 161.965C105.476 162.997 105.951 164.597 105.819 166.765C105.695 168.797 105.087 170.324 103.994 171.345C102.894 172.366 101.522 172.827 99.8775 172.727C98.901 172.667 98.0326 172.43 97.2723 172.016C96.512 171.602 95.9011 170.985 95.4395 170.164C95.0224 169.44 94.7737 168.614 94.6934 167.686C94.6472 167.143 94.6622 166.366 94.7383 165.354L102.773 165.844C102.802 164.664 102.482 163.816 101.815 163.299C101.409 162.979 100.908 162.801 100.312 162.764C99.6804 162.726 99.156 162.874 98.7392 163.209C98.512 163.39 98.3053 163.647 98.1191 163.982L94.985 163.791ZM97.8028 167.573C97.8035 168.388 98.0138 169.017 98.4336 169.46C98.8457 169.911 99.3785 170.156 100.032 170.196C100.743 170.239 101.309 170.05 101.731 169.629C102.146 169.208 102.427 168.619 102.574 167.864L97.8028 167.573Z" fill="#F7F4F9"/>
<path d="M88.0699 160.936L88.5599 158.69L89.9946 158.948C91.425 159.209 92.3412 159.666 92.7431 160.321C93.0053 160.739 93.0582 161.306 92.9017 162.023L91.358 169.097L92.9604 169.447L92.4933 171.587L90.891 171.237L90.1916 174.442L87.2187 173.793L87.9181 170.588L86.0522 170.181L86.5192 168.041L88.3851 168.448L89.7103 162.376C89.8131 161.905 89.8178 161.597 89.7244 161.451C89.6294 161.313 89.2762 161.177 88.6648 161.043C88.5734 161.024 88.4786 161.003 88.3802 160.981C88.2732 160.965 88.1698 160.95 88.0699 160.936Z" fill="#F7F4F9"/>
<path d="M75.0447 161.144L77.6199 154.737L80.5333 155.908L77.8656 162.546C77.6296 163.133 77.5392 163.647 77.5946 164.088C77.651 164.7 78.043 165.152 78.7705 165.444C79.5248 165.748 80.2007 165.725 80.7984 165.376C81.3867 165.031 81.8686 164.391 82.2442 163.456L84.6182 157.549L87.4615 158.692L81.5507 173.4L78.7073 172.257L80.8037 167.041C80.135 167.508 79.4807 167.757 78.8409 167.787C78.1916 167.82 77.5666 167.717 76.9659 167.475C76.2918 167.204 75.728 166.842 75.2746 166.388C74.8145 165.932 74.5041 165.393 74.3435 164.77C74.2068 164.242 74.1922 163.748 74.2998 163.287C74.4048 162.833 74.6531 162.119 75.0447 161.144Z" fill="#F7F4F9"/>
<path d="M66.8779 161.926L72.951 151.854L75.6215 153.465L69.5483 163.537L66.8779 161.926ZM64.6882 165.558L66.1536 163.128L68.824 164.738L67.3587 167.168L64.6882 165.558Z" fill="#F7F4F9"/>
<path d="M60.6184 154.545C61.4152 155.218 62.2474 155.342 63.1151 154.917C63.5707 154.69 64.0329 154.299 64.5018 153.744L68.6099 148.88L70.9508 150.858L63.3753 159.826L61.1085 157.911L62.2156 156.601C61.5234 156.807 60.9568 156.898 60.5158 156.874C59.7258 156.828 58.9599 156.492 58.2181 155.865C57.2894 155.081 56.7376 154.196 56.5627 153.21C56.3777 152.225 56.761 151.169 57.7126 150.043L62.8233 143.992L65.2302 146.026L60.6139 151.491C60.2147 151.963 59.9715 152.379 59.8844 152.739C59.7253 153.395 59.9699 153.998 60.6184 154.545Z" fill="#F7F4F9"/>
<path d="M61.1188 138.811C61.1417 138.378 60.9156 137.849 60.4407 137.225C59.7698 136.344 59.0262 135.979 58.2101 136.13C57.6842 136.223 56.9748 136.609 56.0818 137.289L55.4808 137.746C56.0601 137.676 56.5523 137.699 56.9575 137.816C57.6998 138.019 58.3673 138.51 58.9598 139.288C59.8748 140.49 60.186 141.772 59.8936 143.134C59.5911 144.494 58.7186 145.723 57.2762 146.821C55.8853 147.88 54.454 148.422 52.9824 148.449C51.505 148.479 50.2827 147.859 49.3155 146.589C48.9582 146.119 48.7183 145.656 48.5956 145.197C48.3886 144.415 48.4748 143.59 48.8542 142.722L47.5062 143.749L45.696 141.37L54.5737 134.613C55.7815 133.693 56.8462 133.204 57.768 133.144C59.3528 133.041 60.8989 133.979 62.4064 135.96C63.3169 137.156 63.8251 138.311 63.9309 139.423C64.0366 140.536 63.6535 141.488 62.7815 142.278L60.7555 139.617C60.9895 139.33 61.1106 139.062 61.1188 138.811ZM56.5987 142.903C57.1359 141.969 57.0777 141.073 56.4242 140.215C55.9885 139.643 55.4057 139.322 54.6758 139.254C53.9402 139.19 53.1001 139.518 52.1557 140.237C51.2685 140.912 50.7368 141.615 50.5607 142.346C50.3803 143.071 50.5297 143.748 51.009 144.378C51.6625 145.236 52.517 145.521 53.5724 145.233C54.1324 145.078 54.7272 144.761 55.3568 144.282C55.9006 143.868 56.3146 143.408 56.5987 142.903Z" fill="#F7F4F9"/>
<path d="M102.741 74.7488C102.741 74.7488 103.955 89.469 104.183 100.889C110.757 94.694 119.495 87.5886 119.495 87.5886C119.495 87.5886 112.406 96.3077 106.215 102.88C116.435 103.129 129.348 104.312 129.348 104.312C129.348 104.312 116.409 105.497 106.185 105.745C112.375 112.317 119.465 121.036 119.465 121.036C119.465 121.036 110.753 113.952 104.182 107.764C103.953 119.18 102.741 133.875 102.741 133.875C102.741 133.875 101.532 119.204 101.301 107.792C94.7334 113.974 86.0485 121.036 86.0485 121.036C86.0485 121.036 93.1374 112.318 99.3272 105.746C89.0985 105.5 76.1343 104.312 76.1343 104.312C76.1343 104.312 89.073 103.127 99.297 102.879C93.107 96.3071 86.0177 87.5886 86.0177 87.5886C86.0177 87.5886 94.7293 94.6723 101.3 100.861C101.53 89.4445 102.741 74.7488 102.741 74.7488Z" fill="url(#paint0_radial_0_3106)"/>
<defs>
<radialGradient id="paint0_radial_0_3106" cx="0" cy="0" r="1" gradientUnits="userSpaceOnUse" gradientTransform="translate(102.741 103.203) rotate(57.4396) scale(36.3917 28.1547)">
<stop stop-color="white"/>
<stop offset="1" stop-color="white" stop-opacity="0.73"/>
</radialGradient>
</defs>
</svg>
