<svg width="55" height="82" viewBox="0 0 55 82" fill="none" xmlns="http://www.w3.org/2000/svg">
<path d="M37.9892 76.1448C37.7772 76.3638 37.5377 76.5515 37.2926 76.7359C36.9075 77.029 36.4847 77.2695 36.0444 77.4616C35.5737 77.6665 35.0564 77.7297 34.5476 77.7522C34.0266 77.7827 33.4998 77.8099 32.9731 77.8371C32.5311 77.8757 32.0914 77.9234 31.6555 78.0037C31.3887 78.0687 31.1253 78.128 30.8575 78.2076C30.9844 78.2514 31.117 78.2985 31.2439 78.3423C31.6606 78.4642 32.0795 78.595 32.5038 78.6908C32.635 78.7142 32.7695 78.732 32.904 78.7497C33.2638 78.5257 33.7408 78.4923 34.127 78.7183C34.6722 79.0374 34.8663 79.761 34.5439 80.3119C34.0486 81.1581 33.0056 81.1424 32.1542 80.9947C31.4429 80.8682 30.7474 80.6364 30.0643 80.3967C29.525 80.2107 28.9958 80.0077 28.4765 79.7877C28.2157 79.6732 27.9458 79.5609 27.685 79.4464C27.2779 79.2691 26.8689 79.1213 26.6085 78.7325C26.2219 78.1554 26.3467 77.3821 26.9724 77.0164C27.4693 76.7277 28.0335 76.6234 28.586 76.4741C28.9551 76.3775 29.3138 76.2596 29.6783 76.145C29.6332 76.1568 29.585 76.1743 29.5366 76.1917C30.6342 75.8277 31.7509 75.574 32.9082 75.5117C33.4349 75.4845 33.9617 75.4573 34.4828 75.4268C34.6372 75.4105 34.7917 75.3942 34.9461 75.3778C34.9911 75.366 35.0328 75.3599 35.0722 75.3448C35.1385 75.3227 35.1992 75.2972 35.2688 75.2693C35.4035 75.1956 35.5414 75.1162 35.6703 75.0392C35.8586 74.913 36.0411 74.7835 36.2157 74.6417C36.181 74.6748 36.1408 74.7046 36.1028 74.7434C36.1777 74.6805 36.256 74.6119 36.3196 74.5424C36.2865 74.5077 36.2533 74.4731 36.2202 74.4385C36.2008 74.4195 36.1724 74.4029 36.153 74.3839C36.1133 74.3606 36.0735 74.3374 36.0338 74.3141C35.9192 74.2623 35.8014 74.2162 35.6778 74.1668C35.594 74.1406 35.5012 74.1168 35.4198 74.0996C35.0963 74.0399 34.7776 73.9982 34.4432 73.9703C33.0295 73.8976 31.6013 73.9538 30.186 73.9489C28.0924 73.9435 26.0741 73.2883 24.1065 72.6247C23.8064 72.5252 23.5071 72.4111 23.2136 72.3003C22.6437 72.0887 22.0345 71.8008 21.7293 71.2409C21.4312 70.7081 21.2739 70.0518 21.4378 69.4463C21.6145 68.7796 22.1245 68.247 22.7331 67.9627C23.372 67.6657 24.0466 67.5421 24.7468 67.4792C25.3669 67.4228 25.9955 67.4171 26.6188 67.4464C27.2828 67.4843 27.9444 67.5132 28.6042 67.5715C30.249 67.7184 31.8914 67.9477 33.5405 68.0742C34.0691 68.1091 34.5939 68.1112 35.1206 68.0841C35.4262 68.057 35.7327 68.0153 36.0459 67.9623C36.4434 67.8823 36.8306 67.7811 37.2163 67.6561C37.494 67.5594 37.7613 67.4414 38.0286 67.3233C38.2879 67.193 38.5359 67.056 38.7791 66.901C38.983 66.7611 39.1811 66.6178 39.3746 66.4566C39.644 66.2178 39.8964 65.969 40.1407 65.7079C40.3547 65.4595 40.5573 65.2045 40.7519 64.9372C40.7752 64.8974 40.8018 64.852 40.825 64.8123C40.836 64.7805 40.8502 64.7431 40.8668 64.7147C40.8702 64.709 40.8645 64.7057 40.8621 64.6967C40.8598 64.6877 40.8631 64.6821 40.8575 64.6787C40.8471 64.6574 40.8423 64.6394 40.8286 64.6237C40.8447 64.6484 40.8584 64.664 40.8688 64.6854C40.8366 64.636 40.8012 64.5924 40.769 64.5431C40.7222 64.4928 40.6778 64.4516 40.631 64.4013C40.6561 64.4236 40.6755 64.4426 40.7005 64.4649C40.7223 64.4928 40.744 64.5208 40.769 64.5431C40.753 64.5185 40.7312 64.4905 40.7062 64.4682C40.7175 64.4748 40.7199 64.4838 40.7256 64.4871C40.7142 64.4805 40.7005 64.4649 40.6925 64.4526C40.6844 64.4402 40.6764 64.4279 40.665 64.4212C40.6764 64.4279 40.6788 64.4369 40.6868 64.4492C40.6173 64.3857 40.5501 64.3311 40.4739 64.2788C40.3466 64.1967 40.216 64.1203 40.0821 64.0495C39.9391 63.9811 39.7985 63.9217 39.6455 63.8703C39.3885 63.7884 39.1248 63.718 38.8634 63.6565C38.5196 63.5925 38.1715 63.5489 37.8225 63.52C36.3296 63.4392 34.8255 63.5729 33.33 63.666C32.0567 63.7441 30.79 63.811 29.5201 63.792C29.1871 63.7878 28.8442 63.8005 28.5098 63.7726C28.1755 63.7446 27.8378 63.7223 27.5001 63.7001C27.2358 63.6826 26.9705 63.6799 26.7105 63.6421C26.3454 63.5885 25.977 63.5406 25.6086 63.4927C24.3607 63.3189 23.1157 63.1011 21.8979 62.7848C20.8307 62.5109 19.7611 62.228 18.7143 61.8669C18.7664 61.8822 18.8151 61.9031 18.8615 61.915C18.7834 61.8921 18.703 61.8603 18.6248 61.8374C18.5036 61.797 18.3825 61.7566 18.2556 61.7128C18.2092 61.7009 18.1628 61.689 18.114 61.6681C18.071 61.6505 18.0302 61.6419 17.9871 61.6243C17.8976 61.5948 17.8139 61.5687 17.7244 61.5392C17.5241 61.4906 17.329 61.4069 17.1364 61.3323C17.0957 61.3237 17.0582 61.3094 17.0265 61.2984C16.4125 61.0839 15.8085 60.8524 15.2011 60.6265C13.6668 60.0564 12.1321 59.3564 10.8547 58.3342C10.2524 57.8521 9.70432 57.2644 9.2875 56.6087C8.91321 56.0237 8.56152 55.2308 8.6734 54.5185C8.78334 53.8357 9.07266 53.2501 9.58443 52.7796C9.83582 52.5455 10.1454 52.3683 10.4379 52.1812C10.8224 51.9411 11.2437 51.7684 11.6594 51.5923C12.3627 51.3025 13.0798 51.0284 13.8006 50.7869C15.4389 50.2285 17.1233 49.8648 18.8482 49.6925C21.0364 49.4712 23.2269 49.5715 25.4194 49.6424C27.2495 49.7071 29.0881 49.8225 30.9231 49.8138C33.3009 49.8026 35.6844 49.7947 38.0563 49.6504C38.0563 49.6504 38.0563 49.6504 38.053 49.6561C39.0928 49.5861 40.1308 49.454 41.1603 49.2713C41.872 49.1236 42.5832 48.9375 43.2761 48.7178C44.0485 48.4532 44.8026 48.1549 45.5425 47.8026C45.4998 47.8234 45.4515 47.8409 45.4055 47.8673C46.088 47.5349 46.7441 47.1564 47.3785 46.75C48.1617 46.2325 48.9072 45.6623 49.6228 45.0519C50.2366 44.5114 50.8365 43.9552 51.3864 43.3545C51.6483 43.0503 51.9045 42.7428 52.1414 42.4163C52.2235 42.289 52.2943 42.155 52.3674 42.0301C52.4325 41.8928 52.4919 41.7523 52.549 41.6027C52.5861 41.4872 52.6175 41.3683 52.6457 41.2551C52.6552 41.1997 52.6591 41.141 52.672 41.0799C52.6721 40.9885 52.6755 40.8914 52.6733 40.7909C52.6593 40.6455 52.6397 40.4968 52.6167 40.3537C52.5955 40.2727 52.5799 40.195 52.5554 40.1196C52.5101 40.0016 52.4648 39.8836 52.4162 39.7712C52.3274 39.5973 52.2319 39.4347 52.1308 39.2687C51.9966 39.0682 51.8534 38.87 51.6978 38.6799C51.467 38.4228 51.2206 38.1794 50.9652 37.9384C50.6246 37.6476 50.274 37.3738 49.9101 37.1227C49.4747 36.8373 49.0261 36.5748 48.5551 36.3372C47.972 36.0569 47.3779 35.8083 46.7605 35.5995C46.8126 35.6147 46.8557 35.6323 46.9078 35.6475C45.9642 35.3316 44.9987 35.0792 44.0181 34.8788C42.74 34.6264 41.4472 34.4644 40.1496 34.2844C39.7495 34.2256 39.3407 34.2075 38.9452 34.1666C38.421 34.1114 37.899 34.0651 37.3747 34.0099C36.2139 33.9481 35.0483 33.8682 33.8822 33.8414C32.4982 33.8091 31.1256 33.7834 29.7406 33.7657C28.5091 33.7464 27.2785 33.7124 26.0447 33.6841C25.4971 33.6686 24.9416 33.6408 24.3917 33.6163C23.7594 33.5893 23.1262 33.5771 22.4948 33.5354C22.4157 33.5272 22.3423 33.5224 22.2746 33.5208C21.3259 33.4612 20.3715 33.3982 19.4229 33.3386C19.4376 33.3396 19.4523 33.3406 19.4579 33.3439C19.4049 33.3433 19.3494 33.3337 19.2907 33.3299C19.3021 33.3365 19.3111 33.3342 19.3258 33.3351C19.2964 33.3332 19.2761 33.3289 19.2524 33.3303C19.2377 33.3293 19.2173 33.325 19.1993 33.3297C19.214 33.3307 19.223 33.3283 19.2377 33.3293C18.63 33.2863 18.0276 33.2082 17.4209 33.1505C16.9057 33.0929 16.3828 33.0613 15.8695 32.9743C15.0464 32.8434 14.2324 32.71 13.4117 32.5881C12.0777 32.3791 10.7581 32.0414 9.46176 31.6639C7.8032 31.1887 6.16139 30.5938 4.6578 29.7366C3.29384 28.9535 2.02458 27.8523 1.35645 26.4014C0.735571 25.0392 0.673453 23.4779 1.31205 22.1133C2.00909 20.6227 3.42573 19.7134 4.86524 19.0387C5.99477 18.5027 7.19465 18.1071 8.40107 17.7915C9.51745 17.4994 10.6868 17.2993 11.845 17.2224C11.8393 17.2191 11.836 17.2248 11.8303 17.2214C12.5916 17.1714 13.3471 17.118 14.1084 17.068C14.8696 17.0179 15.6346 17.0006 16.3983 16.9596C16.3509 16.9623 16.3002 16.9708 16.2471 16.9702C17.3253 16.8998 18.3817 16.8014 19.4416 16.6059C19.9979 16.4893 20.538 16.3479 21.0745 16.1739C21.4185 16.0551 21.7579 15.9182 22.0835 15.7657C22.3518 15.633 22.612 15.4879 22.8732 15.3282C22.9908 15.2445 23.0994 15.1632 23.2023 15.0786C23.3309 14.9632 23.4504 14.8502 23.5676 14.7282C23.6222 14.661 23.68 14.5881 23.7289 14.5176C23.7622 14.4608 23.7954 14.404 23.8253 14.3529C23.8804 14.2327 23.9266 14.1148 23.9703 13.9879C24.016 13.8317 24.0561 13.6721 24.0904 13.5092C24.1076 13.4278 24.1158 13.3487 24.1239 13.2696C24.1409 12.9669 24.1342 12.6656 24.1219 12.3611C24.0915 12.0612 24.0546 11.7727 24.0005 11.4742C23.984 11.4112 23.9676 11.3482 23.9544 11.2795C23.7171 11.255 23.4799 11.2304 23.2393 11.2116C22.6837 11.1838 22.1262 11.1854 21.5724 11.2196C20.9082 11.2731 20.2559 11.3716 19.5992 11.4905C19.0216 11.6176 18.4521 11.7569 17.8698 11.866C17.3832 11.9548 16.8525 11.7281 16.5627 11.3374C16.2351 10.894 16.3051 10.3707 16.5506 9.91209C16.524 9.95753 16.5031 10.0063 16.4822 10.055C16.9927 8.84415 17.5145 7.63988 18.0738 6.4499C18.3683 5.82935 18.671 5.22115 18.9826 4.61058C19.1208 4.34837 19.259 4.08614 19.4086 3.83058C19.7068 3.33414 19.9795 2.77703 20.5435 2.54292C20.6525 2.49997 20.7605 2.47172 20.8733 2.46146C20.8407 2.06117 20.8872 1.66904 21.1477 1.34117C21.5018 0.89265 22.1874 0.737331 22.71 0.951717C23.0002 1.06819 23.2168 1.27124 23.4325 1.48897C23.6288 1.68772 23.8194 1.88315 24.0156 2.0819C24.9403 3.04242 25.8815 3.97454 26.8474 4.8906C27.2556 5.27439 27.6605 5.66387 28.0654 6.05334C28.5148 6.48409 28.9821 6.91012 29.4125 7.36026C30.0278 8.00251 30.6644 8.63432 31.2384 9.32102C31.4786 9.61409 31.7155 9.9129 31.9311 10.222C32.1041 10.4605 32.2642 10.7601 32.3306 11.0505C32.3946 11.332 32.4188 11.5902 32.3441 11.8743C32.2474 12.2218 32.0064 12.4773 31.7002 12.6487C31.091 12.9861 30.4079 12.7464 29.7843 12.5872C29.3724 12.4834 28.9694 12.3772 28.5551 12.2643C27.8421 12.0757 27.1233 11.8838 26.4003 11.7122C26.4143 11.8576 26.4339 12.0063 26.4422 12.1485C26.5297 13.2366 26.4173 14.3145 25.9474 15.3128C25.495 16.268 24.6576 16.9825 23.7672 17.5136C22.7906 18.1009 21.6727 18.4607 20.5753 18.7334C19.4026 19.0305 18.1997 19.1576 16.9998 19.2406C16.0367 19.3098 15.0742 19.3259 14.1088 19.3861C14.1562 19.3833 14.2069 19.3749 14.2599 19.3754C13.4953 19.4312 12.7341 19.4812 11.9728 19.5312C11.2987 19.6018 10.6203 19.6927 9.95459 19.8139C9.18323 19.9724 8.43265 20.1736 7.68249 20.4131C7.00338 20.6485 6.33701 20.9142 5.68908 21.2135C5.33547 21.3878 5.00124 21.581 4.66606 21.789C4.49016 21.9071 4.31664 22.0343 4.15445 22.1681C4.05389 22.2618 3.95333 22.3554 3.86081 22.4613C3.76496 22.573 3.68378 22.6856 3.59597 22.8096C3.54279 22.9004 3.48393 22.988 3.43643 23.0822C3.40222 23.1536 3.37705 23.2228 3.34284 23.2942C3.30475 23.4244 3.2733 23.5433 3.24089 23.6768C3.22082 23.8023 3.2064 23.9311 3.19532 24.0543C3.19048 24.1277 3.19135 24.2044 3.19786 24.2845C3.20951 24.4209 3.22683 24.5607 3.24748 24.6948C3.27477 24.8175 3.30774 24.9435 3.34403 25.0639C3.39404 25.1999 3.44738 25.3302 3.5064 25.4639C3.58009 25.5985 3.6514 25.7241 3.72842 25.8531C3.83619 26.0077 3.95297 26.1599 4.06974 26.3121C4.20452 26.4596 4.34263 26.6014 4.48641 26.7466C4.7291 26.9572 4.97842 27.1565 5.23773 27.3388C5.62765 27.5975 6.03087 27.8335 6.44739 28.0468C6.44739 28.0468 6.44738 28.0468 6.4417 28.0435L6.44739 28.0468C6.45307 28.0501 6.46445 28.0568 6.47013 28.0601C6.5042 28.0801 6.5416 28.0943 6.57568 28.1143C6.54728 28.0976 6.5075 28.0744 6.47578 28.0634C7.21655 28.4131 7.98061 28.7231 8.74992 28.998C10.2734 29.5084 11.825 29.9057 13.3938 30.2216C13.3474 30.2097 13.2977 30.2034 13.2456 30.1882C14.2997 30.3934 15.361 30.5343 16.418 30.6954C16.92 30.7757 17.4429 30.8073 17.9501 30.8525C18.4597 30.9068 18.974 30.9791 19.4879 31.013C19.4732 31.012 19.4528 31.0077 19.4348 31.0124C19.4405 31.0157 19.4495 31.0134 19.4642 31.0144C19.5172 31.0149 19.5669 31.0211 19.62 31.0217C20.589 31.0856 21.5557 31.1405 22.5304 31.2078C22.5304 31.2078 22.5304 31.2078 22.536 31.2111C22.5654 31.2131 22.5891 31.2117 22.6184 31.2136C25.0956 31.3063 27.5694 31.4047 30.0504 31.4386C31.4648 31.4582 32.8815 31.4868 34.2948 31.521C34.822 31.5322 35.3449 31.5638 35.8678 31.5953C36.4878 31.6303 37.1177 31.6483 37.7391 31.707C38.539 31.7863 39.3332 31.8623 40.1364 31.936C40.6844 31.9898 41.2271 32.0787 41.7708 32.1529C42.6885 32.2784 43.5996 32.4151 44.5136 32.5993C46.2713 32.9571 48.0103 33.4641 49.6149 34.266C51.1626 35.0347 52.5892 36.0755 53.6795 37.4303C54.628 38.6107 55.1748 40.1125 54.9419 41.6307C54.8357 42.3463 54.5003 43.0497 54.1153 43.6555C53.6248 44.4282 52.9631 45.116 52.3042 45.7597C51.0624 46.9695 49.6962 48.0532 48.2312 48.9799C46.7662 49.9066 45.1699 50.5887 43.5231 51.0964C41.8461 51.6169 40.087 51.8606 38.339 51.9812C37.3433 52.0542 36.3448 52.0797 35.3462 52.1053C34.7437 52.1186 34.1402 52.1466 33.5353 52.1509C32.1844 52.1532 30.8359 52.1645 29.4902 52.1318C28.1707 52.1066 26.862 52.0498 25.5443 51.9953C23.6531 51.9177 21.7675 51.8434 19.8784 51.9577C19.9314 51.9582 19.9788 51.9554 20.0261 51.9526C19.0901 52.0147 18.1569 52.1243 17.2344 52.2934C16.4123 52.4604 15.602 52.6723 14.8035 52.9293C13.8567 53.2443 12.9159 53.6011 12.0073 54.0071C11.7784 54.1247 11.5607 54.2489 11.3455 54.3822C11.2929 54.42 11.2312 54.4602 11.181 54.507C11.153 54.5288 11.1307 54.5538 11.1028 54.5756C11.0961 54.5869 11.0804 54.6007 11.0681 54.6087C11.0581 54.6257 11.0482 54.6428 11.0382 54.6598C11.0306 54.6859 11.0196 54.7176 11.0063 54.7403C10.9997 54.7517 10.9987 54.7663 10.9954 54.772C11.0001 54.79 10.9991 54.8047 11.0015 54.8137C11.0109 54.8497 11.0203 54.8857 11.0297 54.9217C11.0542 54.9971 11.0821 55.0668 11.1156 55.1397C11.1548 55.2161 11.1974 55.2867 11.2399 55.3574C11.3453 55.5029 11.4508 55.6485 11.5595 55.7884C11.7458 56.0042 11.9421 56.2029 12.1564 56.397C12.3797 56.5887 12.6186 56.7666 12.8552 56.9356C13.186 57.152 13.5244 57.3425 13.8751 57.5249C15.155 58.152 16.4796 58.6376 17.8099 59.1264C17.8099 59.1264 17.8098 59.1264 17.8155 59.1297C17.8212 59.133 17.8269 59.1364 17.8325 59.1397C17.8789 59.1516 17.9277 59.1725 17.9741 59.1844C18.0953 59.2249 18.2165 59.2653 18.3377 59.3058C18.3898 59.321 18.4362 59.3329 18.4849 59.3538C18.5167 59.3648 18.5598 59.3823 18.6005 59.3909C18.5948 59.3876 18.5948 59.3876 18.5891 59.3843C18.6786 59.4138 18.7737 59.4466 18.8689 59.4794C19.0692 59.528 19.2642 59.6117 19.4546 59.6773C19.4659 59.684 19.4716 59.6873 19.4862 59.6882L19.4806 59.685C19.4863 59.6883 19.4919 59.6916 19.4976 59.6949C19.5236 59.7025 19.544 59.7068 19.5667 59.7201C20.7437 60.1192 21.9511 60.4142 23.1519 60.7205C23.1022 60.7143 23.0501 60.699 23.0003 60.6928C23.9322 60.8723 24.8552 61.0541 25.7876 61.1805C26.2408 61.2399 26.6898 61.3197 27.1416 61.3554C27.6465 61.3916 28.157 61.4312 28.6619 61.4674C29.2454 61.4735 29.8394 61.5009 30.4249 61.4776C31.0961 61.4511 31.7697 61.4336 32.4385 61.3981C33.7616 61.3262 35.0733 61.2476 36.4011 61.1936C37.7615 61.1359 39.1824 61.2356 40.4729 61.7012C41.2128 61.9741 41.883 62.3664 42.4297 62.9304C42.9263 63.4497 43.2 64.1284 43.1819 64.8498C43.1629 65.5858 42.7172 66.2171 42.291 66.7758C41.8003 67.4188 41.205 67.993 40.5762 68.4941C39.3186 69.4965 37.7457 70.0474 36.1765 70.3185C34.4789 70.6134 32.7315 70.3684 31.0422 70.1803C29.9709 70.0565 28.9043 69.9507 27.8368 69.8596C26.9379 69.8062 26.0276 69.7461 25.1219 69.7955C24.876 69.8117 24.6326 69.837 24.3824 69.8735C24.2507 69.9032 24.1246 69.9362 23.9986 69.9691C23.9322 69.9913 23.8716 70.0168 23.8143 70.0366C24.1068 70.1621 24.4183 70.2682 24.7208 70.3766C25.875 70.7624 27.0326 71.1426 28.2249 71.3982C28.1752 71.392 28.1288 71.3801 28.0734 71.3705C28.5858 71.4721 29.0967 71.5501 29.6163 71.5873C30.5682 71.6413 31.5147 71.6005 32.4639 71.6071C32.9594 71.6073 33.4581 71.6019 33.9493 71.6225C34.4821 71.637 35.0164 71.6753 35.5478 71.7575C36.1028 71.8384 36.7026 71.9988 37.1877 72.2904C37.9591 72.7571 38.625 73.4823 38.6927 74.4217C38.7224 74.866 38.6058 75.2477 38.4059 75.6415C38.3959 75.6585 38.3826 75.6812 38.3726 75.6983C38.2649 75.8563 38.1187 76.0148 37.9892 76.1448ZM25.6525 8.96427C25.6837 9.02826 25.7092 9.08893 25.737 9.1586C25.8682 9.182 25.9994 9.20541 26.1273 9.23449C26.9654 9.40482 27.7916 9.62154 28.6145 9.84394C27.6999 8.86638 26.7169 7.94034 25.7454 7.02095C25.1125 6.42179 24.4706 5.82499 23.8567 5.20643C23.6467 4.99203 23.431 4.77432 23.221 4.55992C23.1798 4.60438 23.1418 4.64316 23.0982 4.67863C23.4507 5.2357 23.8123 5.79041 24.1705 6.35081C24.7135 7.19473 25.2352 8.04901 25.6525 8.96427ZM20.784 6.1834C20.3821 7.00036 20.0005 7.82161 19.6247 8.64619C19.552 8.8095 19.4826 8.96714 19.4099 9.13044C19.8458 9.05008 20.284 8.97873 20.7269 8.92537C21.4764 8.83031 22.2267 8.81197 22.9741 8.83769C22.7809 8.50347 22.5787 8.1716 22.3674 7.8421C22.3939 7.88808 22.4237 7.92841 22.4444 7.97107C21.9657 7.22577 21.4927 6.4838 21.0139 5.7385C20.9365 5.8838 20.8648 6.03242 20.784 6.1834Z" fill="#E08DAC"/>
<path d="M17.8232 59.1037C17.8345 59.1103 17.8492 59.1113 17.8548 59.1146C17.8435 59.108 17.8378 59.1047 17.8232 59.1037Z" fill="#E08DAC"/>
<path d="M22.2855 33.4891C22.2912 33.4924 22.2912 33.4924 22.3002 33.4901C22.2912 33.4924 22.2855 33.4891 22.2855 33.4891Z" fill="#E08DAC"/>
<path d="M22.5267 31.1751L22.5323 31.1785C22.5357 31.1728 22.5323 31.1785 22.5267 31.1751Z" fill="#E08DAC"/>
<path d="M19.3424 33.3067C19.3481 33.31 19.3571 33.3077 19.3661 33.3053C19.3571 33.3077 19.3457 33.301 19.3424 33.3067Z" fill="#E08DAC"/>
<path d="M6.45499 28.0208C6.46067 28.0241 6.47205 28.0307 6.47773 28.0341C6.47538 28.0251 6.464 28.0184 6.45499 28.0208Z" fill="#E08DAC"/>
<path d="M11.7972 17.1868C11.8152 17.1821 11.8299 17.183 11.8446 17.184C11.8356 17.1864 11.8119 17.1877 11.7972 17.1868Z" fill="#E08DAC"/>
</svg>
