<svg width="137" height="137" viewBox="0 0 137 137" fill="none" xmlns="http://www.w3.org/2000/svg">
<rect width="107.024" height="107.024" transform="translate(0.792969 35.0554) rotate(-18.822)" fill="#E08DAC"/>
<path fill-rule="evenodd" clip-rule="evenodd" d="M92.8359 42.0437L58.9165 35.841L36.165 61.7518L47.6488 94.7735L81.5808 101.013L104.32 75.0654L92.8359 42.0437ZM73.698 48.6992L60.3961 37.1281L90.9201 42.7099L73.698 48.6992ZM72.6095 49.0777L59.5773 37.7412L56.3913 54.7178L72.6095 49.0777ZM56.1788 55.8504L73.479 49.8341L87.6084 62.125L84.1542 80.5308L66.854 86.5472L52.7246 74.2563L56.1788 55.8504ZM55.3029 55.0963L58.5547 37.7686L38.0808 61.0855L55.3029 55.0963ZM37.3962 62.2477L48.155 93.1846L51.6361 74.6348L37.3962 62.2477ZM51.85 73.4954L38.5953 61.9654L55.0903 56.229L51.85 73.4954ZM52.5108 75.3957L49.2705 92.6621L65.7655 86.9257L52.5108 75.3957ZM66.635 87.6821L48.6422 93.9393L80.5787 99.8115L66.635 87.6821ZM81.6213 99.4491L103.023 75.0276L85.0301 81.2849L81.6213 99.4491ZM83.9416 81.6635L67.7235 87.3035L80.7557 98.64L83.9416 81.6635ZM85.2427 80.1523L101.738 74.4159L88.4831 62.8858L85.2427 80.1523ZM88.6969 61.7464L102.937 74.1335L92.1781 43.1966L88.6969 61.7464ZM87.8222 60.9856L74.5675 49.4555L91.0626 43.7191L87.8222 60.9856Z" fill="url(#paint0_radial_16_629)"/>
<defs>
<radialGradient id="paint0_radial_16_629" cx="0" cy="0" r="1" gradientUnits="userSpaceOnUse" gradientTransform="translate(70.2487 68.4267) rotate(35.1478) scale(48.0104 41.7482)">
<stop stop-color="white"/>
<stop offset="1" stop-color="white" stop-opacity="0.2"/>
</radialGradient>
</defs>
</svg>
