<svg width="18" height="16" viewBox="0 0 18 16" fill="none" xmlns="http://www.w3.org/2000/svg">
<path d="M0.995256 7.34009C0.445591 7.34009 -3.51977e-07 7.7878 -3.27835e-07 8.34009C-3.03694e-07 8.89237 0.445591 9.34009 0.995256 9.34009L15.0142 9.34009L10.2441 14.133C9.8554 14.5235 9.8554 15.1567 10.2441 15.5472C10.6327 15.9377 11.2629 15.9377 11.6516 15.5472L17.417 9.7543C18.1943 8.97325 18.1943 7.70692 17.417 6.92587L11.6516 1.13298C11.2629 0.742457 10.6327 0.742457 10.2441 1.13298C9.8554 1.52351 9.8554 2.15667 10.2441 2.54719L15.0142 7.34009L0.995256 7.34009Z" fill="#F7F4F9"/>
</svg>
