<svg width="128" height="128" viewBox="0 0 128 128" fill="none" xmlns="http://www.w3.org/2000/svg">
<rect width="106.075" height="106.075" transform="translate(24.1577) rotate(13.1641)" fill="#1873F2"/>
<path fill-rule="evenodd" clip-rule="evenodd" d="M82.8238 37.9465L81.1502 45.1022L88.1843 42.9736L101.25 52.319L95.5577 67.3405L88.5234 69.4691L93.884 74.4967L92.3234 90.4844L76.4684 93.0657L71.108 88.0382L69.4343 95.1942L54.8082 101.837L44.6453 89.3964L46.319 82.2404L39.2849 84.3689L26.2194 75.0236L31.9115 60.0021L38.9458 57.8735L33.5852 52.8459L35.1458 36.8581L51.0008 34.2769L56.3612 39.3043L58.0348 32.1487L72.6609 25.5063L82.8238 37.9465ZM58.9488 32.8986L72.356 26.8098L81.672 38.2133L79.9779 45.4569L69.4267 48.6497L64.2677 62.2643L64.0394 62.368L63.8808 62.1738L65.2952 47.6834L57.2546 40.1422L58.9488 32.8986ZM39.8392 58.7114L32.7184 60.8662L27.5007 74.6358L39.4774 83.2024L46.598 81.0477L49.1085 70.3138L62.3644 64.2937L62.4533 64.0591L62.249 63.913L47.8796 66.2524L39.8392 58.7114ZM61.0251 63.0376L48.2245 65.1215L41.0116 58.3567L50.4766 55.4925L61.0251 63.0376ZM62.5104 62.7958L50.6691 54.326L40.1182 57.5188L34.6917 52.4293L36.1222 37.7739L50.6559 35.4077L56.0822 40.497L53.5716 51.2313L62.7826 62.5062L62.7582 62.7554L62.5104 62.7958ZM61.8312 65.7008L50.0225 71.0637L47.7703 80.693L57.2356 77.8288L61.8312 65.7008ZM47.4914 81.8856L58.0425 78.6929L63.2014 65.0786L63.4297 64.9749L63.5884 65.1691L62.174 79.6592L70.2146 87.2003L68.5203 94.4443L55.1131 100.533L45.7971 89.1296L47.4914 81.8856ZM70.2336 49.5138L79.6989 46.6496L77.4467 56.2792L65.6379 61.6421L70.2336 49.5138ZM78.3606 57.0291L65.1046 63.0493L65.0159 63.2834L65.2202 63.4295L79.5896 61.0902L87.63 68.6312L94.7508 66.4764L99.9686 52.7067L87.9918 44.1401L80.8713 46.2948L78.3606 57.0291ZM76.8002 73.0165L64.9589 64.5468L64.711 64.5872L64.6866 64.8368L73.8975 76.1116L71.387 86.8456L76.8133 91.9348L91.347 89.5687L92.7775 74.9132L87.351 69.8238L76.8002 73.0165ZM76.9926 71.85L86.4577 68.9859L79.2447 62.221L66.4441 64.305L76.9926 71.85ZM64.5404 66.3345L72.7457 76.3784L70.4936 86.0077L63.2805 79.2426L64.5404 66.3345ZM64.1888 48.1L62.9287 61.0085L54.7234 50.9645L56.9757 41.3349L64.1888 48.1Z" fill="url(#paint0_radial_0_2974)"/>
<defs>
<radialGradient id="paint0_radial_0_2974" cx="0" cy="0" r="1" gradientUnits="userSpaceOnUse" gradientTransform="translate(63.7346 63.6715) rotate(69.6522) scale(56.6774 49.0841)">
<stop stop-color="white"/>
<stop offset="1" stop-color="white" stop-opacity="0"/>
</radialGradient>
</defs>
</svg>
