<svg width="47" height="82" viewBox="0 0 47 82" fill="none" xmlns="http://www.w3.org/2000/svg">
<path fill-rule="evenodd" clip-rule="evenodd" d="M43.3096 13.8505C43.4534 14.1382 43.6934 14.3394 43.9777 14.4903C44.397 14.7117 44.8593 14.6794 45.2541 14.4699C45.7321 14.2162 46.0773 13.6956 46.0245 13.111C45.9808 12.6104 45.6689 12.19 45.2927 11.8659C44.6844 11.3353 44.0047 10.8778 43.3291 10.4229C43.1051 10.2721 42.8814 10.1215 42.661 9.96871C41.9605 9.43496 41.2978 8.8722 40.6453 8.29514C40.6651 8.31573 40.6875 8.33709 40.71 8.35845C40.7324 8.37987 40.7549 8.40127 40.7747 8.42182C40.1826 7.8749 39.5969 7.30678 38.9877 6.77779C38.3928 6.25899 37.7908 5.74389 37.1959 5.22509C37.0158 5.06438 36.8359 4.9028 36.6558 4.74104C36.2121 4.34241 35.7671 3.94253 35.3135 3.5518C34.9948 3.28591 34.6826 2.99877 34.3501 2.74025C33.9066 2.38969 33.4565 2.06031 33.0268 1.70237C32.7074 1.11727 31.9708 0.833504 31.3346 1.07344C31.0259 1.19136 30.7828 1.40811 30.6264 1.67346C30.121 1.79564 29.749 2.19245 29.5 2.66855C29.2266 3.1844 28.9829 3.7195 28.7398 4.25323C28.6162 4.52483 28.4926 4.79604 28.3654 5.06414C28.0685 5.69233 27.7572 6.31029 27.4353 6.92501C27.2134 7.31276 26.9823 7.69501 26.7513 8.07711L26.7503 8.0788C26.3056 8.81453 25.8613 9.5497 25.4831 10.3227C25.2449 10.8056 25.0121 11.2922 24.7791 11.7792C24.5398 12.2793 24.3004 12.7798 24.0549 13.2767C23.9858 13.4165 23.9162 13.5561 23.846 13.6953L23.8195 13.7432L23.8181 13.7457C23.632 14.0818 23.4417 14.4257 23.2188 14.7384C23.2152 14.7314 23.2221 14.7278 23.2221 14.7278C23.0629 14.9632 22.9208 15.1806 22.8718 15.473C22.7915 15.924 22.9428 16.3764 23.2526 16.7091C23.7677 17.2614 24.6696 17.2711 25.215 16.7597C25.3864 16.5977 25.5081 16.4088 25.5732 16.1967C26.0299 15.5015 26.4082 14.7592 26.7724 14.0066C26.8347 13.8784 26.8967 13.75 26.9587 13.6215L27.1462 13.2326C27.5276 12.4407 27.9094 11.6481 28.3152 10.8684C28.3944 10.731 28.4745 10.5941 28.5553 10.4577C28.6979 10.2165 28.8424 9.9765 28.9869 9.7366L28.9875 9.73562C29.4522 8.96414 29.9164 8.19347 30.3162 7.3848C30.3515 7.32262 30.3815 7.25888 30.4124 7.19333L30.4334 7.14923L30.4533 7.10781C30.4951 7.38748 30.5652 7.66992 30.6596 7.94828C30.6834 8.00994 30.708 8.07119 30.7326 8.13243C30.7815 8.25415 30.8303 8.37589 30.873 8.50088C31.0768 9.23617 31.2248 9.98338 31.3377 10.7313C31.329 10.6649 31.3171 10.6091 31.3122 10.5495C31.471 11.6017 31.6438 12.6464 31.876 13.6862C31.9306 13.926 31.9911 14.1656 32.0517 14.4057C32.1392 14.7525 32.227 15.1004 32.2977 15.4511C32.4411 16.1562 32.5952 16.8647 32.7561 17.5694C32.9111 18.2217 33.0543 18.876 33.1977 19.5311C33.2847 19.9285 33.3718 20.3262 33.4616 20.7239C33.5261 21.0099 33.5921 21.2959 33.6604 21.5818C33.7264 21.8524 33.7907 22.1231 33.854 22.3939C33.9695 22.8883 34.0816 23.3831 34.1939 23.8781C34.3363 24.5067 34.4789 25.1357 34.6286 25.7646C34.7366 26.2258 34.851 26.6854 34.9655 27.145C35.2078 28.1178 35.4502 29.0908 35.6314 30.0799C35.7509 30.9512 35.8459 31.8218 35.9411 32.6935C35.9986 33.221 36.0562 33.749 36.1193 34.2778C36.1737 34.7382 36.2368 35.1941 36.3003 35.6521C36.3347 35.9005 36.3691 36.1496 36.4024 36.4004L36.5293 37.2919C36.5639 37.5261 36.5984 37.753 36.6668 37.9638C36.1977 38.01 35.7326 38.0964 35.2749 38.2239C34.8567 38.3394 34.4423 38.4617 34.0282 38.6016C33.3602 38.8318 32.9961 39.5844 33.1668 40.2573C32.6903 40.7144 32.3431 41.2981 32.1342 41.9417C32.046 42.2121 31.9735 42.4881 31.916 42.768C31.76 42.7655 31.6036 42.7884 31.4543 42.8353C31.3687 42.8395 31.2827 42.8439 31.1966 42.8485L30.9135 42.8635C30.5346 42.8838 30.1529 42.9042 29.7759 42.9181C29.4459 42.9147 29.12 42.8981 28.7957 42.8815L28.7872 42.881C28.6143 42.8721 28.4418 42.8633 28.2694 42.8565C27.8575 42.8325 27.4468 42.8493 27.0336 42.8662L26.8665 42.873C26.8384 42.8702 26.8208 42.8706 26.7858 42.8715C26.7576 42.8686 26.7401 42.869 26.7156 42.8732C26.5982 42.8763 26.475 42.8825 26.3581 42.8854C26.3921 42.8888 26.4272 42.8883 26.4635 42.8879L26.4653 42.8879C26.4887 42.8876 26.5126 42.8873 26.5371 42.888C26.3125 42.8952 26.0853 42.9016 25.8569 42.9076C25.7039 42.9116 25.5502 42.9154 25.3964 42.9192L25.1307 42.9255C25.1639 42.9228 25.1971 42.9201 25.231 42.9186L25.2071 42.9188C24.7834 42.9228 24.3677 42.9268 23.9482 42.8948C23.7728 42.8803 23.5969 42.8649 23.4206 42.8494L23.3887 42.8467C23.0809 42.8196 22.7717 42.7925 22.4612 42.7695C21.5402 42.6968 20.6189 42.7329 19.6922 42.7693L19.6912 42.7693L19.3954 42.7808C19.3226 42.7807 19.2496 42.7813 19.1765 42.782L19.1755 42.7819C18.9812 42.7836 18.7855 42.7853 18.5918 42.7723C18.3211 42.7472 18.0434 42.7259 17.762 42.6977C17.3949 42.6418 17.0291 42.5794 16.6635 42.5145C16.4808 42.482 16.2982 42.449 16.1155 42.4156L15.9343 42.3826L15.9332 42.3825C15.5325 42.3094 15.1313 42.2361 14.7287 42.168C14.1897 42.0727 13.6425 42.0156 13.0947 41.9585L13.0919 41.958C12.4516 41.8913 11.8104 41.8245 11.1804 41.6963C11.1985 41.1776 11.1759 40.6576 11.1046 40.1406C11.0524 39.7243 10.9712 39.2702 10.804 38.8884C10.6299 38.5102 10.4433 38.192 10.1691 37.8759C9.6131 37.2299 8.73583 36.932 7.90086 36.9312C7.00268 36.9285 6.15705 37.2086 5.34121 37.5617C4.18832 38.0493 3.14658 38.7797 2.13299 39.5129C2.06046 39.5603 1.99527 39.6215 1.9338 39.6897C1.6574 39.721 1.39331 39.8256 1.16969 40.0064C0.515866 40.531 0.317033 41.4444 0.252241 42.2424C0.168753 43.139 0.267483 44.0277 0.492258 44.9028C0.967416 46.7015 2.14231 48.5638 3.89093 49.3493C4.44576 49.6014 5.06391 49.7133 5.66914 49.6655L5.66979 49.6719C5.78251 50.7612 5.89491 51.847 6.12466 52.9225C6.22391 53.382 6.30237 53.8485 6.38056 54.3137C6.41757 54.534 6.45456 54.754 6.49371 54.9728C6.62413 55.7204 6.79285 56.4565 6.96526 57.1996C7.28265 58.567 7.55804 59.9391 7.81262 61.3221C8.09096 62.8169 8.39704 64.2969 8.78016 65.7715C8.96549 66.4718 9.16832 67.1716 9.37113 67.8713L9.37148 67.8726C9.47869 68.2419 9.58587 68.6112 9.68614 68.9841C9.70323 69.0423 9.71915 69.1008 9.73442 69.1594L9.75105 69.2243C9.76095 69.2633 9.77067 69.3022 9.7804 69.3412L9.78251 69.3498C9.79443 69.3977 9.80636 69.4456 9.81857 69.4934C9.66176 69.5742 9.50295 69.6511 9.3428 69.7256C9.19691 69.7853 9.05104 69.845 8.8982 69.9083C8.53347 70.0575 8.25242 70.331 8.10966 70.6642C7.66847 70.9872 7.33586 71.4478 7.09542 71.9482C6.70445 72.7506 6.68718 73.7719 6.79242 74.6394C6.90506 75.5207 7.09146 76.4072 7.41316 77.2308C7.77619 78.1657 8.21703 79.1303 8.93613 79.8495C9.51157 80.432 10.1832 80.9279 10.9788 81.1892C11.7708 81.4436 12.6329 81.5454 13.4497 81.3782C13.9837 81.2635 14.4845 81.0865 14.9413 80.8263C15.2599 80.6572 15.5639 80.4604 15.8494 80.2289C18.7502 77.8992 19.2547 73.2456 16.9906 70.3012C16.4435 69.5882 15.8015 68.8636 14.9645 68.491C14.2552 68.175 13.4454 68.0543 12.6742 68.2239L12.6218 68.236C12.5916 68.2431 12.5613 68.2504 12.5311 68.2578C12.4786 68.2706 12.4262 68.284 12.3739 68.298L12.3627 68.256C12.2317 67.7777 12.095 67.3002 11.9582 66.8225C11.6895 65.8838 11.4204 64.944 11.1927 63.9939C10.8758 62.6712 10.6331 61.3318 10.3906 59.994L10.3902 59.9921L10.3297 59.6578C10.1767 58.833 9.98925 58.0174 9.8021 57.2032L9.80066 57.1968C9.66735 56.6168 9.53419 56.0376 9.41371 55.4562C9.34989 55.1303 9.29115 54.8036 9.23416 54.476C9.20186 54.2903 9.17015 54.1044 9.13837 53.9182C9.10314 53.7117 9.06772 53.5044 9.03156 53.2974C9.00489 53.1515 8.97687 53.0063 8.94813 52.8616L8.92403 52.741L8.8925 52.5856L8.84324 52.345C8.77368 52.006 8.70436 51.6682 8.64344 51.3282C8.52884 50.5101 8.46316 49.6838 8.37671 48.8685C8.36128 48.7201 8.32285 48.5782 8.26523 48.4468C8.31724 48.3991 8.36856 48.3504 8.41911 48.3007C8.43444 48.2857 8.4497 48.2706 8.46487 48.2554L8.4867 48.2335C8.51111 48.2088 8.53541 48.1839 8.55944 48.1589C9.22651 47.4586 9.77808 46.6243 10.1812 45.7445C10.3789 45.318 10.559 44.8814 10.7072 44.4344C11.2737 44.5493 11.8507 44.6099 12.4241 44.6703C12.5724 44.6859 12.7205 44.7015 12.8681 44.718C13.7227 44.806 14.5611 44.947 15.3999 45.1055C15.9182 45.2122 16.4361 45.3014 16.9608 45.3868C17.3749 45.4518 17.7859 45.4883 18.2044 45.5255L18.207 45.5258L18.3514 45.5386L18.4768 45.55C18.8954 45.5842 19.3299 45.5665 19.7557 45.5492L19.894 45.5437C20.179 45.5343 20.464 45.525 20.7478 45.5133C20.8724 45.5082 20.9967 45.5026 21.1207 45.4964C21.8496 45.5152 22.5703 45.5726 23.2947 45.6303C23.41 45.6395 23.5254 45.6486 23.641 45.6577L23.7353 45.665L23.8333 45.6725C24.5171 45.7242 25.2097 45.7013 25.8964 45.6784L25.9049 45.6782L25.9133 45.678C26.1033 45.6717 26.2929 45.6654 26.4816 45.6608L26.4791 45.6618L26.4634 45.662L26.4568 45.6619L26.4466 45.6617C26.4561 45.6646 26.4711 45.6645 26.4791 45.6618C26.4884 45.6617 26.4979 45.6614 26.5073 45.661C26.5192 45.6606 26.5311 45.66 26.543 45.6593C26.5754 45.6577 26.6078 45.6561 26.6394 45.657C26.6287 45.6596 26.6182 45.661 26.6079 45.6618C26.7874 45.6589 26.9683 45.6552 27.1487 45.6507C27.3284 45.6463 27.5075 45.6411 27.6843 45.6351C28.034 45.637 28.3815 45.6527 28.7289 45.6684L28.7314 45.6685C29.2058 45.69 29.68 45.7115 30.1591 45.6978C30.333 45.6936 30.5061 45.686 30.6787 45.6769L30.8186 45.6693L31.043 45.6564C31.2704 45.6431 31.4975 45.6298 31.7254 45.6212C31.7564 45.62 31.787 45.6186 31.8171 45.6167C31.8975 46.267 32.0449 46.9073 32.2521 47.5168C32.8528 49.2844 33.9056 51.034 35.7059 51.7831C36.8541 52.2569 38.1259 52.0436 39.2028 51.4631C39.6739 51.2131 40.1151 50.8902 40.4816 50.527C41.1874 49.8328 41.8312 49.0383 42.3224 48.1739C42.7534 47.4302 43.155 46.6311 43.3873 45.7975C43.642 44.8722 43.8109 43.8858 43.7138 42.9164C43.6329 42.0448 43.4111 41.1416 42.9231 40.4062C42.0972 39.1459 40.713 38.4229 39.2614 38.1104C39.4425 37.7385 39.4471 37.2968 39.2813 36.9234C39.0571 35.3467 38.8466 33.7626 38.6819 32.1809C38.6612 31.9882 38.6416 31.7945 38.6219 31.6002L38.6217 31.5987L38.6215 31.5965C38.5512 30.9033 38.4803 30.2037 38.3543 29.5226C38.2005 28.6809 38.0154 27.8469 37.7989 27.0207C37.4354 25.6333 37.1241 24.2271 36.8165 22.8278C36.6842 22.233 36.5417 21.6436 36.3995 21.0555L36.3979 21.0489C36.2102 20.273 36.0231 19.4994 35.8607 18.7183C35.7177 18.0307 35.5645 17.3573 35.4077 16.6771C35.243 15.9654 35.1029 15.2496 34.9489 14.5412C34.8838 14.243 34.8082 13.9459 34.7326 13.6488C34.6569 13.3515 34.5813 13.0541 34.5161 12.7555C34.3748 12.1381 34.2755 11.516 34.1725 10.887C34.1715 10.8905 34.1715 10.8942 34.1721 10.8984L34.1246 10.6026C34.0072 9.87013 33.8903 9.14059 33.7231 8.41764C33.7129 8.37528 33.7028 8.33283 33.6929 8.29027L33.6774 8.22399C33.6131 7.94841 33.5483 7.67092 33.4424 7.40357C33.3827 7.25768 33.3268 7.11875 33.274 6.96916C33.2437 6.8787 33.2204 6.78452 33.2077 6.69361C33.1608 6.35449 33.1348 6.00426 33.0811 5.66879C33.0634 5.52996 33.0416 5.39334 33.0142 5.25804C33.4044 5.59786 33.7933 5.94073 34.1808 6.28237C34.3133 6.39921 34.4457 6.51591 34.5779 6.63226C34.9082 6.92189 35.2394 7.2103 35.5705 7.49862C36.3713 8.19588 37.1716 8.89277 37.9583 9.60579L37.9546 9.5989C38.6798 10.2794 39.4188 10.9525 40.1851 11.5935C40.7664 12.0745 41.3953 12.5006 42.0238 12.9265C42.1656 13.0226 42.3075 13.1187 42.4487 13.2154C42.4314 13.2014 42.414 13.1874 42.3963 13.1736C42.7069 13.3947 43.0138 13.6123 43.3096 13.8505ZM5.33087 46.898C5.31586 46.8978 5.30132 46.8969 5.2872 46.8947L5.2979 46.8945C5.30134 46.8944 5.30483 46.8945 5.30839 46.8946L5.31528 46.895L5.19542 46.8724L5.047 46.8269C4.99029 46.8036 4.92297 46.7773 4.86263 46.7472L4.83097 46.7282C4.76086 46.6863 4.6849 46.6409 4.61662 46.5847C4.66637 46.6116 4.71287 46.6491 4.76634 46.6829C4.67698 46.6149 4.59822 46.5501 4.51582 46.4784C4.41066 46.3759 4.31442 46.273 4.2194 46.1676C4.18131 46.1254 4.14342 46.0827 4.10522 46.0394C3.98558 45.8809 3.87652 45.7257 3.77447 45.5668C3.74065 45.5084 3.70789 45.4503 3.67599 45.3921C3.64115 45.3285 3.60729 45.2649 3.5741 45.2004C3.55918 45.1714 3.54443 45.1423 3.52976 45.113C3.51317 45.0798 3.4967 45.0464 3.48036 45.0126C3.37243 44.7591 3.28577 44.5121 3.20235 44.2546C3.15157 44.0418 3.10448 43.8359 3.06434 43.6265C3.03064 43.3957 3.01449 43.1646 3.0053 42.9298C3.00683 42.849 3.01168 42.7577 3.01323 42.677C3.35958 42.4932 3.59038 42.1753 3.68338 41.8153C3.71107 41.8006 3.73875 41.7858 3.76282 41.7642C4.25572 41.4049 4.7593 41.0489 5.27757 40.7206C5.63364 40.5049 5.99018 40.3068 6.36144 40.1364C6.50824 40.0735 6.6562 40.0128 6.80658 39.9537C6.92295 39.9079 7.04074 39.8631 7.1606 39.8189L7.20855 39.8086L7.29777 39.7889C7.34514 39.7784 7.39201 39.768 7.43884 39.7582L7.48439 39.7489L7.52929 39.74C7.55472 39.7352 7.58024 39.7306 7.60589 39.7262C7.62033 39.7238 7.63481 39.7215 7.64936 39.7193L7.71276 39.7131L7.71911 39.7125C7.79968 39.7044 7.88302 39.696 7.96447 39.6941C7.97761 39.6919 7.9918 39.6917 8.00648 39.6924C8.01911 39.693 8.03212 39.6943 8.04517 39.6956L8.03823 39.6993L8.04885 39.7026C8.05597 39.7076 8.06485 39.7118 8.07373 39.716C8.08261 39.7201 8.09149 39.7243 8.09864 39.7294C8.11659 39.7465 8.14146 39.7599 8.15943 39.7771C8.16677 39.7909 8.17738 39.7941 8.18474 39.808L8.18842 39.8149C8.20312 39.8426 8.21456 39.8809 8.22235 39.9124C8.26902 40.1007 8.31201 40.282 8.34808 40.4671C8.37851 40.7084 8.39138 40.9502 8.40102 41.2025C8.39522 41.5429 8.37887 41.8801 8.34867 42.2247C8.31305 42.4921 8.26684 42.7564 8.21005 43.0174C8.13612 43.2963 8.05484 43.5614 7.95974 43.8339C7.8215 44.2091 7.65469 44.5639 7.47732 44.9156C7.42006 45.0176 7.36067 45.119 7.29911 45.2196C7.22337 45.3436 7.14437 45.4667 7.06217 45.5887C6.89564 45.8102 6.72546 46.0248 6.54793 46.2256C6.52803 46.2465 6.50772 46.2673 6.48711 46.288C6.45609 46.3191 6.42431 46.35 6.39206 46.3807C6.34027 46.4301 6.28735 46.479 6.23428 46.5279L6.23296 46.5291L6.22284 46.5385L6.22209 46.5393L6.21883 46.5423C6.20542 46.5494 6.1924 46.5572 6.17942 46.5657C6.15747 46.58 6.13553 46.596 6.11193 46.6133L6.09457 46.626C6.07168 46.64 6.04863 46.6536 6.02542 46.667L6.0021 46.6803C5.97988 46.6929 5.95755 46.7052 5.93506 46.7172C5.90061 46.7357 5.8658 46.7537 5.83072 46.771C5.80114 46.7856 5.77131 46.7998 5.74128 46.8135C5.71431 46.8278 5.68579 46.8392 5.65673 46.8496C5.6477 46.8528 5.63861 46.8559 5.62952 46.859L5.60924 46.8658C5.56032 46.874 5.52197 46.8855 5.48001 46.89C5.45553 46.8941 5.43802 46.8945 5.4136 46.8987C5.38605 46.8972 5.35978 46.8982 5.33479 46.898L5.33087 46.898C5.32788 46.8973 5.32517 46.8961 5.32232 46.8958L5.33087 46.898ZM12.0884 78.6293C11.993 78.6001 11.8976 78.5708 11.7984 78.5346C11.7231 78.5008 11.6477 78.467 11.5968 78.4131C11.6417 78.4388 11.6882 78.4637 11.7377 78.487C11.6879 78.4601 11.6382 78.4333 11.5847 78.3995C11.5885 78.4042 11.5926 78.4087 11.5968 78.4131C11.562 78.3933 11.5283 78.3729 11.4948 78.3524L11.446 78.3222L11.3729 78.268C11.3209 78.2294 11.2695 78.1911 11.2189 78.1512C11.166 78.1095 11.1141 78.0663 11.0632 78.0193C11.0422 77.998 11.0213 77.9767 11.0005 77.9553C10.9897 77.944 10.9789 77.9326 10.9682 77.9212C10.9581 77.9104 10.9481 77.8995 10.9383 77.8885C10.9243 77.8728 10.9107 77.857 10.8976 77.8409C10.7816 77.6893 10.6694 77.5447 10.5709 77.3927C10.4684 77.2163 10.3691 77.0293 10.2768 76.8386C10.1134 76.4637 9.97436 76.0846 9.84918 75.6983C9.75714 75.3742 9.6826 75.0498 9.61866 74.7286C9.58005 74.4384 9.55531 74.1408 9.53743 73.8395C9.53756 73.8157 9.53754 73.7917 9.53753 73.7675L9.53756 73.7231C9.53766 73.6653 9.53834 73.6072 9.5416 73.5507C9.54358 73.5336 9.54519 73.5163 9.54603 73.4986C9.55718 73.4171 9.57105 73.3361 9.58981 73.2524L9.64183 73.0827C9.64318 73.0783 9.64574 73.0733 9.6487 73.0674C9.65141 73.062 9.6545 73.0559 9.65741 73.0488C9.65897 73.045 9.66043 73.0409 9.66176 73.0366C9.66501 73.026 9.67195 73.0223 9.68209 73.008C9.97189 72.9519 10.2417 72.791 10.453 72.5367C10.5312 72.4331 10.602 72.3156 10.6516 72.1917L10.7153 72.163C10.7408 72.1515 10.7661 72.14 10.7913 72.1284C10.8246 72.1129 10.8575 72.0974 10.8897 72.0815C10.9149 72.0691 10.9396 72.0565 10.9637 72.0437C11.102 71.9704 11.2393 71.8953 11.3764 71.8197C11.4415 71.7837 11.5066 71.7477 11.5717 71.7116C11.9254 71.5157 12.2792 71.3198 12.6433 71.1435C12.7685 71.0948 12.8936 71.0462 13.0154 71.0081C13.099 70.9815 13.1793 70.9656 13.2665 70.9459C13.2898 70.942 13.3132 70.938 13.3369 70.9349C13.3629 70.9314 13.3894 70.9289 13.4169 70.9282L13.4179 70.9282C13.4332 70.9278 13.4485 70.9274 13.4637 70.9273C13.4757 70.9273 13.4876 70.9274 13.4995 70.9277L13.5715 70.9349C13.5481 70.9305 13.5239 70.9285 13.4995 70.9277L13.487 70.9265C13.477 70.9255 13.4664 70.9236 13.4554 70.9216L13.4359 70.9183L13.4517 70.9186L13.4738 70.9191L13.4855 70.9198L13.4927 70.9202C13.499 70.9207 13.5053 70.9214 13.5115 70.9224C13.5184 70.9187 13.529 70.922 13.529 70.922L13.6452 70.9402L13.7195 70.963L13.826 71.013C13.8401 71.0201 13.8541 71.0277 13.8679 71.0357C13.887 71.0468 13.9057 71.0586 13.9241 71.0704C13.949 71.0865 13.9733 71.1027 13.9969 71.1176C14.0434 71.155 14.0862 71.1856 14.1258 71.2267C14.2948 71.3946 14.4605 71.573 14.6192 71.755C14.7458 71.9098 14.8691 72.0752 14.9785 72.2479C15.0563 72.3826 15.1288 72.5157 15.1998 72.6544C15.2291 72.7117 15.2582 72.77 15.2874 72.8298C15.3544 72.9896 15.4145 73.153 15.464 73.3132C15.507 73.4946 15.55 73.676 15.5824 73.8541L15.6023 74.0519C15.6099 74.129 15.6172 74.2062 15.6241 74.2837L15.6295 74.3459L15.6323 74.3788C15.6367 74.4324 15.6409 74.4862 15.6446 74.5402C15.6396 74.7648 15.6345 74.9894 15.6156 75.2214C15.6046 75.2957 15.5924 75.3705 15.5796 75.4457C15.5608 75.556 15.5406 75.667 15.5204 75.7781C15.5113 75.8152 15.5017 75.8519 15.4916 75.8883C15.4827 75.9204 15.4734 75.9523 15.4639 75.984C15.4308 76.0937 15.3943 76.201 15.3578 76.3082C15.2883 76.4783 15.2118 76.6521 15.1247 76.8226C15.0709 76.9196 15.0158 77.0142 14.9579 77.1071C14.9183 77.1708 14.8773 77.2338 14.8345 77.2962C14.7476 77.4182 14.6501 77.5329 14.5556 77.6441L14.555 77.6448L14.5075 77.7006C14.3878 77.8263 14.2644 77.945 14.1373 78.0569C14.0029 78.1549 13.8754 78.2492 13.7372 78.3402L13.5087 78.4615C13.4588 78.4839 13.4081 78.5048 13.3576 78.5245C13.2994 78.5472 13.2415 78.5685 13.1855 78.5886C13.0807 78.6087 12.9797 78.6358 12.8818 78.6522C12.8016 78.6681 12.7176 78.6772 12.6299 78.6793C12.5247 78.6819 12.4158 78.6775 12.3033 78.6662C12.2771 78.6644 12.2512 78.6611 12.2256 78.657C12.2004 78.653 12.1754 78.6482 12.1505 78.643L12.1224 78.6369L12.0884 78.6293ZM9.5416 73.5507L9.54041 73.5607L9.53875 73.5735L9.53441 73.6049C9.53134 73.6264 9.52833 73.6473 9.52626 73.6678C9.53161 73.6147 9.53747 73.5626 9.54439 73.5107C9.54328 73.5239 9.54239 73.5373 9.5416 73.5507ZM36.7307 49.1973L36.8261 49.2265C36.8514 49.2342 36.8743 49.2376 36.902 49.2417L36.9248 49.2452C36.9458 49.2458 36.9673 49.2472 36.9887 49.2486C37.0317 49.2515 37.0747 49.2544 37.1144 49.2511C37.1845 49.2494 37.244 49.2444 37.3105 49.2358C37.3732 49.2202 37.4397 49.2116 37.5024 49.196C37.5408 49.1846 37.586 49.1694 37.6276 49.1474L38.0293 48.9342C38.1744 48.8394 38.3157 48.7377 38.4465 48.6328C38.4624 48.6185 38.4782 48.6041 38.4939 48.5897L38.5304 48.5558C38.5691 48.5196 38.6072 48.4831 38.6446 48.4462C38.7162 48.3757 38.7857 48.3038 38.8542 48.23C39.0932 47.9611 39.3111 47.6857 39.5285 47.3927C39.7455 47.0822 39.9412 46.7653 40.126 46.4275C40.3103 46.0722 40.4803 45.7067 40.6255 45.3279C40.6974 45.1121 40.7657 44.8894 40.8234 44.6635C40.8391 44.5919 40.8527 44.5203 40.8651 44.4486C40.878 44.3738 40.8898 44.2987 40.9016 44.2233L40.9018 44.2216C40.9103 44.1672 40.9189 44.1125 40.9279 44.0576C40.9468 43.8256 40.9621 43.5866 40.9598 43.3482C40.9569 43.3128 40.9541 43.2778 40.9513 43.2429L40.9498 43.2233C40.9391 43.0888 40.9287 42.9569 40.912 42.8231C40.8878 42.6939 40.8603 42.5752 40.8223 42.4534C40.8054 42.3968 40.7868 42.3411 40.7669 42.2851C40.7499 42.2371 40.7319 42.1889 40.7133 42.1396C40.6736 42.0562 40.6299 41.9738 40.5877 41.8943C40.5795 41.8788 40.5704 41.8639 40.5606 41.8493C40.5514 41.8355 40.5416 41.8219 40.5316 41.8085L40.5187 41.7913L40.5077 41.7769C40.4842 41.7495 40.46 41.7247 40.4358 41.6999L40.4075 41.6708C40.3927 41.6553 40.378 41.6394 40.3636 41.6226C40.2489 41.5236 40.1273 41.4284 40.0021 41.3261L39.9706 41.3055C39.9413 41.2866 39.9122 41.2686 39.883 41.2512C39.8417 41.2267 39.8 41.2035 39.7565 41.1813C39.6607 41.1345 39.5685 41.0946 39.4763 41.0547C39.2393 40.9763 38.9991 40.9085 38.759 40.8406C38.5155 40.7834 38.2724 40.7437 38.0262 40.7146C37.7873 40.6993 37.5483 40.6842 37.3098 40.6864C37.1702 40.6962 37.0295 40.7098 36.8882 40.7249C36.7956 40.7348 36.7028 40.7454 36.6099 40.756C36.5772 40.7606 36.5441 40.7665 36.511 40.7732C36.4977 40.7759 36.4843 40.7786 36.4711 40.7815C36.4423 40.7878 36.4136 40.7943 36.3855 40.8008L36.3838 40.8012L36.3376 40.8118C36.4927 41.4219 36.2248 42.088 35.6498 42.3931C35.4004 42.5255 35.1314 42.5706 34.8782 42.5451C34.8614 42.5807 34.8465 42.6154 34.8315 42.6501C34.8166 42.6845 34.8017 42.719 34.7851 42.7544C34.7589 42.8271 34.7374 42.9013 34.7154 42.9771L34.6971 43.0402C34.6919 43.0579 34.6865 43.0757 34.681 43.0937C34.6307 43.3334 34.5873 43.5695 34.5582 43.8158C34.543 44.0548 34.5346 44.29 34.53 44.5322C34.545 44.8616 34.5739 45.1836 34.6134 45.5089C34.6383 45.6443 34.6652 45.7768 34.6944 45.9087C34.7315 46.0764 34.7724 46.2429 34.8178 46.4126C34.9278 46.7537 35.048 47.0806 35.1894 47.4139C35.2449 47.5282 35.3015 47.6389 35.3599 47.7474C35.4025 47.8266 35.4461 47.9046 35.4909 47.9819C35.6256 48.1856 35.7673 48.3857 35.9159 48.5821C35.9845 48.6611 36.0636 48.7434 36.1355 48.8118C36.2073 48.8802 36.2823 48.938 36.3575 48.9958C36.4314 49.0447 36.5025 49.0879 36.5732 49.1306C36.6255 49.1554 36.6776 49.1779 36.7307 49.1973Z" fill="#1873F2"/>
<path d="M31.7466 45.6277C31.7429 45.6265 31.7396 45.6262 31.7369 45.6264C31.7319 45.6266 31.7291 45.6281 31.7291 45.6281C31.7318 45.6267 31.7335 45.6258 31.7351 45.6255C31.7364 45.6252 31.7376 45.6253 31.7394 45.6256C31.7411 45.626 31.7434 45.6267 31.7466 45.6277Z" fill="#1873F2"/>
</svg>
