<svg width="51" height="51" viewBox="0 0 51 51" fill="none" xmlns="http://www.w3.org/2000/svg">
<path fill-rule="evenodd" clip-rule="evenodd" d="M46.9432 25.6802C46.9432 25.2658 46.7786 24.8684 46.4856 24.5753C46.1926 24.2823 45.7951 24.1177 45.3807 24.1177H8.5276L18.362 14.2864C18.5072 14.1412 18.6225 13.9687 18.7011 13.7789C18.7797 13.5891 18.8202 13.3856 18.8202 13.1802C18.8202 12.9747 18.7797 12.7713 18.7011 12.5815C18.6225 12.3917 18.5072 12.2192 18.362 12.0739C18.2167 11.9287 18.0442 11.8134 17.8544 11.7348C17.6646 11.6562 17.4612 11.6157 17.2557 11.6157C17.0503 11.6157 16.8468 11.6562 16.657 11.7348C16.4672 11.8134 16.2947 11.9287 16.1495 12.0739L3.64947 24.5739C3.50396 24.7191 3.38852 24.8915 3.30975 25.0813C3.23098 25.2712 3.19043 25.4747 3.19043 25.6802C3.19043 25.8857 3.23098 26.0892 3.30975 26.279C3.38852 26.4689 3.50396 26.6413 3.64947 26.7864L16.1495 39.2864C16.2947 39.4317 16.4672 39.547 16.657 39.6256C16.8468 39.7042 17.0503 39.7447 17.2557 39.7447C17.4612 39.7447 17.6646 39.7042 17.8544 39.6256C18.0442 39.547 18.2167 39.4317 18.362 39.2864C18.5072 39.1412 18.6225 38.9687 18.7011 38.7789C18.7797 38.5891 18.8202 38.3856 18.8202 38.1802C18.8202 37.9747 18.7797 37.7713 18.7011 37.5815C18.6225 37.3917 18.5072 37.2192 18.362 37.0739L8.5276 27.2427H45.3807C45.7951 27.2427 46.1926 27.0781 46.4856 26.7851C46.7786 26.492 46.9432 26.0946 46.9432 25.6802Z" fill="#2E3047"/>
</svg>
