<svg width="51" height="51" viewBox="0 0 51 51" fill="none" xmlns="http://www.w3.org/2000/svg">
<path fill-rule="evenodd" clip-rule="evenodd" d="M3.19336 25.6802C3.19336 25.2658 3.35798 24.8684 3.651 24.5753C3.94403 24.2823 4.34146 24.1177 4.75586 24.1177H41.609L31.7746 14.2864C31.4812 13.9931 31.3164 13.5951 31.3164 13.1802C31.3164 12.7653 31.4812 12.3673 31.7746 12.0739C32.068 11.7806 32.4659 11.6157 32.8809 11.6157C33.2958 11.6157 33.6937 11.7806 33.9871 12.0739L46.4871 24.5739C46.6326 24.7191 46.7481 24.8915 46.8268 25.0813C46.9056 25.2712 46.9461 25.4747 46.9461 25.6802C46.9461 25.8857 46.9056 26.0892 46.8268 26.279C46.7481 26.4689 46.6326 26.6413 46.4871 26.7864L33.9871 39.2864C33.6937 39.5798 33.2958 39.7447 32.8809 39.7447C32.4659 39.7447 32.068 39.5798 31.7746 39.2864C31.4812 38.993 31.3164 38.5951 31.3164 38.1802C31.3164 37.7653 31.4812 37.3673 31.7746 37.0739L41.609 27.2427H4.75586C4.34146 27.2427 3.94403 27.0781 3.651 26.7851C3.35798 26.492 3.19336 26.0946 3.19336 25.6802Z" fill="#2E3047"/>
</svg>
