<svg width="30" height="59" viewBox="0 0 30 59" fill="none" xmlns="http://www.w3.org/2000/svg">
<path d="M2.53453 40.7676C3.07923 41.0701 3.6073 41.39 4.12329 41.7401C4.42397 41.9489 4.72094 42.1616 5.01791 42.3742C5.16652 42.4806 5.31513 42.587 5.46419 42.693C5.84853 42.9683 6.23503 43.2413 6.62189 43.5146L6.62619 43.5176C7.15974 43.8945 7.69399 44.2719 8.22414 44.6565C9.21391 45.3748 10.187 46.1105 11.1479 46.8678C11.3336 47.0127 11.5157 47.1644 11.696 47.3191C11.6676 47.1791 11.6387 47.0392 11.6093 46.8993L11.6136 46.9035C11.5738 46.7252 11.5336 46.5471 11.4934 46.3691C11.2878 45.458 11.0825 44.5485 10.9248 43.6317C10.722 42.4723 10.4979 41.3176 10.2611 40.1675L10.2458 40.0929L10.2296 40.0144L10.2281 40.0074C10.2202 39.9692 10.2122 39.9311 10.2044 39.8929C10.1746 39.748 10.1464 39.6028 10.1245 39.4543C10.1069 39.3443 10.0863 39.2345 10.0655 39.1244L10.0653 39.1228C10.0268 38.9186 9.98828 38.7139 9.96944 38.5069C9.90265 37.8602 9.8488 37.2175 9.80757 36.5702C9.75495 35.8038 9.70649 35.0329 9.71355 34.2651C9.72418 33.4673 9.81562 32.6632 9.97156 31.8789C10.0476 31.4769 10.1298 31.0808 10.2129 30.6805L10.2136 30.6772L10.2612 30.4474C10.3374 30.0702 10.4177 29.6887 10.5282 29.3193C10.6583 28.8768 10.784 28.4302 10.9399 27.9957C11.1041 27.5524 11.2811 27.1131 11.4667 26.6736C11.5172 26.5525 11.5675 26.4312 11.6178 26.3098C12.0254 25.3258 12.435 24.3371 12.9746 23.4129C13.3045 22.8459 13.6887 22.3115 14.0711 21.7797C14.2489 21.5324 14.4264 21.2856 14.5977 21.0364C14.9917 20.3957 15.3686 19.7554 15.6849 19.0739C15.8544 18.6774 16.0153 18.2726 16.1505 17.8684C16.2966 17.3829 16.4126 16.8854 16.5071 16.3841C16.6229 15.7032 16.6958 15.0147 16.7259 14.3188C16.7419 13.7427 16.7323 13.1671 16.6844 12.5967C16.6394 12.1457 16.5732 11.6995 16.4899 11.2537C16.356 10.6513 16.2178 10.0532 16.05 9.46017C15.9708 9.18487 15.9 8.90077 15.8038 8.62588C15.7488 8.46513 15.6927 8.30548 15.6366 8.14583C15.5805 7.98618 15.5244 7.82652 15.4693 7.66578C15.442 7.60206 15.415 7.53826 15.388 7.4744C15.366 7.42217 15.344 7.36993 15.3221 7.31769C15.2379 7.11746 15.1537 6.91724 15.0655 6.71848C15.0281 6.63401 14.9898 6.54978 14.9505 6.46589C14.921 6.40277 14.8909 6.3399 14.86 6.27729C14.6219 5.77549 14.3756 5.29097 14.1249 4.80225C14.0649 4.69203 14.0036 4.58302 13.9409 4.47502C13.8361 4.29431 13.7274 4.11638 13.6137 3.94026C13.4769 3.75163 13.3362 3.5759 13.1869 3.40037C13.1345 3.35046 13.0907 3.30031 13.0383 3.2504C12.6275 2.84234 12.5942 2.16926 13.0019 1.74146C13.41 1.33069 14.113 1.30092 14.5237 1.70898C15.2578 2.43338 15.7651 3.3083 16.2306 4.21831C16.2755 4.30579 16.3209 4.39352 16.3665 4.48152L16.3675 4.48345L16.3695 4.48731C16.5863 4.90603 16.8062 5.33087 16.9887 5.76531C17.2329 6.33946 17.4683 6.90528 17.6701 7.489C17.7571 7.73855 17.8569 7.98349 17.931 8.22908C17.961 8.33535 17.9909 8.44089 18.0207 8.54602L18.0227 8.55292C18.0943 8.80586 18.1654 9.05652 18.2343 9.30935C18.3976 9.88975 18.5272 10.488 18.6354 11.0825C18.9063 12.59 18.9219 14.1208 18.771 15.6428C18.6159 17.1692 18.2256 18.6713 17.5853 20.0601C17.2612 20.7674 16.8678 21.4338 16.4615 22.0961C16.1614 22.5796 15.8287 23.0431 15.4966 23.5059C15.329 23.7394 15.1615 23.9728 14.9984 24.2085C14.6988 24.6977 14.4338 25.2031 14.195 25.7335L14.0022 26.1852C13.6013 27.1234 13.2015 28.0591 12.8496 29.0159C12.814 29.1364 12.7774 29.256 12.7407 29.3756L12.7273 29.4194C12.6874 29.5495 12.6475 29.6796 12.6087 29.8108C12.5833 29.8959 12.5604 29.9827 12.5388 30.0702C12.4832 30.296 12.437 30.5264 12.3838 30.746C12.2688 31.2303 12.1725 31.7266 12.0763 32.222L12.0249 32.4862C11.952 32.9998 11.8833 33.509 11.8532 34.03C11.8242 34.9531 11.8894 35.8739 11.9545 36.792L11.9549 36.7973C11.9655 36.9472 11.9761 37.0971 11.9863 37.2469C12.019 37.5447 12.0433 37.8427 12.0719 38.1448C12.0911 38.3597 12.1304 38.576 12.1695 38.7905C12.19 38.9031 12.2104 39.0151 12.2278 39.1263C12.2981 39.5673 12.3938 40.0055 12.4893 40.4431C12.5236 40.5998 12.5578 40.7564 12.5908 40.9131C12.7232 41.564 12.841 42.2186 12.9586 42.8725C13.0687 43.4851 13.1788 44.097 13.3007 44.7047C13.6166 46.1301 13.9281 47.5514 14.1804 48.9911C14.2168 49.1931 14.187 49.3929 14.1085 49.5708C15.2082 50.674 16.188 51.886 17.0579 53.1739C17.4603 53.7656 17.8125 54.4012 18.1519 55.0327C18.2458 55.2139 18.3439 55.3906 18.4379 55.5717C18.5848 55.2952 18.7229 55.0104 18.8569 54.7299C19.2097 53.9216 19.5345 53.1084 19.8607 52.2918C19.9381 52.0981 20.0155 51.9043 20.0934 51.7103C20.142 51.5895 20.1902 51.4687 20.2382 51.3482L20.2385 51.3474C20.3892 50.9694 20.5391 50.5933 20.7015 50.2242C20.7691 50.0691 20.8349 49.9138 20.9007 49.7585C21.0008 49.5221 21.1009 49.2859 21.2067 49.0517C20.6897 49.0465 20.2698 48.6595 20.1652 48.1473C20.0489 47.57 19.9283 46.9886 19.8035 46.4116C19.8058 46.4222 19.8072 46.4318 19.8084 46.4414L19.8102 46.4536L19.8107 46.4567C19.8086 46.4471 19.8062 46.4379 19.8039 46.4287C19.8003 46.4149 19.7968 46.4011 19.7943 46.3862C19.7943 46.3862 19.7942 46.3833 19.7933 46.38C19.7926 46.3777 19.7915 46.3752 19.7897 46.3735L19.7941 46.3777C19.686 45.9106 19.5747 45.4436 19.4633 44.9762L19.4588 44.9574C19.3118 44.3404 19.1646 43.7228 19.0242 43.1037C18.9714 42.8618 18.9145 42.6243 18.8703 42.3823C18.8507 42.2776 18.8292 42.1729 18.8077 42.0682C18.7881 41.9727 18.7685 41.8772 18.7504 41.7817C18.7287 41.6678 18.7091 41.5538 18.694 41.4397C18.6871 41.3856 18.6804 41.3316 18.6737 41.2776L18.6658 41.214C18.6548 41.124 18.6439 41.0341 18.633 40.9443C18.613 40.7795 18.593 40.6147 18.572 40.4489C18.5619 40.365 18.5543 40.2811 18.5482 40.1972C18.5427 40.1222 18.5384 40.0472 18.5346 39.9722C18.5321 39.9239 18.5299 39.8757 18.5276 39.8274L18.5225 39.7205C18.5192 39.6524 18.5155 39.5843 18.5111 39.5163C18.4809 38.9711 18.4889 38.4207 18.5184 37.8741C18.5222 37.8069 18.5259 37.7397 18.5296 37.6723L18.5297 37.6713C18.558 37.1608 18.5865 36.646 18.6685 36.1431C18.7727 35.5094 18.8814 34.8883 19.0157 34.2667C19.1233 33.7778 19.2522 33.2843 19.3897 32.799C19.4878 32.4685 19.5874 32.1395 19.6908 31.8109C19.7663 31.5714 19.8438 31.3322 19.9243 31.0929C20.0954 30.5812 20.2791 30.065 20.519 29.5772L20.6069 29.3915L20.6079 29.3894C20.801 28.981 20.9947 28.5716 21.2144 28.1743C21.5003 27.647 21.7948 27.1282 22.0979 26.609C22.4702 25.9693 22.8524 25.3353 23.235 24.7005C23.4165 24.3994 23.598 24.0982 23.7787 23.7962C24.0493 23.3461 24.3069 22.8835 24.5559 22.4211C24.8049 21.9588 25.024 21.4929 25.2472 21.0226L25.2496 21.0166C25.3813 20.6785 25.5131 20.3403 25.6407 20.0065C25.7344 19.7747 25.8075 19.5322 25.88 19.2914L25.8811 19.2875C25.9079 19.1985 25.9347 19.1098 25.9624 19.022C26.0484 18.6959 26.1343 18.3696 26.2246 18.0476C26.2458 17.9673 26.2651 17.8863 26.2833 17.8049C26.312 17.6767 26.3379 17.5474 26.3637 17.4183L26.3788 17.3433L26.3892 17.2915C26.3988 17.2447 26.4084 17.198 26.4182 17.1513C26.4252 17.1184 26.4322 17.0856 26.4395 17.0529C26.5132 16.5735 26.5869 16.094 26.6307 15.611C26.6779 15.0895 26.7081 14.577 26.7297 14.0561C26.7292 13.6808 26.7157 13.3015 26.6855 12.9312C26.6133 12.2377 26.486 11.5584 26.3544 10.8749C26.2491 10.3997 26.144 9.93311 26.0175 9.46275C25.8675 8.90337 25.7009 8.36151 25.5255 7.81126C25.3792 7.40533 25.2245 6.99964 25.0528 6.60284C24.872 6.1807 24.679 5.7802 24.4813 5.36697C24.4145 5.24915 24.3466 5.13031 24.2787 5.0115L24.1987 4.87138C24.1576 4.79935 24.1166 4.72748 24.0761 4.65598C24.0049 4.53264 23.9224 4.41338 23.8399 4.29406C23.8195 4.26459 23.7992 4.23512 23.779 4.20559C23.7582 4.17527 23.7377 4.14492 23.7175 4.11443C23.5017 3.83391 23.2821 3.56621 23.0496 3.30312L22.6699 2.94123C22.5622 2.89691 22.4624 2.8268 22.3751 2.7436C21.956 2.34428 21.9352 1.65814 22.3387 1.23468C22.5388 1.04219 22.8172 0.91604 23.0985 0.909251C23.6186 0.896729 24.0158 1.27523 24.3609 1.61237C24.7889 2.02855 25.1882 2.49232 25.5243 2.98749C25.8473 3.47019 26.1662 3.95725 26.422 4.48421C26.6865 5.0195 26.9299 5.55954 27.1649 6.10832C27.3805 6.61014 27.5486 7.13555 27.7158 7.65837L27.7162 7.65984L27.7174 7.66343L27.7763 7.84736L27.7924 7.89729C27.9492 8.38827 28.0849 8.88402 28.1993 9.38451C28.5715 11.0218 28.9181 12.6598 28.848 14.3505C28.7955 15.5332 28.7002 16.7083 28.451 17.8702C28.2062 19.0362 27.8798 20.1828 27.4418 21.298C26.7469 23.0729 25.7507 24.7129 24.7601 26.3436L24.7582 26.3467L24.7565 26.3494L24.7562 26.3499C24.5225 26.7347 24.2891 27.1189 24.0601 27.5043C23.7772 27.976 23.5028 28.4475 23.2415 28.9315C22.9557 29.4587 22.6955 29.9853 22.4398 30.5246C22.3071 30.8563 22.1784 31.1835 22.0457 31.5151C21.9551 31.7457 21.8795 31.9823 21.8038 32.2193L21.8034 32.2204C21.7718 32.3191 21.74 32.4185 21.7073 32.517L21.6848 32.5933L21.634 32.7651C21.5237 33.1368 21.4137 33.5078 21.3182 33.887C21.1818 34.4234 21.0582 34.9552 20.9432 35.4954C20.8687 35.9408 20.7943 36.3947 20.7497 36.8436C20.6975 37.3257 20.6708 37.8073 20.6441 38.2888L20.6439 38.292L20.6437 38.4015L20.6435 38.6513C20.6434 38.7446 20.643 38.8378 20.642 38.9312C20.6415 38.9684 20.641 39.0056 20.6403 39.0429C20.6393 39.0982 20.638 39.1536 20.6362 39.2091C20.6393 39.5119 20.6681 39.8225 20.6882 40.1249C20.6992 40.2119 20.7103 40.2995 20.7213 40.3874C20.7353 40.4996 20.7492 40.6123 20.7629 40.725C20.7793 40.8611 20.7953 40.9972 20.8106 41.1327C20.838 41.3656 20.886 41.5979 20.9339 41.8291L20.9341 41.8305C20.9614 41.962 20.9885 42.0933 21.0118 42.224C21.1519 42.8462 21.2968 43.4674 21.4416 44.0885L21.443 44.0944C21.6812 45.116 21.9194 46.1376 22.1366 47.1639C22.1585 47.1226 22.1806 47.0814 22.2028 47.0404C22.3284 46.8082 22.4549 46.577 22.5819 46.3454C22.7315 46.0726 22.8818 45.7992 23.032 45.5233C23.1417 45.3219 23.2523 45.1208 23.3629 44.9198C23.8119 44.1035 24.2606 43.2878 24.6509 42.4433C24.8577 41.999 25.0603 41.5591 25.2715 41.1189C25.5145 40.5842 25.7532 40.0453 25.9918 39.5064C26.3115 38.795 26.6571 38.0914 27.0503 37.4166C27.3286 36.9322 27.6502 36.4723 28.037 36.0664C28.4364 35.6473 29.1225 35.6264 29.546 36.0299C29.9694 36.4334 29.9859 37.1155 29.5824 37.5389C29.5316 37.5922 29.4895 37.6409 29.4467 37.6915L29.4133 37.7313L29.3956 37.7524C29.2634 37.9262 29.1395 38.0998 29.0204 38.286C28.6349 38.9266 28.3097 39.5912 27.9933 40.2642L27.9931 40.2557C27.9911 40.2622 27.9891 40.2665 27.9871 40.2707L27.9848 40.2757C27.9835 40.2786 27.9823 40.2818 27.981 40.2858C27.9798 40.2871 27.9794 40.2883 27.9791 40.2895C27.979 40.2904 27.979 40.2913 27.979 40.2923C27.9791 40.2944 27.9792 40.2965 27.9771 40.2987C27.9731 40.3116 27.969 40.316 27.965 40.3289C27.877 40.5238 27.7893 40.7191 27.7016 40.9143C27.4382 41.5006 27.1748 42.0868 26.904 42.6661C26.5147 43.503 26.0995 44.3233 25.6759 45.1524C25.4291 45.6302 25.1654 46.1029 24.9022 46.5748C24.8326 46.6996 24.7631 46.8243 24.6939 46.949C24.6273 47.069 24.561 47.1891 24.4954 47.3092C24.0747 48.0828 23.6799 48.8643 23.2852 49.6543C22.8729 50.594 22.4646 51.5294 22.0868 52.4854C21.6727 53.5318 21.2543 54.574 20.8058 55.6042C20.5713 56.1387 20.3108 56.6568 20.0202 57.1628C19.9916 57.2134 19.9628 57.2656 19.9333 57.3189L19.9326 57.3201C19.6251 57.8766 19.2574 58.5418 18.5654 58.5585C17.599 58.5818 17.1108 57.636 16.715 56.8691C16.6743 56.7904 16.6347 56.7135 16.5956 56.6398C16.113 55.7302 15.6094 54.8339 15.0301 53.9821C14.4338 53.1307 13.7747 52.3277 13.0737 51.5598C12.7089 51.1677 12.3236 50.7932 11.9376 50.4181C11.7446 50.2304 11.5515 50.0427 11.3606 49.8525C11.227 49.7198 11.0797 49.5978 10.933 49.4763L10.9323 49.4758C10.849 49.4068 10.7658 49.338 10.6854 49.2674C10.411 49.0309 10.1366 48.7944 9.8666 48.5621C8.71451 47.6558 7.54596 46.7756 6.35267 45.93C5.94207 45.6387 5.5333 45.3454 5.12452 45.0521L5.12397 45.0518C4.3061 44.4649 3.4882 43.878 2.65554 43.3067C2.43388 43.1698 2.21374 43.0345 1.9916 42.9024C1.84061 42.8127 1.6887 42.7245 1.53475 42.6385C1.02894 42.3564 0.821386 41.7089 1.09889 41.1904C1.14385 41.1082 1.19746 41.0345 1.25987 40.969C1.58038 40.6414 2.11084 40.5305 2.53453 40.7676Z" fill="#E08DAC"/>
</svg>
