<svg width="132" height="132" viewBox="0 0 132 132" fill="none" xmlns="http://www.w3.org/2000/svg">
<rect width="106.026" height="106.026" transform="translate(0.910156 29.4165) rotate(-15.8823)" fill="#E08DAC"/>
<path d="M37.6049 43.1333L33.0242 65.0974M37.6049 43.1333L53.3043 59.3273M37.6049 43.1333L58.0603 37.3132M33.0242 65.0974L74.1871 94.2154M33.0242 65.0974L53.3043 59.3273M93.973 47.7561L78.5157 31.4932M93.973 47.7561L74.1871 94.2154M93.973 47.7561L73.576 53.5595M78.5157 31.4932L73.576 53.5595M78.5157 31.4932L58.0603 37.3132M74.1871 94.2154L53.3043 59.3273M74.1871 94.2154L73.576 53.5595M53.3043 59.3273L73.576 53.5595M53.3043 59.3273L58.0603 37.3132M73.576 53.5595L58.0603 37.3132" stroke="url(#paint0_radial_0_2947)" stroke-width="1.05613"/>
<defs>
<radialGradient id="paint0_radial_0_2947" cx="0" cy="0" r="1" gradientUnits="userSpaceOnUse" gradientTransform="translate(55.4975 59.1798) rotate(39.8591) scale(55.3459 54.8949)">
<stop stop-color="white"/>
<stop offset="1" stop-color="white" stop-opacity="0"/>
</radialGradient>
</defs>
</svg>
