<svg width="40" height="77" viewBox="0 0 40 77" fill="none" xmlns="http://www.w3.org/2000/svg">
<path fill-rule="evenodd" clip-rule="evenodd" d="M37.3708 40.7539C37.0201 40.8448 36.6833 41.0756 36.369 41.291L36.363 41.2951C36.2901 41.3451 36.2183 41.3942 36.1479 41.4405C35.5096 41.8428 34.882 42.2666 34.2812 42.7278C34.1477 42.8322 34.0145 42.9374 33.8812 43.0427L33.6786 43.2025L33.5561 43.2988C33.2837 43.5125 33.0096 43.724 32.7306 43.9271C33.0422 43.1732 33.3796 42.428 33.7169 41.6827C33.861 41.3644 34.0051 41.0461 34.1471 40.7271C34.2822 40.43 34.4172 40.1351 34.5528 39.841C34.7133 39.4925 34.8746 39.1451 35.0375 38.796C35.0633 38.7408 35.0904 38.6852 35.1182 38.6293C35.1421 38.5811 35.1665 38.5327 35.1911 38.4841L35.1926 38.4809C35.4718 37.9281 35.7677 37.3419 35.5203 36.7255C34.8975 35.1812 32.8886 36.1222 31.7766 36.6432L31.7698 36.6463L31.7612 36.6504L31.6926 36.6825C31.6568 36.6992 31.6221 36.7154 31.5885 36.7309C30.9743 37.0193 30.3763 37.3401 29.7769 37.6616L29.7747 37.6629L29.5019 37.8091C29.1639 37.9646 28.826 38.1094 28.4827 38.2489C28.323 38.2977 28.1637 38.3449 28.0046 38.3914C27.8894 38.425 27.7744 38.4583 27.6594 38.4914L27.63 38.4999L27.6278 38.5005L27.4232 38.5596L27.3017 38.5949C27.1365 38.643 26.9716 38.6917 26.8066 38.742C26.7199 38.7685 26.6331 38.7954 26.5463 38.8229C25.8705 39.0481 25.2053 39.2841 24.5402 39.5202C24.4552 39.5457 24.3698 39.5708 24.2841 39.5955C24.2012 39.6193 24.118 39.6428 24.0347 39.6656C23.9627 39.6854 23.8905 39.7048 23.8183 39.7238C23.7336 39.746 23.6488 39.7675 23.564 39.7884C23.5141 39.7996 23.4642 39.8099 23.4143 39.8196C23.2979 39.842 23.1815 39.8608 23.0651 39.8796C23.0275 39.8528 22.99 39.8259 22.9525 39.7884L22.8291 39.665C22.7754 39.6006 22.7271 39.5417 22.6789 39.4719C22.5406 39.2546 22.4251 39.0328 22.3072 38.8065L22.2766 38.7478C22.1639 38.4849 22.0513 38.2221 21.9547 37.9539C21.826 37.5248 21.7348 37.101 21.649 36.6612C21.6061 36.3393 21.5578 36.0121 21.531 35.6849C21.5202 35.4167 21.5202 35.1485 21.531 34.8803C21.5524 34.6764 21.5793 34.478 21.6115 34.2742C21.6597 34.0328 21.7241 33.7968 21.7938 33.5554C21.8563 33.3803 21.9243 33.207 21.9947 33.0345C22.045 32.9111 22.0964 32.788 22.1479 32.665C22.6091 31.7638 23.1187 30.9002 23.6712 30.0473C23.6602 30.0657 23.6492 30.0839 23.6382 30.1019C24.1481 29.3345 24.6581 28.5674 25.1731 27.8052L25.2923 27.6301C25.8471 26.8144 26.3991 26.0028 27.0398 25.252C27.249 25.0213 27.4636 24.8067 27.6942 24.5976C28.2574 24.1309 28.8313 23.7071 29.4214 23.2995C30.1348 22.8435 30.8482 22.3876 31.5617 21.9424C32.2322 21.5294 32.9295 21.1645 33.6375 20.8213C33.954 20.6764 34.2705 20.5531 34.5923 20.4351C35.0536 20.3063 35.5203 20.1937 35.9923 20.0971C36.2712 20.0573 36.5536 20.0358 36.8338 20.0143L36.945 20.0058L37.0115 20.0006C37.639 19.963 38.2774 19.5929 38.4061 18.9278C38.4544 18.6971 38.4705 18.4772 38.4061 18.2412C38.3525 18.0374 38.2452 17.8657 38.1272 17.6941C38.0854 17.6306 38.0356 17.5699 37.9813 17.511C37.9023 17.4253 37.8139 17.3436 37.7272 17.2636L37.7264 17.2627L37.7234 17.2599L37.7202 17.2569C37.6937 17.2324 37.6674 17.2081 37.6416 17.1839C37.6112 17.1554 37.5816 17.127 37.5532 17.0987C37.3889 16.9344 37.2247 16.7728 37.0611 16.6119C36.8988 16.4523 36.7372 16.2934 36.577 16.1331C36.435 15.9912 36.2929 15.8494 36.1508 15.7075L36.1492 15.7059C35.014 14.5728 33.8789 13.4397 32.8115 12.2389C32.3824 11.7411 31.9396 11.2571 31.4967 10.7731C31.386 10.6521 31.2752 10.531 31.1647 10.4098C30.9179 10.1201 30.6766 9.83581 30.4352 9.5408C30.4054 9.50387 30.3757 9.46681 30.3462 9.42965C30.3092 9.38326 30.2724 9.33674 30.2356 9.29021L30.2345 9.28894C30.0356 9.03789 29.8368 8.78685 29.6199 8.55384C29.4858 8.409 29.341 8.2642 29.2015 8.12473C28.7509 7.70635 28.2789 7.26647 27.8122 6.81054C27.3832 6.38922 26.9405 5.98159 26.4979 5.57395C26.3206 5.41068 26.1433 5.24744 25.967 5.08332C25.9294 5.04852 25.892 5.01362 25.8545 4.97872L25.7902 4.91861C25.5551 4.69896 25.32 4.47931 25.0712 4.27338C25.0052 4.21714 24.9375 4.16259 24.8688 4.10893C24.8356 4.083 24.8021 4.0573 24.7685 4.03173C24.7094 3.98681 24.6499 3.94229 24.5902 3.8977L24.585 3.89387L24.5837 3.89269C24.4411 3.78619 24.298 3.67916 24.1594 3.5653C23.4213 2.90446 22.718 2.2002 22.0181 1.49945L21.7831 1.26416C21.2628 0.754569 20.4046 0.743831 19.8842 1.26415C19.7984 1.34996 19.7287 1.44114 19.675 1.53772C19.1063 1.82881 18.7245 2.41147 18.3705 2.95176C18.3005 3.05869 18.2315 3.16395 18.1624 3.26495C17.7382 3.88945 17.2946 4.49778 16.8511 5.10591C16.4871 5.60512 16.1231 6.10423 15.7701 6.61208C14.9279 7.82968 14.0911 9.0741 13.4635 10.4205C13.0255 11.3779 12.6267 12.3465 12.2267 13.3183L12.2263 13.3193C12.1342 13.543 12.042 13.7668 11.9492 13.9908C11.8875 14.1399 11.8255 14.289 11.7632 14.4381C11.216 15.7469 10.7708 17.0826 10.4061 18.4558C10.0359 19.8772 9.6819 21.304 9.45662 22.7523C9.2975 23.8008 9.20976 24.8711 9.12258 25.9347L9.12219 25.9398C9.09488 26.2729 9.06764 26.6054 9.03824 26.9362C8.91485 28.3577 8.83438 29.7791 8.85585 31.206C8.87196 32.6704 9.05435 34.1186 9.285 35.5616C9.51028 36.9776 9.80526 38.3884 10.1379 39.783C10.4436 41.1079 10.8566 42.4006 11.3984 43.6505C11.6773 44.2942 12.0581 44.8896 12.4551 45.4689L12.4918 45.5221C12.5166 45.558 12.5416 45.5936 12.5667 45.6292C12.5814 45.65 12.5961 45.6707 12.611 45.6913C12.6247 45.7105 12.6384 45.7295 12.6522 45.7485C12.7298 45.8553 12.8089 45.9605 12.8896 46.0643C12.2727 46.4344 11.629 46.7777 10.9853 47.0995L10.1626 47.5077L10.1442 47.5168C9.90315 47.6363 9.66242 47.7557 9.42181 47.8752C9.184 47.9934 8.94631 48.1118 8.70846 48.2309C8.51278 48.3288 8.317 48.4273 8.12099 48.5264C7.69007 48.7445 7.26338 48.9724 6.83594 49.2008L6.82622 49.206L6.82121 49.2086L6.82032 49.2091C6.6194 49.3165 6.41832 49.4239 6.21658 49.5305C6.00839 49.6405 5.79945 49.7495 5.5892 49.8566C5.18153 50.039 4.77386 50.2106 4.35545 50.3608C3.86734 50.5163 3.3792 50.6612 2.87498 50.7792C2.50487 50.8704 2.11867 50.924 1.7593 51.0367C1.43743 51.1332 1.1585 51.2834 0.890297 51.4873C0.284163 51.9432 0.117881 52.8712 0.606022 53.4773C0.831301 53.7562 1.13168 53.9279 1.4428 54.0995C1.68223 54.2363 1.91828 54.3765 2.15086 54.5147L2.15341 54.5163L2.32788 54.6198C2.8428 54.9202 3.34165 55.2474 3.8405 55.5746C4.6451 56.0895 5.47117 56.5723 6.35087 56.9371C6.93553 57.1785 7.51485 57.4359 8.08881 57.6987C8.30803 57.8136 8.52663 57.9298 8.74447 58.0473L8.52866 58.1922C8.40772 58.2735 8.28674 58.3547 8.16568 58.4358C8.01694 58.5355 7.86804 58.6349 7.71869 58.734C7.15547 59.0934 6.59226 59.4421 5.99683 59.7478C5.64279 59.7586 5.29952 59.9195 5.03669 60.1608C4.58613 60.5685 4.5164 61.3034 4.81141 61.813C4.98306 62.1241 5.24589 62.3225 5.55165 62.4245C5.6643 62.5156 5.77696 62.6068 5.90032 62.6873L5.90444 62.69C6.02014 62.7657 6.13584 62.8413 6.25154 62.9161C6.41337 63.0209 6.5752 63.1241 6.73707 63.2237C7.19299 63.4973 7.64895 63.7494 8.11562 64.0015C8.51039 64.21 8.90974 64.4065 9.30877 64.6029C9.8748 64.8815 10.4401 65.1597 10.9907 65.4712L11.1362 65.5551C11.5447 65.7909 11.9575 66.029 12.3746 66.2544C12.8896 66.5226 13.4153 66.78 13.9356 67.0321C14.204 67.163 14.4703 67.3039 14.7371 67.4451L14.7469 67.4503C14.8305 67.4945 14.9142 67.5387 14.998 67.5827L15.0885 67.63C15.1422 67.658 15.1959 67.6858 15.2497 67.7134C15.8183 68.003 16.3976 68.2712 16.9716 68.5448C16.9435 68.5335 16.9168 68.5208 16.8893 68.5074L16.8558 68.491L16.8299 68.4786L16.8107 68.4697C16.9133 68.5237 17.0151 68.5788 17.1163 68.6347C17.2477 68.7072 17.3779 68.781 17.5076 68.8556C17.6959 68.9639 17.8828 69.0738 18.0697 69.1836C18.3339 69.3389 18.5978 69.4941 18.8651 69.6444C19.1314 69.8024 19.413 69.9376 19.6938 70.0724L19.7066 70.0785L19.852 70.1486C20.1417 70.2988 20.4207 70.4704 20.6996 70.6421C21.1609 70.9746 21.6222 71.3072 22.1157 71.5969C22.5823 71.8704 23.049 72.144 23.5049 72.4391C23.651 72.5376 23.7965 72.637 23.9418 72.7368C24.0408 72.8048 24.1397 72.873 24.2386 72.9412L24.2407 72.9427C24.8804 73.3835 25.5196 73.8241 26.1869 74.2199C26.718 74.5363 27.2597 74.8314 27.8176 75.0888C28.1181 75.2312 28.4317 75.3493 28.7451 75.4673C28.9632 75.5495 29.1812 75.6316 29.3946 75.7218C29.7272 75.8934 30.049 76.0865 30.3709 76.2904C30.3982 76.3077 30.4256 76.3252 30.4529 76.3429L30.5146 76.3829L30.5681 76.4178L30.5711 76.4198C30.8257 76.5861 31.0826 76.7538 31.3632 76.8643C31.7601 77.0145 32.2643 77.0145 32.6398 76.7892L32.662 76.7759C32.8684 76.6522 33.0636 76.5353 33.2138 76.3333C33.3962 76.0973 33.5356 75.8184 33.6107 75.5287C33.7813 74.877 33.8092 74.1967 33.8369 73.52C33.8432 73.3668 33.8495 73.2138 33.8574 73.0613C33.9272 72.3264 34.013 71.6076 34.1417 70.8781L34.1969 70.615L34.1971 70.6138C34.3781 69.7523 34.5593 68.8896 34.6567 68.0137C34.7575 67.1063 34.7853 66.1946 34.8131 65.2825L34.8229 64.9616C34.8659 64.5218 34.9195 64.0926 34.9785 63.6582C34.9958 63.5725 35.0136 63.4869 35.0316 63.4015C35.0691 63.2236 35.1077 63.0463 35.1462 62.8691L35.1465 62.868L35.1469 62.8661C35.2726 62.2882 35.398 61.7123 35.4827 61.1264C35.523 60.8583 35.5606 60.5897 35.5982 60.321L35.5994 60.3122C35.6817 59.7233 35.7642 59.1335 35.8743 58.5463C36.1318 57.2911 36.3785 56.036 36.6199 54.7754C36.6175 54.7839 36.6155 54.7924 36.6135 54.8009C36.6074 54.8274 36.6029 54.8536 36.598 54.8785C36.5936 54.9008 36.5889 54.9222 36.5824 54.9417C36.7862 53.9547 37.0007 52.9677 37.1509 51.97C37.2076 51.595 37.2546 51.2192 37.3015 50.8436L37.3017 50.8426C37.3701 50.2944 37.4385 49.7462 37.5372 49.2022C37.564 49.0574 37.6015 48.9125 37.6391 48.7677C37.8214 48.2849 37.9823 47.8129 38.0789 47.298L38.272 46.1716C38.2918 46.0562 38.313 45.9413 38.3343 45.8267C38.3823 45.5682 38.43 45.3106 38.4598 45.0505C38.5187 44.6053 38.5456 44.1601 38.5724 43.7148L38.567 43.7202C38.5777 43.5593 38.5939 43.4037 38.6153 43.2428C38.669 43.1677 38.728 43.0873 38.787 43.0068C39.0444 42.6313 39.1785 42.1968 39.0552 41.7409C38.9908 41.5049 38.8728 41.301 38.7119 41.1401C38.3846 40.77 37.8644 40.6252 37.3708 40.7539ZM33.0458 46.8775C33.062 46.8682 33.0782 46.8588 33.0944 46.8494C33.6185 46.5469 34.1423 46.2446 34.6245 45.8712L35.767 44.9861C35.6893 45.5209 35.5883 46.0478 35.4937 46.577C35.4773 46.6688 35.4611 46.7607 35.4452 46.8528C35.4326 46.9047 35.4207 46.956 35.4088 47.0073L35.3976 47.0556L35.3838 47.1143L35.3704 47.1702C35.3585 47.2192 35.3461 47.2688 35.3325 47.3195C35.1716 47.7486 35.016 48.1723 34.9249 48.6282C34.8391 49.0681 34.7693 49.5133 34.7103 49.9693C34.6984 50.0561 34.6866 50.143 34.675 50.2298C34.6549 50.3799 34.6351 50.5301 34.6154 50.6801C34.5944 50.8402 34.5734 51.0001 34.5519 51.16C34.3548 50.5353 34.1754 49.8996 33.9647 49.2773C33.7811 48.7263 33.5672 48.1916 33.3537 47.6579C33.2498 47.3981 33.146 47.1386 33.0458 46.8775ZM34.0022 54.2518C33.4955 54.2249 33.0204 53.9116 32.8168 53.4183C32.8168 53.4075 32.8114 53.4022 32.8061 53.3861C32.8021 53.382 32.8011 53.3749 32.7962 53.367C32.7946 53.3645 32.7926 53.3619 32.79 53.3593C32.7567 53.326 32.7319 53.2927 32.7042 53.2556L32.6935 53.2413L32.7256 53.2735C32.5486 53.075 32.393 52.8765 32.2482 52.6459C32.1062 52.4213 32.0268 52.1342 31.9531 51.868C31.9406 51.8225 31.9282 51.7778 31.9157 51.734C31.8433 51.5007 31.7722 51.266 31.7011 51.0313C31.6301 50.7966 31.559 50.562 31.4866 50.3286C31.3207 49.8398 31.1407 49.3582 30.9464 48.8778C30.7286 49.5693 30.5197 50.2653 30.3165 50.9633C30.3351 50.9803 30.3532 50.9975 30.3709 51.0152C30.6766 51.321 30.8697 51.7501 31.0092 52.1685C31.1593 52.6191 31.3149 53.0643 31.4651 53.5148C31.6797 54.1371 31.9157 54.7593 32.1571 55.3762C32.5224 56.2972 32.877 57.2183 33.2208 58.1432C33.3105 57.6456 33.4151 57.1492 33.5196 56.6533L33.5232 56.6362L33.5266 56.6198L33.53 56.604L33.5685 56.4211L33.5985 56.2774C33.6268 56.1422 33.6547 56.0069 33.682 55.8717C33.6872 55.8395 33.6928 55.8063 33.7019 55.7731L33.682 55.8717C33.6795 55.8876 33.6771 55.9033 33.6745 55.9186C33.673 55.9275 33.6714 55.9362 33.6697 55.9447C33.7772 55.3795 33.889 54.8157 34.0022 54.2518ZM29.8398 56.8244C29.6034 56.2215 29.3757 55.6184 29.1528 55.0115L28.8366 56.0804C28.6881 56.5828 28.5403 57.0854 28.395 57.5888C28.4461 57.613 28.4958 57.6399 28.5438 57.6694C28.6249 57.7191 28.7013 57.776 28.7724 57.8382C28.8204 57.8862 28.8654 57.9373 28.9067 57.9904C28.9438 58.0383 28.9779 58.0879 29.0084 58.1386C29.0406 58.1923 29.0674 58.2405 29.0888 58.2942C29.2363 58.6239 29.3347 58.9817 29.4322 59.3364C29.4458 59.3857 29.4593 59.435 29.473 59.4841C29.4826 59.5185 29.4922 59.5527 29.5019 59.5869L29.5029 59.5903C29.5669 59.8145 29.6309 60.0386 29.6896 60.2574L30.1241 61.9471L30.2433 62.443C30.4885 63.4621 30.7332 64.4795 30.9502 65.5088C31.1261 66.3368 31.3432 67.1512 31.5603 67.9656L31.6311 68.2315C31.6617 68.3467 31.6923 68.4618 31.7226 68.577C31.7506 68.6813 31.7783 68.7858 31.8059 68.8903L31.8245 68.7969C31.9157 68.2337 31.9961 67.6705 32.0551 67.0965C32.0636 66.9424 32.0709 66.7882 32.0775 66.6339C32.0816 66.5383 32.0854 66.4428 32.0891 66.3472C32.093 66.2438 32.0968 66.1405 32.1007 66.037C32.1238 65.4113 32.1471 64.7841 32.2053 64.157C32.276 63.3966 32.4417 62.6435 32.6057 61.8975L32.606 61.8962L32.6068 61.8924L32.607 61.8917L32.6077 61.8883C32.6421 61.7323 32.6763 61.5767 32.7096 61.4214C32.7306 61.3056 32.7507 61.1898 32.77 61.0741C32.1379 61.2562 31.3846 60.9375 31.1486 60.2896C30.7302 59.131 30.3011 57.9723 29.8398 56.8244ZM31.1454 73.5664L31.1432 73.5976L31.0728 73.5554C31.0968 73.5598 31.121 73.5634 31.1454 73.5664ZM30.3594 73.1809C30.0928 73.063 29.8185 72.9596 29.5449 72.8566C29.2397 72.7415 28.9353 72.6268 28.6436 72.4927C28.3503 72.3409 28.0653 72.1833 27.7842 72.0196C27.8213 71.8304 27.8186 71.6315 27.7693 71.436C27.6781 71.0766 27.603 70.7225 27.5333 70.3525C27.2114 68.5609 26.8896 66.7801 26.5249 64.9992C26.5212 64.9811 26.5177 64.963 26.5142 64.9449L26.5067 64.9045C26.5311 64.8366 26.5532 64.7696 26.5731 64.7042C26.6782 64.3721 26.7602 64.0368 26.8424 63.7008L26.8702 63.5872C26.8837 63.5322 26.8973 63.4772 26.9111 63.4222C27.0271 62.961 27.133 62.4978 27.2388 62.0351L27.3029 61.7548C27.3883 62.0854 27.4718 62.4161 27.5548 62.7463C27.8444 63.9264 28.1287 65.1011 28.3754 66.2919C28.5408 67.0847 28.7497 67.8607 28.9598 68.6412C29.0155 68.8482 29.0713 69.0555 29.1264 69.2636C29.2108 69.5858 29.294 69.9085 29.3771 70.2311L29.3798 70.2419L29.3809 70.2461C29.5814 71.0248 29.7818 71.8029 30.0007 72.5731C30.0676 72.8097 30.1939 73.017 30.3594 73.1809ZM24.0467 66.2758L23.9871 65.9781C23.9634 65.9625 23.9399 65.9467 23.9166 65.9308C23.8971 65.9175 23.8778 65.9042 23.8585 65.8908L23.8401 65.8778L23.8054 65.8533C23.7794 65.8347 23.7534 65.8159 23.7276 65.7968C23.6998 65.7762 23.6721 65.7553 23.6444 65.7341C23.6033 65.7024 23.562 65.671 23.5204 65.6398C23.4792 65.6089 23.4377 65.5784 23.3962 65.5481C23.2882 65.4696 23.1793 65.3936 23.0704 65.321C23.0322 65.2955 22.992 65.2719 22.95 65.248C22.9213 65.2316 22.8917 65.215 22.8612 65.1976C22.8505 65.1922 22.841 65.1882 22.8316 65.1841L22.8237 65.1807L22.8136 65.1762L22.8022 65.1708C22.7417 65.1455 22.6811 65.1206 22.6205 65.0957C22.6265 65.2022 22.6329 65.3086 22.6392 65.4151C22.6454 65.5178 22.6516 65.6206 22.6574 65.7233C22.754 66.6244 22.8559 67.531 22.9953 68.4321C23.0226 68.6072 23.0106 68.7801 22.9667 68.9429C22.9942 68.9623 23.0216 68.9816 23.049 69.0007C23.3369 69.1848 23.6321 69.3595 23.9278 69.5345L23.9296 69.5356L24.0973 69.635C24.1637 69.6744 24.23 69.7139 24.2962 69.7537L24.3863 69.8079C24.503 69.8784 24.6191 69.9497 24.7344 70.0225C24.6659 69.6401 24.6011 69.2567 24.5364 68.8738C24.4709 68.4859 24.4055 68.0985 24.3364 67.7133L24.2972 67.5183L24.1924 66.9988C24.1438 66.7587 24.0952 66.5186 24.0467 66.2758ZM20.1317 67.2632L20.131 67.2628C19.9247 67.1443 19.7202 67.0204 19.5154 66.8963L19.4579 66.8615C19.3828 66.816 19.3075 66.7706 19.2321 66.7253C19.1839 66.4634 19.1371 66.2007 19.0902 65.9379L19.0894 65.9335C18.956 65.1854 18.8224 64.4359 18.6559 63.6957C18.6489 63.664 18.6421 63.6318 18.6353 63.5991C18.8536 63.6871 19.0733 63.7713 19.2942 63.8513C19.4403 63.904 19.5866 63.9566 19.7327 64.0091L19.7342 64.0096L19.8962 64.0679C19.8921 64.2821 19.9045 64.4967 19.9164 64.6988C19.921 64.7742 19.9251 64.8497 19.9289 64.9253C19.9327 65.0003 19.9363 65.0754 19.9399 65.1506L19.948 65.3185L19.954 65.4368C19.9647 65.6393 19.9775 65.8422 19.9969 66.0452C20.0398 66.4507 20.0838 66.8574 20.1317 67.2632ZM15.6896 62.8107C15.4487 62.5895 15.2933 62.2915 15.2691 61.9459C15.1406 61.8727 15.0127 61.7986 14.8851 61.7237L14.7754 61.659L14.7017 61.6153L14.6153 61.5638L14.6213 61.6798C14.6266 61.7778 14.6323 61.8758 14.6383 61.9739C14.6536 62.1792 14.6715 62.3821 14.6906 62.5849C14.7035 62.7216 14.717 62.8584 14.7307 62.9957L14.7562 63.2505C14.7987 63.6326 14.6784 64.0042 14.4473 64.2835C14.5482 64.335 14.6493 64.3858 14.7509 64.436C15.2117 64.6614 15.6705 64.897 16.1298 65.1326L16.2177 65.1777L16.0651 64.377C15.9524 63.8567 15.8398 63.3363 15.6949 62.8267C15.6949 62.8267 15.6949 62.8255 15.6947 62.8236C15.6946 62.8221 15.6943 62.8203 15.6937 62.8183C15.6932 62.8167 15.6926 62.815 15.6917 62.8134C15.6911 62.8125 15.6904 62.8115 15.6896 62.8107ZM12.0325 62.9629C11.5848 62.7213 11.1268 62.4962 10.6703 62.2719L10.669 62.2712C10.4393 62.1583 10.2098 62.0455 9.98228 61.931C9.5585 61.7218 9.14013 61.4965 8.73249 61.2605C9.27714 60.91 9.81181 60.5496 10.3495 60.1871C10.495 60.089 10.6407 59.9908 10.7869 59.8926C10.7981 59.8846 10.8094 59.8768 10.8206 59.8692C10.8283 59.864 10.8361 59.8587 10.8438 59.8537C10.8606 59.8426 10.8773 59.8319 10.8939 59.8214C10.9325 59.7968 10.9704 59.773 11.0068 59.7478C11.0229 59.7317 11.039 59.7264 11.0604 59.7156C11.0497 59.7264 11.0283 59.7371 11.0122 59.7532C11.1422 59.7073 11.264 59.6423 11.3758 59.5563C11.4507 59.602 11.5256 59.6479 11.6004 59.694C11.644 59.7208 11.6875 59.7477 11.7309 59.7746L11.8186 59.8284L11.9186 59.89C11.9057 60.0538 11.9026 60.2177 11.9026 60.3754C11.9044 60.4845 11.9044 60.5943 11.9044 60.7044C11.9044 60.9244 11.9044 61.1462 11.9187 61.3678C11.9341 61.6736 11.9531 61.9776 11.9757 62.2812C11.9846 62.4013 11.9941 62.5213 12.0042 62.6414C12.0132 62.7485 12.0227 62.8556 12.0325 62.9629ZM11.5754 32.2412C11.5217 30.9217 11.5432 29.6129 11.6183 28.2933C11.7631 26.3891 11.908 24.4849 12.1923 22.6022C12.5517 20.7623 13.0183 18.9439 13.5762 17.1523C13.8903 16.2982 14.2358 15.4667 14.5841 14.6288L14.5849 14.627L14.6811 14.3952C14.75 14.229 14.8186 14.0627 14.8871 13.8966L14.8883 13.8938C15.2196 13.0906 15.5498 12.29 15.9095 11.504C16.344 10.6726 16.816 9.86799 17.3203 9.07413C17.921 8.19443 18.5379 7.34154 19.1601 6.48331C19.4819 6.04343 19.7984 5.58757 20.1095 5.13698C20.1467 5.08289 20.1838 5.02835 20.2208 4.97358L20.3125 4.83751L20.3283 4.8141C20.4906 4.57288 20.6544 4.3295 20.8283 4.09636C20.9946 4.26264 21.1609 4.42893 21.3325 4.58984C21.6704 4.91704 22.003 5.23886 22.3678 5.54998C22.5725 5.72592 22.7866 5.88946 23.0008 6.05309C23.185 6.19377 23.3693 6.33455 23.5478 6.48335C23.6039 6.53494 23.6601 6.58648 23.7165 6.63794L23.822 6.73423C23.9309 6.8333 24.0401 6.93227 24.1493 7.03127L24.1516 7.03343C24.6272 7.46451 25.1038 7.89667 25.5593 8.34464C25.8135 8.59499 26.0716 8.84139 26.3295 9.08756L26.3347 9.09257L26.3357 9.09355C26.8105 9.54679 27.2846 9.99928 27.7318 10.4742C27.8755 10.6495 28.0181 10.8259 28.1608 11.0026C28.4549 11.3664 28.7497 11.7312 29.0567 12.0887C29.1431 12.1872 29.2305 12.2851 29.3185 12.3827C29.4985 12.5822 29.6812 12.7801 29.8642 12.9785L29.8654 12.9797L29.8694 12.9841C30.073 13.2046 30.277 13.4257 30.4781 13.6496C31.3685 14.6687 32.2965 15.6397 33.2352 16.6105L34.3617 17.737C34.0077 17.8228 33.6536 17.9301 33.321 18.0696C32.0122 18.5952 30.7785 19.2925 29.5877 20.0435C29.4847 20.1094 29.3814 20.1749 29.2779 20.2404L29.0145 20.4065L29.0123 20.4079C28.6051 20.6645 28.1969 20.9218 27.7961 21.1914C27.1739 21.6098 26.5838 22.0603 26.0045 22.5431C24.8061 23.5491 23.9142 24.8875 23.0462 26.1904L23.0385 26.202L22.9068 26.3996C22.854 26.4786 22.8013 26.5573 22.7486 26.6359L22.6662 26.7581L22.5741 26.8949C22.509 26.9919 22.4439 27.0891 22.3789 27.1864L22.2792 27.3359L22.1259 27.5661C22.0212 27.7236 21.9164 27.8815 21.8115 28.0397L21.5471 28.4382L21.4845 28.532C21.1396 29.049 20.7881 29.5759 20.4796 30.1171C20.0076 30.9646 19.557 31.8121 19.2459 32.7347C18.9723 33.5554 18.8382 34.4083 18.8168 35.2773C18.8061 35.878 18.8865 36.4734 18.967 37.0688C19.1011 38.0826 19.4122 39.1125 19.8789 40.0298C20.1471 40.5554 20.426 41.0704 20.8176 41.5049C21.0643 41.7731 21.3432 42.0091 21.6436 42.2129C21.9654 42.4275 22.298 42.5455 22.6735 42.5991C23.0137 42.6518 23.371 42.5847 23.7148 42.52C23.7559 42.5123 23.7968 42.5046 23.8375 42.4972C24.1754 42.4275 24.508 42.3524 24.8352 42.2612C25.283 42.1358 25.7236 41.9745 26.1618 41.8141C26.3798 41.7343 26.5971 41.6547 26.8145 41.5799C26.7555 41.596 26.7018 41.6175 26.6482 41.6282C27.0217 41.5079 27.3998 41.3998 27.7778 41.2919C28.3935 41.1161 29.0089 40.9403 29.6038 40.711C30.2889 40.4443 30.9382 40.1011 31.5817 39.761L31.6314 39.7347C31.5456 39.9278 31.4597 40.1209 31.3632 40.3141L31.362 40.3168C30.7832 41.5923 30.204 42.8685 29.7164 44.1815C29.1908 45.5869 28.7026 46.9976 28.2467 48.419C27.8283 49.7386 27.4582 51.0635 27.0881 52.3884C26.8568 53.2058 26.6119 54.0173 26.3671 54.8284L26.3665 54.8303L26.3648 54.8359C26.0368 55.9225 25.709 57.0083 25.4145 58.1064C25.157 59.072 24.9157 60.0429 24.6796 61.0084C24.6223 61.2543 24.5672 61.5009 24.5122 61.7477C24.4875 61.8586 24.4627 61.9694 24.4378 62.0803C24.3728 62.3689 24.3063 62.6573 24.2344 62.9448C23.8589 62.7409 23.4727 62.58 23.0597 62.4137C22.6749 62.2603 22.2889 62.1151 21.9022 61.9732C21.7622 61.9218 21.6221 61.8709 21.482 61.8201L21.1162 61.688C20.9398 61.6243 20.7634 61.5606 20.5869 61.4965C19.6643 61.1639 18.7685 60.7723 17.8835 60.3486C16.9823 59.8766 16.1026 59.3723 15.2283 58.8413C14.8737 58.624 14.5231 58.3989 14.1726 58.1738L14.1696 58.1721C13.6992 57.87 13.2291 57.5682 12.7501 57.2857C12.5716 57.1804 12.3932 57.0741 12.2145 56.9678C11.5016 56.5435 10.7854 56.1172 10.052 55.7355C9.52098 55.4512 8.97925 55.1884 8.42674 54.9363C8.16931 54.8198 7.91074 54.7109 7.65252 54.6021L7.64751 54.6001L7.6461 54.5995C7.33629 54.4691 7.02704 54.3389 6.72099 54.1961C6.05586 53.8635 5.42825 53.4612 4.7953 53.0536C4.8745 53.0272 4.955 52.9994 5.03489 52.9711C5.08842 52.952 5.14168 52.9328 5.1941 52.9133L5.23031 52.8999L5.27807 52.8819C5.90565 52.6405 6.51713 52.3831 7.11255 52.0773C7.24963 52.0069 7.38671 51.9354 7.52382 51.8632C7.68411 51.7789 7.84437 51.6937 8.0046 51.6085L8.35661 51.4217L8.51523 51.3381C8.5797 51.3042 8.64413 51.2705 8.70856 51.2369L8.79434 51.1924L8.89877 51.1386C9.83482 50.6399 10.7922 50.1699 11.7449 49.7022L11.7482 49.7006L12.0542 49.5503C12.1665 49.4951 12.2787 49.4398 12.3907 49.3846C12.8775 49.1411 13.3493 48.875 13.8218 48.6084C13.9115 48.5578 14.0012 48.5071 14.0911 48.4566C14.1466 48.426 14.2017 48.3946 14.2563 48.3626C14.3152 48.3281 14.3736 48.2928 14.4316 48.2569C14.4572 48.2412 14.4827 48.2253 14.5082 48.2093L14.5619 48.1754L14.5894 48.1579C14.6494 48.1197 14.709 48.0811 14.7685 48.0422C14.8212 48.0079 14.8737 47.9735 14.9263 47.939L14.927 47.9385L14.9311 47.9357L14.9319 47.9352C15.1114 47.8175 15.2911 47.6996 15.475 47.5876C15.7701 47.5179 16.0383 47.357 16.2313 47.0995C16.6806 46.5159 16.5432 45.7533 16.0393 45.2714C16.0651 45.2931 16.0919 45.3139 16.1187 45.3348C15.9524 45.1792 15.7808 45.029 15.5877 44.911C15.5492 44.8865 15.5096 44.8643 15.4692 44.844C15.4442 44.8314 15.4188 44.8196 15.3932 44.8084C15.3336 44.7822 15.2729 44.7596 15.2122 44.7393C14.9225 44.3853 14.6651 44.0206 14.4076 43.6451C14.2091 43.3286 14.0267 43.0068 13.8497 42.6689C13.6245 42.1539 13.4313 41.639 13.2436 41.1079C12.7716 39.6167 12.4551 38.088 12.144 36.5539C12.1601 36.6129 12.1655 36.6719 12.1815 36.7202C11.9348 35.2397 11.7149 33.7539 11.5754 32.2412Z" fill="#16BAC5"/>
<path d="M23.6382 30.1019L23.5823 30.186L23.5747 30.1976C23.5898 30.1774 23.6049 30.1549 23.62 30.1311C23.6261 30.1216 23.6322 30.1117 23.6382 30.1019Z" fill="#16BAC5"/>
</svg>
