<svg width="148" height="148" viewBox="0 0 148 148" fill="none" xmlns="http://www.w3.org/2000/svg">
<rect width="103.673" height="103.673" transform="translate(0.53125 74.1255) rotate(-45)" fill="#16BAC5"/>
<path fill-rule="evenodd" clip-rule="evenodd" d="M48.8997 74.0098L32 68.8609L74.1579 32.0002L77.005 49.436L84.0313 43.2925L86.8784 60.7283L103.778 65.8772L96.7518 72.0206L113.651 77.1695L71.4936 114.03L68.6465 96.5944L61.6202 102.738L58.7731 85.3021L41.8734 80.1532L48.8997 74.0098ZM53.2688 51.593L34.0133 68.4289L49.7864 73.2345L55.926 67.8663L53.2688 51.593ZM76.1183 50.2112L69.9787 55.5794L54.2056 50.7738L73.4611 33.9379L76.1183 50.2112ZM76.3082 51.3736L77.3622 57.829L71.1053 55.9227L76.3082 51.3736ZM78.4285 58.1539L77.1948 50.5984L83.3345 45.2302L85.8121 60.4034L78.4285 58.1539ZM77.5419 58.9291L70.2187 56.6979L64.079 62.0661L78.7858 66.5469L77.5419 58.9291ZM79.8521 66.8717L78.6082 59.254L85.9917 61.5035L87.2356 69.1213L79.8521 66.8717ZM78.9654 67.647L64.1983 63.1479L66.6861 78.3834L81.4532 82.8825L78.9654 67.647ZM65.6198 78.0585L63.1422 62.8853L57.0025 68.2535L58.2362 75.8089L65.6198 78.0585ZM58.4159 76.9091L65.7994 79.1586L67.0433 86.7764L59.6598 84.5268L58.4159 76.9091ZM57.3496 76.5842L58.5935 84.202L43.8867 79.7212L50.0264 74.353L57.3496 76.5842ZM57.1699 75.4841L50.913 73.5778L56.1158 69.0287L57.1699 75.4841ZM66.8657 79.4835L81.5725 83.9642L75.4328 89.3324L68.1096 87.1013L66.8657 79.4835ZM82.5093 83.1451L80.0317 67.9718L87.4153 70.2214L88.649 77.7769L82.5093 83.1451ZM76.5595 89.6757L91.3266 94.1748L88.8388 78.9393L76.5595 89.6757ZM54.3249 51.8555L69.092 56.3547L56.8127 67.0911L54.3249 51.8555ZM59.8394 85.6269L67.223 87.8765L68.4567 95.432L62.317 100.8L59.8394 85.6269ZM74.5462 90.1077L68.2893 88.2014L69.3433 94.6567L74.5462 90.1077ZM72.1904 112.092L69.5332 95.8191L75.6728 90.4509L91.4459 95.2565L72.1904 112.092ZM95.8651 72.7958L111.638 77.6014L92.3827 94.4374L89.7255 78.164L95.8651 72.7958ZM88.4816 70.5463L94.7385 72.4526L89.5357 77.0017L88.4816 70.5463ZM95.6251 71.6773L88.3019 69.4462L87.058 61.8284L101.765 66.3091L95.6251 71.6773Z" fill="url(#paint0_radial_16_628)"/>
<defs>
<radialGradient id="paint0_radial_16_628" cx="0" cy="0" r="1" gradientUnits="userSpaceOnUse" gradientTransform="translate(72.8258 73.0152) rotate(13.4405) scale(46.6154 43.5078)">
<stop stop-color="white"/>
<stop offset="1" stop-color="white" stop-opacity="0.2"/>
</radialGradient>
</defs>
</svg>
