<svg width="48" height="69" viewBox="0 0 48 69" fill="none" xmlns="http://www.w3.org/2000/svg">
<path d="M8.67927 23.6851L8.62713 23.7613L8.63516 23.7511C8.65282 23.7288 8.6673 23.7106 8.67927 23.6851Z" fill="#16BAC5"/>
<path fill-rule="evenodd" clip-rule="evenodd" d="M20.1396 0.915261C19.3715 1.04804 18.6018 1.20556 17.8321 1.36308C17.5418 1.41906 17.2547 1.4872 17.0115 1.54491L17.0101 1.54525L16.9281 1.56469C16.7454 1.61366 16.5631 1.66455 16.3818 1.71517L16.3807 1.7155C16.2017 1.76547 16.0236 1.81518 15.8469 1.86252C15.1122 2.0594 14.6685 2.82777 14.8654 3.56255C15.0623 4.29732 15.8383 4.73892 16.5655 4.54407C17.1412 4.38981 17.7264 4.24109 18.3117 4.09238C18.6974 3.99547 19.0834 3.91885 19.4723 3.84168C19.5743 3.82144 19.6764 3.80116 19.7788 3.78047C19.9709 3.74625 20.1632 3.7118 20.3555 3.67733C22.3358 3.32247 24.3305 2.96503 26.3428 2.82542C27.2 2.78247 28.0542 2.78903 28.907 2.82034L29.016 2.83171C29.2672 2.85797 29.5288 2.88532 29.7815 2.90265C29.8829 2.91193 29.9854 2.91921 30.0886 2.92655C30.307 2.94209 30.5287 2.95787 30.7475 2.99292C30.9528 3.0248 31.1585 3.05497 31.364 3.08511C31.811 3.1507 32.2575 3.2162 32.6967 3.29873L32.6931 3.29664L32.6973 3.29788C32.6991 3.29843 32.7011 3.29902 32.7032 3.29961C32.7064 3.30052 32.71 3.30144 32.7139 3.30224C32.716 3.30982 32.7236 3.3078 32.7236 3.3078C32.7483 3.30928 32.775 3.31831 32.8017 3.32736L32.8534 3.33795L32.8495 3.3384C32.8467 3.33838 32.8439 3.33779 32.841 3.3372C32.8367 3.33632 32.8324 3.33543 32.8286 3.33645C33.6038 3.50222 34.3643 3.7044 35.1218 3.95607C35.5276 4.10714 35.9203 4.26982 36.3191 4.45524C36.7452 4.68205 37.1658 4.91848 37.5753 5.17411C37.8756 5.38592 38.1684 5.59976 38.45 5.83281C38.844 6.18191 39.2117 6.55426 39.5587 6.94029C40.0514 7.50649 40.5123 8.10556 40.9373 8.72236C41.5092 9.58399 42.0018 10.4831 42.4985 11.3974L42.5157 11.4345C42.9212 12.3109 43.3238 13.181 43.6513 14.0926C43.6598 14.1222 43.6694 14.1515 43.6822 14.18C43.6838 14.1854 43.6854 14.1909 43.6869 14.1965L43.693 14.2193C43.9379 14.9818 44.1429 15.7468 44.31 16.522C44.4438 17.2332 44.5355 17.9393 44.5894 18.6555C44.6282 19.3758 44.6174 20.0932 44.5688 20.8206C44.5731 20.7911 44.5754 20.762 44.5778 20.733C44.5801 20.704 44.5825 20.6749 44.5867 20.6453C44.4957 21.7902 44.3359 22.9209 44.117 24.0431C43.8362 25.3281 43.4845 26.5914 43.0698 27.8311C43.0007 28.0119 42.9319 28.1929 42.8631 28.3739C42.2468 29.994 41.6298 31.6162 40.8656 33.1793C40.5269 33.8546 40.1615 34.5208 39.7556 35.1573C38.9695 36.319 38.057 37.4025 37.15 38.4794C37.0505 38.5976 36.951 38.7157 36.8518 38.8338C36.6434 39.0561 36.4375 39.2797 36.2315 39.5034C36.0255 39.727 35.8196 39.9507 35.6112 40.173C34.9795 40.8456 34.3247 41.492 33.6369 42.1066C33.6594 42.081 33.6853 42.0574 33.7122 42.0329C33.73 42.0168 33.7482 42.0003 33.766 41.9826C33.1155 42.5547 32.4474 43.091 31.7367 43.5899C30.9654 44.1051 30.1587 44.5486 29.3308 44.9734C29.1008 45.0837 28.8701 45.1943 28.6381 45.2971C28.8454 44.9311 29.036 44.5504 29.2261 44.1707C29.3392 43.9447 29.4522 43.7191 29.5684 43.4971C29.7044 43.23 29.8297 42.9536 29.9553 42.6764C30.0066 42.5633 30.0579 42.4499 30.1101 42.3371C30.1581 42.2369 30.2082 42.1362 30.2586 42.0349C30.3723 41.8065 30.4873 41.5754 30.5822 41.3419C30.6783 41.0953 30.7798 40.8512 30.8812 40.6072C31.0743 40.1426 31.2671 39.6789 31.4213 39.201C31.4868 39.0053 31.5548 38.809 31.623 38.6121C31.7942 38.1178 31.9668 37.6194 32.1053 37.1179C32.1543 36.9415 32.204 36.7654 32.2535 36.5893C32.5047 35.6976 32.755 34.8091 32.9319 33.9006C33.295 32.074 33.3942 30.1719 33.1369 28.3329C32.9535 27.0425 32.7646 25.7616 32.365 24.5128C32.0998 23.6746 31.8063 22.852 31.4674 22.0417C30.8589 20.5891 30.1631 19.1436 29.1927 17.8854C28.0103 16.3511 26.5231 15.0122 24.7626 14.1687C22.9829 13.3141 21.0124 12.9896 19.0465 13.1672C17.0882 13.3428 15.1082 13.9221 13.4232 14.9663C12.6701 15.4279 11.9503 15.9536 11.2908 16.5525C10.9671 16.8583 10.6338 17.1585 10.3005 17.4587L10.2997 17.4594C9.25619 18.4129 8.30075 19.5133 7.47164 20.661L7.34227 20.8408C6.60416 21.8666 5.86573 22.8929 5.2681 24.0118C4.3054 25.8124 3.70454 27.7514 3.39021 29.7598C3.05681 31.8788 2.97704 34.0354 3.37208 36.146C3.75697 38.2187 4.37629 40.3179 5.49284 42.1215C6.4864 43.7389 7.75104 45.1862 9.34002 46.2381C10.25 46.8467 11.261 47.3471 12.2819 47.7636C13.1744 48.1253 14.0857 48.4657 15.0069 48.7222C17.0368 49.2987 19.1361 49.5887 21.2456 49.5836L21.3708 49.5821C21.7404 49.5778 22.1049 49.5735 22.4721 49.5554C22.2285 49.8638 21.9836 50.1675 21.7357 50.4749L21.5349 50.7239C21.1325 51.1884 20.7225 51.6549 20.3126 52.1214L20.3106 52.1237C20.018 52.4543 19.7107 52.7734 19.4027 53.0932C19.2646 53.2366 19.1263 53.3802 18.9892 53.525C18.2645 54.2981 17.4844 55.0247 16.7083 55.7474C16.5918 55.8559 16.4755 55.9643 16.3594 56.0727C16.1474 56.2513 15.9374 56.4293 15.7273 56.6074C15.5172 56.7855 15.3072 56.9635 15.0952 57.1421C14.8353 57.3576 14.557 57.5546 14.2783 57.7519C14.1226 57.8622 13.9667 57.9725 13.8138 58.0863C12.8487 58.7264 11.8739 59.3611 10.8836 59.9675C10.8297 59.9332 10.7778 59.8984 10.7258 59.8636C10.6739 59.8288 10.6219 59.794 10.5681 59.7597C10.1793 59.4904 9.80567 59.2171 9.44866 58.9149C9.11641 58.6142 8.80487 58.2999 8.49886 57.9759C8.22924 57.6666 7.97273 57.3456 7.72732 57.0054C7.46557 56.6064 7.23145 56.1891 6.99664 55.7706C6.82516 55.4649 6.65318 55.1584 6.46991 54.858C6.03157 54.1311 5.40858 53.1695 4.45736 53.1646C3.64303 53.1555 3.0245 53.8164 2.91581 54.5925C2.84414 55.1134 2.84928 55.6406 2.8544 56.1641C2.85557 56.2844 2.85675 56.4045 2.85698 56.5243C2.86103 57.1813 2.81664 57.8375 2.77276 58.4861L2.76152 58.6527C2.68001 59.3484 2.58486 60.0234 2.46899 60.7121C2.27103 61.6095 2.02913 62.4943 1.78721 63.3791C1.66902 63.8167 1.55285 64.2619 1.52055 64.7171C1.50758 64.8505 1.51937 64.9853 1.53669 65.1106L1.47608 65.1268C1.41751 65.1506 1.34934 65.1689 1.28874 65.1851L1.19784 65.2095C0.461039 65.3988 0.021462 66.1823 0.216314 66.9095C0.392899 67.5685 1.04915 68.0178 1.73051 67.9246C1.75898 67.9251 1.78556 67.926 1.81214 67.927C1.83878 67.928 1.86561 67.929 1.89415 67.9295C2.22836 67.9556 2.5623 67.9822 2.8961 68.0088L2.89842 68.009C4.06291 68.1019 5.22597 68.1946 6.39304 68.2665C7.61572 68.342 8.84584 68.381 10.0739 68.4199C10.3051 68.4273 10.5363 68.4346 10.7674 68.4422C11.7606 68.4758 12.756 68.4734 13.7522 68.471C14.1859 68.47 14.6198 68.469 15.0537 68.4709C15.2899 68.4716 15.5268 68.474 15.7642 68.4765C16.7927 68.4871 17.8295 68.4979 18.8489 68.3633C19.4222 68.2909 19.8414 67.8863 20.0151 67.3526C20.0131 67.345 20.0186 67.3354 20.0186 67.3354C20.1832 66.8285 19.9626 66.1569 19.5182 65.862C19.3335 65.7382 19.1407 65.6383 18.9479 65.5384C18.8516 65.4884 18.7553 65.4385 18.6599 65.3856C18.5755 65.339 18.4903 65.2925 18.4048 65.2459C18.2295 65.1505 18.0526 65.0542 17.8784 64.9536C17.569 64.7798 17.271 64.5799 16.9743 64.3809C16.877 64.3156 16.7797 64.2503 16.6823 64.1862C16.5469 64.087 16.4111 63.9886 16.2756 63.8903C15.9156 63.6293 15.5576 63.3697 15.2145 63.1019C15.0194 62.9519 14.8252 62.8004 14.6308 62.6487C14.3257 62.4108 14.0199 62.1724 13.7093 61.9383C13.6534 61.8964 13.5951 61.8531 13.5368 61.8099C13.4785 61.7666 13.4203 61.7234 13.3644 61.6815C13.8914 61.3455 14.424 60.9998 14.9469 60.6486L14.9476 60.6481C15.235 60.4494 15.5225 60.2507 15.8004 60.0464C15.9087 59.966 16.0194 59.8876 16.1301 59.8092C16.3515 59.6525 16.573 59.4957 16.7755 59.3224C16.9279 59.1939 17.082 59.067 17.2362 58.9399L17.2371 58.9391C17.6255 58.6192 18.0152 58.2981 18.3808 57.9505C18.4814 57.8562 18.5821 57.7621 18.6827 57.6681L18.6837 57.6672C19.1409 57.2401 19.5974 56.8137 20.0434 56.3683C21.1791 55.244 22.2553 54.0788 23.3136 52.8778C24.3216 51.7309 25.2294 50.5134 26.1236 49.2752C26.1754 49.1965 26.2348 49.1157 26.2943 49.0349C26.7225 48.9364 27.145 48.8148 27.5707 48.6764C28.5715 48.3513 29.5293 47.9567 30.4688 47.4938C31.3291 47.0685 32.1909 46.6184 32.9808 46.0819C33.8535 45.4909 34.6666 44.8589 35.4559 44.1684C36.0276 43.6661 36.6049 43.1542 37.1205 42.5939C37.6923 41.9794 38.2697 41.3553 38.847 40.7311L38.8525 40.7253C39.2299 40.3156 39.5799 39.8844 39.9298 39.4532C40.1048 39.2377 40.2798 39.0221 40.4581 38.8093C41.523 37.5416 42.4453 36.1659 43.1926 34.6829C43.8422 33.3803 44.4095 32.043 44.9307 30.6855C45.0021 30.4963 45.0741 30.3075 45.1461 30.1187C45.4762 29.2531 45.8059 28.3886 46.0736 27.4971C46.6864 25.4818 47.1401 23.3873 47.2967 21.2751C47.3702 20.2162 47.4038 19.1598 47.308 18.1057C47.2204 17.0818 47.053 16.0631 46.8043 15.0743C46.5434 14.0401 46.2123 13.0165 45.7999 12.0228C45.6354 11.6207 45.4481 11.2246 45.2609 10.8286L45.2605 10.8278C44.9239 10.1 44.5414 9.39984 44.1557 8.69364L44.1182 8.62512C43.7431 7.92188 43.2962 7.25409 42.8251 6.61714C42.2762 5.87117 41.6893 5.13534 41.0333 4.47487C39.6247 3.06615 37.9257 2.02754 36.0502 1.36095C34.6761 0.868552 33.2618 0.589884 31.8218 0.366814C31.0513 0.248516 30.2854 0.177718 29.5044 0.11096C28.8299 0.0481154 28.1484 0.0196148 27.4695 0.0310338C26.5718 0.044236 25.6535 0.0710944 24.7615 0.196435C23.2109 0.408945 21.674 0.642152 20.1396 0.915261ZM43.6815 14.1774L43.6829 14.1814L43.6822 14.18L43.6815 14.1774ZM43.6815 14.1774C43.6757 14.1582 43.6692 14.14 43.6628 14.1218C43.6543 14.0977 43.6459 14.0736 43.6387 14.0471C43.6428 14.0623 43.6469 14.0775 43.6513 14.0926C43.6566 14.1076 43.662 14.1226 43.6673 14.1376C43.6721 14.1508 43.6768 14.1641 43.6815 14.1774ZM26.9911 42.3947C26.5558 43.2305 26.1223 44.0629 25.6425 44.8738C25.3077 45.4425 24.9593 45.9905 24.5785 46.5391C23.9714 46.6368 23.3583 46.7118 22.7446 46.7544C21.7525 46.8092 20.7689 46.8048 19.7808 46.7529C19.7862 46.756 19.7933 46.7561 19.8016 46.7562C19.808 46.7563 19.8152 46.7564 19.8227 46.7579L19.7485 46.7535C19.7425 46.75 19.7374 46.7495 19.7302 46.7488C19.7258 46.7483 19.7207 46.7478 19.7141 46.7465C18.8436 46.6793 17.9761 46.5626 17.1192 46.3944C16.2486 46.2055 15.3961 45.9631 14.5466 45.6711C14.5678 45.6741 14.5887 45.6794 14.6091 45.6858L14.6898 45.7146C14.6982 45.7176 14.7066 45.7206 14.7148 45.7234L14.6898 45.7146L14.6711 45.7076C14.6508 45.7 14.6301 45.6924 14.6091 45.6858C13.7847 45.391 12.9735 45.0638 12.1889 44.681C11.7205 44.4441 11.2623 44.1897 10.8189 43.9095C10.509 43.6922 10.2217 43.4687 9.94008 43.2357C9.65437 42.9875 9.38936 42.7256 9.13746 42.4521C8.78437 42.0434 8.45956 41.6189 8.14786 41.1828C7.88418 40.7744 7.63567 40.362 7.41338 39.9264C7.16119 39.4094 6.94684 38.8822 6.75322 38.3414C6.51035 37.5865 6.30332 36.8139 6.13417 36.0311L6.12605 36.0008L26.9911 42.3947ZM8.67927 23.6851C8.68111 23.6812 8.68288 23.6771 8.6846 23.6728C8.23935 24.3442 7.82845 25.0226 7.45597 25.7232C7.21307 26.2105 7.00654 26.7124 6.81923 27.2253C6.59474 27.9025 6.41218 28.5847 6.25844 29.2835C6.07063 30.2188 5.94953 31.1605 5.87034 32.1073C5.83523 32.7337 5.8304 33.3521 5.86198 33.985C5.91326 34.6607 6.00233 35.3264 6.12369 35.9914L26.9911 42.3947L27.1148 42.1573C27.2492 41.8686 27.384 41.5815 27.5184 41.2955C27.6777 40.9565 27.8362 40.619 27.9925 40.2821C28.0911 40.072 28.1744 39.8499 28.2572 39.6289C28.2916 39.5372 28.3259 39.4455 28.3612 39.3552L28.7555 38.3727C29.3007 36.7409 29.819 35.1 30.1807 33.4199C30.2927 32.8378 30.3779 32.2467 30.4307 31.6561C30.4758 30.9458 30.4734 30.2401 30.4367 29.5273C30.3777 28.7313 30.2843 27.9282 30.1378 27.1393C29.9798 26.3373 29.7707 25.5571 29.5121 24.7739C29.129 23.7074 28.7175 22.6567 28.2248 21.6359C27.922 21.0512 27.6006 20.4879 27.2357 19.9442C26.9883 19.5965 26.7297 19.2679 26.4485 18.9455C26.1268 18.5933 25.7844 18.2547 25.4329 17.9429C25.1184 17.6781 24.8024 17.438 24.4636 17.204C24.1714 17.0225 23.8737 16.8506 23.5724 16.6959C23.2752 16.5563 22.9841 16.4395 22.6854 16.3247C22.3736 16.2215 22.0679 16.141 21.749 16.0722C21.415 16.0074 21.0776 15.9598 20.7366 15.9294C20.3329 15.9077 19.9353 15.9087 19.5267 15.9289C19.0498 15.9673 18.5771 16.0209 18.1048 16.1069C17.6367 16.208 17.1822 16.3297 16.7338 16.4742C16.3046 16.6299 15.8966 16.8041 15.4852 16.9955C15.0853 17.2001 14.7012 17.4329 14.3342 17.6693C13.9375 17.9461 13.564 18.2491 13.1906 18.5522C13.0435 18.6849 12.8983 18.8172 12.7531 18.9495C12.6079 19.0818 12.4627 19.214 12.3156 19.3468C11.7484 19.8588 11.2173 20.4215 10.7048 20.9959C10.7243 20.9746 10.7448 20.953 10.7671 20.9308C10.0223 21.8104 9.3289 22.7378 8.67927 23.6851ZM12.1719 44.6727C12.1523 44.6626 12.1324 44.6527 12.1114 44.643L12.1719 44.6727Z" fill="#16BAC5"/>
<path d="M32.6836 3.31037C32.676 3.3124 32.6685 3.31441 32.6665 3.30684C32.6665 3.30684 32.676 3.3124 32.6836 3.31037Z" fill="#16BAC5"/>
<path d="M32.6857 3.31797C32.6905 3.32075 32.6948 3.32163 32.6991 3.3225C32.7034 3.32337 32.7077 3.32424 32.7125 3.32702C32.7049 3.32905 32.6953 3.32352 32.6857 3.31797Z" fill="#16BAC5"/>
</svg>
