<svg width="108" height="38" viewBox="0 0 108 38" fill="none" xmlns="http://www.w3.org/2000/svg">
<g clip-path="url(#clip0_360_11132)">
<rect width="37" height="37" rx="18.5" transform="matrix(1 0 0 -1 0 37.5)" fill="#1873F2"/>
<path d="M8.37825 45.9862C14.0452 40.3193 19.0873 37.0102 20.5786 27.7642C22.0698 18.5182 19.6838 19.413 33.1054 4.50009" stroke="white" stroke-width="2"/>
<path d="M28.4456 49.7915C30.5199 42.0504 33.2319 36.6636 29.9004 27.9107C26.5689 19.1578 24.9499 21.1257 29.1169 1.49996" stroke="white" stroke-width="2"/>
<path d="M9.31317 -7.48452C8.2524 0.459166 6.25615 6.15021 10.6864 14.4016C15.1166 22.653 16.4689 20.4931 14.8622 40.4919" stroke="white" stroke-width="2"/>
<path d="M0.262015 45.9723C4.26912 39.0318 8.28297 34.5305 7.33041 25.2136C6.37785 15.8966 4.30468 17.3785 13.4092 -0.500017" stroke="white" stroke-width="2"/>
</g>
<path d="M82.4902 31.5H68.9727V30.1289C69.3711 30.0938 69.8574 30.0352 70.4316 29.9531C71.0176 29.8711 71.416 29.7832 71.627 29.6895C72.0605 29.5137 72.3711 29.2734 72.5586 28.9688C72.7461 28.6641 72.8398 28.2773 72.8398 27.8086V9.17578L64.2617 31.0957H62.0469C61.9414 30.709 61.6777 29.9414 61.2559 28.793C60.8457 27.6445 60.5117 26.7246 60.2539 26.0332L53.9434 8.89453V24.0645C53.9434 25.5176 54.0371 26.625 54.2246 27.3867C54.4238 28.1367 54.7402 28.6875 55.1738 29.0391C55.4668 29.2852 55.9883 29.5195 56.7383 29.7422C57.5 29.9648 58.0332 30.0938 58.3379 30.1289V31.5H47.6152V30.1289C47.9082 30.0938 48.3828 30.0176 49.0391 29.9004C49.707 29.7715 50.252 29.5547 50.6738 29.25C51.1426 28.9219 51.459 28.3711 51.623 27.5977C51.7871 26.8125 51.8691 25.6992 51.8691 24.2578V11.9004C51.8691 11.1504 51.7754 10.5293 51.5879 10.0371C51.4004 9.5332 51.1191 9.13477 50.7441 8.8418C50.2754 8.47852 49.7949 8.24414 49.3027 8.13867C48.8105 8.0332 48.3125 7.96289 47.8086 7.92773V6.55664H59.2871L65.4395 23.0273L70.625 9.65039C70.8008 9.1582 70.9707 8.57227 71.1348 7.89258C71.2988 7.21289 71.3867 6.76758 71.3984 6.55664H82.4551V7.92773C82.0801 7.95117 81.6875 7.99805 81.2773 8.06836C80.8672 8.13867 80.4746 8.23242 80.0996 8.34961C79.6426 8.50195 79.3379 8.74219 79.1855 9.07031C79.0449 9.39844 78.9746 9.76172 78.9746 10.1602V27.8262C78.9746 28.248 79.0449 28.6055 79.1855 28.8984C79.3379 29.1797 79.6426 29.4258 80.0996 29.6367C80.334 29.7422 80.7148 29.8418 81.2422 29.9355C81.7812 30.0293 82.1973 30.0938 82.4902 30.1289V31.5Z" fill="#1873F2"/>
<path d="M96.4798 27.72C97.3798 27.72 98.1358 27.612 98.7478 27.396C99.3598 27.18 99.8458 26.892 100.206 26.532C100.578 26.172 100.842 25.752 100.998 25.272C101.166 24.792 101.25 24.282 101.25 23.742C101.25 23.178 101.16 22.674 100.98 22.23C100.8 21.774 100.518 21.39 100.134 21.078C99.7498 20.754 99.2518 20.508 98.6398 20.34C98.0398 20.172 97.3138 20.088 96.4618 20.088H91.5838V27.72H96.4798ZM91.5838 9.216V16.74H95.4358C97.0918 16.74 98.3398 16.44 99.1798 15.84C100.032 15.24 100.458 14.286 100.458 12.978C100.458 11.622 100.074 10.656 99.3058 10.08C98.5378 9.504 97.3378 9.216 95.7058 9.216H91.5838ZM95.7058 5.472C97.4098 5.472 98.8678 5.634 100.08 5.958C101.292 6.282 102.282 6.744 103.05 7.344C103.83 7.944 104.4 8.67 104.76 9.522C105.12 10.374 105.3 11.334 105.3 12.402C105.3 13.014 105.21 13.602 105.03 14.166C104.85 14.718 104.568 15.24 104.184 15.732C103.812 16.212 103.332 16.65 102.744 17.046C102.168 17.442 101.478 17.778 100.674 18.054C104.25 18.858 106.038 20.79 106.038 23.85C106.038 24.954 105.828 25.974 105.408 26.91C104.988 27.846 104.376 28.656 103.572 29.34C102.768 30.012 101.778 30.54 100.602 30.924C99.4258 31.308 98.0818 31.5 96.5698 31.5H86.7418V5.472H95.7058Z" fill="#E9D2F4"/>
<defs>
<clipPath id="clip0_360_11132">
<rect width="37" height="37" rx="18.5" transform="matrix(1 0 0 -1 0 37.5)" fill="white"/>
</clipPath>
</defs>
</svg>
