<svg width="353" height="292" viewBox="0 0 353 292" fill="none" xmlns="http://www.w3.org/2000/svg">
<path d="M397.669 -154.05C391.452 -155.898 385.051 -157.054 378.581 -157.497C371.975 -157.94 365.339 -157.53 358.838 -156.277C354.36 -155.381 349.976 -154.071 345.741 -152.362C343.669 -151.531 341.642 -150.594 339.668 -149.554C336.138 -154.015 332.143 -158.087 327.752 -161.704C320.498 -167.743 312.495 -172.819 303.941 -176.807C295.557 -180.723 286.726 -183.599 277.644 -185.373C274.4 -186.095 271.073 -186.454 267.764 -186.861C266.105 -187.048 264.422 -187.093 262.744 -187.213L260.226 -187.349C259.39 -187.373 258.544 -187.344 257.703 -187.342C256.028 -187.333 254.346 -187.328 252.641 -187.268C250.937 -187.208 249.194 -187.063 247.51 -186.835C244.094 -186.464 240.702 -185.896 237.352 -185.136C223.959 -182.104 211.377 -176.224 200.462 -167.896C194.924 -163.694 189.896 -158.861 185.479 -153.495C183.246 -150.762 181.179 -147.898 179.288 -144.919C177.401 -141.876 175.71 -138.716 174.225 -135.457C172.743 -132.155 171.499 -128.751 170.502 -125.272C170.248 -124.442 170.011 -123.525 169.799 -122.633C169.586 -121.74 169.349 -120.872 169.181 -119.974L168.679 -117.277C168.505 -116.402 168.405 -115.416 168.281 -114.491C167.994 -112.608 167.931 -110.722 167.803 -108.844C167.776 -107.884 167.781 -106.963 167.786 -106.024C167.79 -105.084 167.799 -104.152 167.864 -103.217C168.042 -99.5065 168.524 -95.8172 169.306 -92.1858C169.804 -89.8458 170.424 -87.5333 171.164 -85.2577C170.303 -85.9987 169.419 -86.7335 168.518 -87.4391C164.196 -90.825 159.503 -93.7081 154.529 -96.0327C144.192 -100.735 132.806 -102.653 121.5 -101.595C110.741 -100.636 100.311 -97.4001 90.8992 -92.1032C81.4966 -86.8941 73.2891 -79.7749 66.8045 -71.2034C63.5092 -66.8095 60.7342 -62.0486 58.5351 -57.0157C56.4018 -52.0795 54.8167 -46.9239 53.8082 -41.6416C51.8458 -31.3446 51.8657 -20.7671 53.8668 -10.4761C55.7817 -0.461977 59.3504 9.16425 64.4264 18.008C68.7647 25.5979 74.1962 32.5087 80.5464 38.5183C79.131 38.9406 77.7207 39.4048 76.329 39.9383C72.5849 41.4116 69.0033 43.2684 65.6417 45.4789C62.2719 47.6952 59.1502 50.2674 56.3306 53.1511C53.4849 56.0413 50.9788 59.2472 48.8613 62.7064C48.3584 63.5774 47.7927 64.4219 47.3484 65.3268L45.9673 68.0232C45.1604 69.8604 44.3462 71.6935 43.7415 73.5695C41.2284 80.9418 40.0719 88.7087 40.3277 96.4941C40.4474 100.231 40.8217 103.956 41.4482 107.642C42.1 111.258 42.9714 114.831 44.0576 118.341C45.1566 121.804 46.4558 125.2 47.9486 128.512C49.4676 131.81 51.1751 135.019 53.0626 138.121C54.9735 141.224 57.0662 144.211 59.3297 147.068C61.6273 149.947 64.1026 152.68 66.7411 155.25L68.7873 157.134C69.4725 157.774 70.1467 158.28 70.8237 158.866C72.1926 159.979 73.5289 161.131 74.919 162.207L79.1579 165.298C79.8352 165.816 80.5903 166.301 81.3234 166.773L83.508 168.18C89.2872 171.858 95.3307 175.102 101.589 177.887C113.899 183.453 126.445 187.359 138.722 190.885C150.999 194.411 163.174 197.37 174.63 200.881C180.366 202.68 186.053 204.549 191.514 206.725C196.924 208.842 202.217 211.246 207.37 213.928C212.344 216.548 217.12 219.528 221.661 222.843C225.983 226.113 229.986 229.783 233.618 233.806L236.134 236.888C236.567 237.387 236.963 237.915 237.32 238.47L238.449 240.099L239.579 241.727L240.504 243.237L241.35 244.798C241.625 245.319 241.858 245.863 242.122 246.386C244.068 250.642 245.033 255.211 244.705 258.535C244.613 259.94 244.213 261.309 243.534 262.543C243.397 262.816 243.226 263.072 243.026 263.303C242.848 263.576 242.645 263.831 242.42 264.066C241.987 264.516 241.508 264.92 240.992 265.271C239.753 266.031 238.367 266.518 236.925 266.7C235.976 266.85 235.015 266.919 234.053 266.906C232.952 266.911 231.851 266.846 230.758 266.712C225.631 265.974 220.625 264.557 215.871 262.498C214.592 261.975 213.315 261.413 212.048 260.818L210.14 259.912L208.057 258.885L199.703 254.754C177.389 243.687 155.261 232.252 133.32 220.449C115.438 210.837 98.1479 200.318 80.7443 190.368C63.3408 180.417 45.8028 171.004 27.299 163.551C26.8405 163.365 25.8556 162.923 25.3574 162.704C13.4344 157.313 15.6748 162.344 11.0369 162.311C0.502812 162.192 -2.23977 164.727 3.5662 170.685C9.37217 176.643 23.6602 186.122 47.3588 199.238C57.6929 204.912 68.246 211.61 78.5702 217.892C90.4715 225.164 106.696 234.501 123.112 243.54C139.529 252.579 156.141 261.331 168.662 267.799C172.412 269.759 176.288 271.704 180.172 273.634C184.056 275.564 187.998 277.479 191.964 279.369C193.938 280.313 195.923 281.254 197.912 282.207C198.855 282.654 200.03 283.206 201.133 283.696C202.236 284.187 203.373 284.687 204.512 285.149C209.177 287.102 213.987 288.688 218.898 289.893C224.259 291.25 229.782 291.864 235.31 291.718C238.417 291.61 241.502 291.152 244.505 290.351C247.757 289.485 250.864 288.145 253.724 286.373C256.593 284.583 259.166 282.358 261.35 279.777C261.894 279.146 262.405 278.486 262.881 277.802C263.369 277.108 263.894 276.435 264.31 275.699C265.175 274.288 265.93 272.811 266.566 271.283C267.785 268.392 268.611 265.351 269.024 262.24C269.372 259.435 269.438 256.603 269.22 253.785C268.793 248.389 267.517 243.094 265.439 238.095C264.469 235.702 263.354 233.37 262.1 231.112L261.109 229.447C260.783 228.878 260.452 228.336 260.067 227.869L258.047 224.908C252.624 217.178 246.109 210.275 238.707 204.412C231.574 198.777 223.885 193.884 215.76 189.807C207.935 185.865 199.867 182.426 191.605 179.511C183.522 176.601 175.289 174.102 167.316 171.831C159.342 169.56 151.523 167.378 143.885 165.066C128.65 160.457 114.146 155.225 101.739 147.799C100.962 147.35 100.172 146.894 99.4166 146.409L97.1988 144.924C96.5003 144.442 95.696 143.959 94.9852 143.431L92.8832 141.847C92.2101 141.321 91.4489 140.814 90.7938 140.24L88.8338 138.562L87.8349 137.722C87.4995 137.44 87.1744 137.175 86.881 136.888C86.316 136.328 85.7185 135.807 85.1662 135.225C80.5684 130.53 76.7688 125.116 73.9179 119.196C71.0637 113.355 69.1993 107.081 68.4008 100.63C67.6155 94.7794 68.1648 88.8275 70.0073 83.2202C71.7228 78.2295 74.8405 73.8392 78.9873 70.5748C83.2654 67.2589 88.3619 65.1631 93.7361 64.5099C99.8898 63.7772 106.126 64.1975 112.127 65.7493C118.628 67.3729 124.873 69.8911 130.682 73.2318C134.079 75.1695 137.321 77.3675 140.379 79.8062C141.15 80.3979 141.882 81.0251 142.597 81.6627C143.313 82.3003 144.024 82.9453 144.731 83.5975L145.251 84.0832L145.805 84.6467L146.901 85.7579L149.093 87.999C155 94.4408 160.448 101.288 165.399 108.49C170.608 115.889 175.693 123.754 181.053 131.786C186.413 139.819 192.162 148.057 198.605 156.022C199.417 157.018 200.217 158.016 201.052 159.006L203.622 161.944C205.272 163.872 207.17 165.944 209.134 167.869C213.002 171.725 217.128 175.314 221.483 178.609C230.255 185.293 239.963 190.648 250.296 194.502C255.649 196.49 261.18 197.964 266.812 198.904C272.687 199.882 278.656 200.168 284.597 199.755C290.786 199.314 296.876 197.971 302.676 195.769C308.525 193.56 314.001 190.468 318.913 186.601C323.784 182.759 328.075 178.236 331.656 173.171C335.064 168.247 337.853 162.922 339.961 157.316C341.943 151.983 343.406 146.471 344.329 140.856C345.224 135.473 345.719 130.031 345.811 124.575C345.968 114.046 345.003 103.53 342.931 93.2053C340.883 83.044 337.923 73.0878 334.087 63.4574C330.505 54.3196 325.896 45.618 320.349 37.5199L321.443 36.8928C327.152 33.5305 332.449 29.5144 337.227 24.9259C338.468 23.8077 339.574 22.5526 340.726 21.3345C341.878 20.1163 342.937 18.8243 343.999 17.525C345.062 16.2257 346.063 14.881 347.031 13.5079C347.52 12.814 348.03 12.1328 348.489 11.422L349.805 9.3805C351.495 6.63833 353.03 3.91328 354.448 1.21912C355.867 -1.47504 357.149 -4.10166 358.405 -6.6655C360.893 -11.7871 363.166 -16.6034 365.655 -20.9145C366.281 -21.9978 366.877 -23.0298 367.54 -24.0427C368.202 -25.0555 368.853 -26.0465 369.464 -26.8352C370.723 -28.585 372.125 -30.227 373.656 -31.7444C376.413 -34.6063 379.698 -36.9082 383.33 -38.5237C384.82 -39.1451 386.381 -39.5778 387.979 -39.8117C389.386 -39.9589 390.809 -39.8823 392.192 -39.5846C393.633 -39.2837 395.01 -38.733 396.261 -37.9575C396.974 -37.5462 397.658 -37.0863 398.308 -36.5809C398.646 -36.2879 398.955 -36.0117 399.324 -35.7206C399.693 -35.4296 399.989 -35.0634 400.334 -34.7473C403.304 -31.6337 405.778 -28.0823 407.669 -24.2176C408.754 -22.0787 409.73 -19.8865 410.594 -17.6493C411.51 -15.2956 412.437 -12.7405 413.37 -10.113C415.259 -4.84544 417.253 0.833603 419.973 6.70791C421.417 9.76014 423.046 12.7213 424.851 15.5749C426.801 18.6293 429.027 21.4987 431.5 24.1472L433.464 26.1398C434.226 26.8332 435.063 27.5993 435.884 28.2395C437.514 29.5507 439.25 30.7231 441.076 31.7443C442.837 32.7425 444.67 33.6085 446.56 34.3351C448.423 35.0631 450.336 35.6554 452.283 36.1072C454.237 36.5726 456.222 36.8933 458.222 37.0668C460.267 37.2622 462.325 37.2949 464.375 37.1645C468.821 36.9196 473.179 35.8285 477.215 33.9497C481.78 31.7977 485.705 28.4947 488.606 24.3654C490.032 22.2979 491.19 20.0582 492.054 17.6998C492.83 15.5017 493.374 13.2283 493.676 10.9167C494.138 7.02357 494.087 3.08644 493.525 -0.79379C493.071 -4.21792 492.439 -7.21721 491.908 -9.91518C487.51 -32.0603 482.763 -54.9535 474.021 -77.2843C469.6 -88.6324 463.954 -99.4645 457.183 -109.589L454.481 -113.364C454.026 -113.997 453.594 -114.618 453.121 -115.252L451.653 -117.124C450.688 -118.394 449.637 -119.567 448.639 -120.816C447.642 -122.065 446.534 -123.173 445.452 -124.325C441.11 -128.895 436.401 -133.102 431.372 -136.904C421.249 -144.581 409.835 -150.388 397.669 -154.05ZM195.817 -93.0214C193.932 -98.875 193.311 -105.061 193.994 -111.172C194.186 -112.692 194.455 -114.201 194.799 -115.694C194.999 -116.447 195.155 -117.206 195.381 -117.954C195.608 -118.701 195.827 -119.453 196.072 -120.199C197.073 -123.188 198.357 -126.074 199.906 -128.818C206.124 -139.926 216.486 -149.08 228.385 -154.809C234.314 -157.686 240.619 -159.709 247.115 -160.82C247.918 -160.942 248.722 -161.083 249.524 -161.186L251.941 -161.45L254.345 -161.623L256.836 -161.659L259.33 -161.702C260.154 -161.724 260.992 -161.621 261.824 -161.589C263.484 -161.49 265.149 -161.465 266.808 -161.21C277.839 -160.023 287.711 -156.949 296.421 -153.687C305.131 -150.425 312.558 -146.566 318.889 -143.428C321.218 -142.288 323.377 -141.207 325.386 -140.223C321.351 -136.99 317.539 -133.488 313.975 -129.743C302.467 -117.689 293.49 -104.661 284.164 -92.82C279.712 -87.0419 274.907 -81.5439 269.778 -76.3573C264.749 -71.5022 259.472 -67.2491 253.809 -64.4583C253.1 -64.1261 252.4 -63.7099 251.69 -63.427L249.532 -62.5458C249.178 -62.389 248.815 -62.2565 248.444 -62.1493L247.34 -61.8105C246.614 -61.5412 245.872 -61.3177 245.118 -61.1414L242.868 -60.6255C242.129 -60.4277 241.351 -60.3988 240.593 -60.2702C239.127 -60.0392 237.646 -59.9157 236.162 -59.9007C230.196 -59.8662 224.321 -61.366 219.101 -64.2562C208.303 -70.0221 199.582 -81.0101 195.817 -93.0214ZM109.881 25.0645C108.05 24.0076 106.38 22.6725 104.698 21.4769C103.058 20.2314 101.498 18.8842 100.027 17.443C94.012 11.6022 89.2282 4.616 85.958 -3.10292C82.6744 -10.7382 81.0183 -18.9733 81.0952 -27.283C81.1533 -31.2913 81.6945 -35.2779 82.7073 -39.1563C83.2132 -41.0556 83.8373 -42.9215 84.5758 -44.743C84.7403 -45.214 84.9581 -45.625 85.1508 -46.0603C85.3435 -46.4955 85.5173 -46.9319 85.7393 -47.3503C86.2126 -48.1701 86.5908 -49.0448 87.1091 -49.858C91.1942 -56.6574 96.9367 -62.3101 103.8 -66.2881C110.612 -70.3604 118.339 -72.6547 126.271 -72.96C128.172 -73.0087 130.074 -72.912 131.961 -72.6705C132.892 -72.5918 133.76 -72.4032 134.712 -72.2436C135.169 -72.1555 135.612 -72.0267 136.053 -71.9282C136.504 -71.8391 136.95 -71.725 137.389 -71.5865L138.695 -71.1936L139.977 -70.7263C140.807 -70.4719 141.651 -70.0235 142.49 -69.6851L145.059 -68.368L147.534 -66.8709C153.997 -62.661 159.524 -56.4057 164.383 -48.8577C169.241 -41.3096 173.487 -32.6322 177.813 -23.537C182.14 -14.4419 186.61 -4.95188 192.331 4.49988C195.229 9.35389 198.461 14.0011 202.002 18.4079C202.753 19.3392 203.542 20.2728 204.365 21.1971C202.488 22.0649 200.625 22.9411 198.762 23.8174C194.286 25.8882 189.895 27.862 185.567 29.5593C183.409 30.4216 181.264 31.1937 179.13 31.9135C178.063 32.2734 177.021 32.5402 175.968 32.8593C174.915 33.1784 173.872 33.5132 172.798 33.7326L169.586 34.4935C168.478 34.7222 167.412 34.8777 166.32 35.0771C164.165 35.5305 161.965 35.7048 159.777 35.9935C155.399 36.4152 150.995 36.5084 146.602 36.2722C137.909 35.8677 129.34 34.0485 121.232 30.8865C117.275 29.3036 113.475 27.3544 109.881 25.0645ZM305.034 64.8746C308.087 71.1411 310.631 77.6425 312.643 84.316C314.704 91.0344 316.253 97.8989 317.277 104.851C318.308 111.664 318.704 118.557 318.461 125.443C318.271 131.973 317.206 138.448 315.293 144.694C313.566 150.379 310.682 155.644 306.822 160.161C303.103 164.395 298.411 167.664 293.151 169.687C287.68 171.691 281.828 172.442 276.027 171.883C269.694 171.283 263.491 169.704 257.642 167.202C251.477 164.619 245.643 161.31 240.263 157.344C237.538 155.354 234.921 153.221 232.422 150.953L230.591 149.222C229.956 148.631 229.4 148.037 228.807 147.441C227.634 146.227 226.529 145.062 225.354 143.681C220.609 138.24 216.168 132.542 212.051 126.612C203.544 114.527 195.538 101.337 186.148 88.3131C182.37 83.019 178.193 77.7575 173.775 72.6596L170.365 68.8758C169.209 67.6323 167.982 66.4262 166.786 65.1992C166.204 64.6188 165.659 64.0407 165.064 63.4634C167.782 63.1195 170.487 62.6841 173.18 62.157L174.595 61.9391L176.382 61.5658L179.955 60.7887C181.154 60.5541 182.316 60.1999 183.478 59.8949L186.989 58.8869C191.582 57.4593 195.924 55.7893 200.105 54.0264C208.456 50.5035 216.105 46.6053 223.509 43.0823C225.428 42.1602 227.33 41.2611 229.216 40.3849C234.667 43.1002 240.377 45.2594 246.261 46.8298C258.824 50.1493 271.913 50.9834 284.794 49.2853C287.878 48.8928 290.948 48.3493 294.005 47.6547C294.117 47.7978 294.242 47.9378 294.366 48.0778C298.558 53.2466 302.138 58.8831 305.034 64.8746ZM422.077 -108.426C423.884 -106.719 425.554 -104.877 427.205 -103.035C427.985 -102.087 428.796 -101.141 429.549 -100.179C430.302 -99.2172 431.066 -98.2586 431.793 -97.1659L434.02 -94.0061C434.76 -92.9543 435.412 -91.8169 436.112 -90.7296C437.551 -88.5716 438.783 -86.2594 440.034 -83.9953C440.702 -82.8683 441.234 -81.6434 441.85 -80.4778C442.466 -79.3123 443.074 -78.151 443.603 -76.9187C444.691 -74.4751 445.836 -72.0773 446.809 -69.5534C448.892 -64.6036 450.645 -59.4048 452.355 -54.1821C455.633 -43.6429 458.318 -32.685 460.702 -21.4423C461.764 -16.5741 462.794 -11.4995 463.794 -6.21859L464.579 -2.25193C464.813 -0.965493 465.049 0.215077 465.226 1.31253C465.536 3.00632 465.684 4.72581 465.668 6.44766C465.674 7.01784 465.569 7.58367 465.36 8.11421C465.36 8.11421 465.322 8.18011 465.227 8.19331C464.564 8.5354 463.838 8.73422 463.093 8.77684C461.763 8.89353 460.422 8.81031 459.116 8.52988C457.711 8.23103 456.359 7.72329 455.104 7.02362C454.559 6.73316 454.045 6.38749 453.571 5.99218C453.461 5.91403 453.358 5.82808 453.261 5.73495C453.138 5.63156 453.024 5.51958 452.917 5.39992C452.6 5.0703 452.307 4.76498 451.96 4.43728C449.138 1.14464 446.865 -2.57999 445.226 -6.59389C443.186 -11.1776 441.368 -16.5508 439.29 -22.3371L438.501 -24.5204L437.658 -26.7638C437.397 -27.48 437.047 -28.3266 436.742 -29.1175C436.437 -29.9084 436.098 -30.7088 435.737 -31.5031C434.372 -34.713 432.814 -37.8379 431.074 -40.8609C430.219 -42.4081 429.213 -43.9455 428.212 -45.441C427.21 -46.9365 426.105 -48.4723 424.898 -49.9498C422.467 -53.0377 419.711 -55.8557 416.678 -58.3553C413.414 -61.0501 409.791 -63.2769 405.912 -64.9714C401.916 -66.6806 397.684 -67.7718 393.36 -68.2073C389.194 -68.5756 384.997 -68.3397 380.898 -67.507C379.907 -67.3281 378.985 -67.0503 378.035 -66.8084L376.633 -66.4269C376.177 -66.2801 375.736 -66.1249 375.295 -65.9697C374.409 -65.6519 373.512 -65.3499 372.658 -65.0037L370.187 -63.9028C367.115 -62.462 364.187 -60.7352 361.439 -58.7452C358.921 -56.9448 356.536 -54.9661 354.301 -52.8243C352.231 -50.812 350.281 -48.6785 348.464 -46.435L347.171 -44.8202L345.962 -43.1661C345.134 -42.0534 344.511 -41.076 343.804 -40.0204C341.143 -35.9355 339.07 -32.1257 337.292 -28.7412C333.833 -21.9551 331.443 -16.7671 329.529 -13.1484C327.985 -10.1361 326.552 -7.38229 325.202 -5.07783C324.517 -3.89209 323.853 -2.92849 323.249 -1.99925C322.672 -1.11923 322.035 -0.280713 321.341 0.510175C315.374 7.35774 307.883 12.7099 299.471 16.1363C297.608 14.8209 295.68 13.6002 293.694 12.4788C291.088 11.006 288.387 9.70747 285.609 8.59165C282.813 7.48226 279.942 6.5717 277.018 5.86687C274.114 5.16198 271.166 4.64686 268.194 4.32473C265.255 4.03544 262.299 3.92968 259.346 4.00805C256.459 4.08412 253.578 4.32032 250.717 4.71559C247.923 5.14194 245.147 5.63757 242.479 6.30249C239.286 7.0646 236.208 7.98137 233.213 8.97506C232.67 8.56364 232.142 8.14184 231.618 7.71269C230.449 6.62742 229.21 5.60995 228.145 4.42872C227.079 3.24745 225.911 2.007 224.807 0.706055C222.548 -2.06367 220.464 -4.97156 218.567 -8.0006C214.446 -14.6864 210.714 -21.6047 207.391 -28.7208C204.643 -34.3772 201.89 -40.2799 198.855 -46.336C201.593 -44.3392 204.475 -42.5481 207.477 -40.9774C210.878 -39.1936 214.433 -37.7223 218.1 -36.5815C221.846 -35.4235 225.692 -34.6239 229.589 -34.1936C233.54 -33.8031 237.52 -33.793 241.473 -34.1637C243.366 -34.3982 245.235 -34.6757 247.108 -34.9606C248.981 -35.2455 250.82 -35.7937 252.665 -36.2318C259.862 -38.2434 266.697 -41.3743 272.92 -45.5098C278.684 -49.3628 284.043 -53.7892 288.914 -58.7213C293.424 -63.2769 297.695 -68.0618 301.711 -73.0569C309.518 -82.6714 316.356 -92.1814 323.409 -100.728C330.461 -109.274 337.686 -116.883 345.433 -122.101C349.126 -124.655 353.148 -126.695 357.391 -128.167C359.449 -128.87 361.555 -129.421 363.694 -129.817C364.768 -129.988 365.868 -130.202 366.96 -130.284C367.516 -130.333 368.026 -130.439 368.617 -130.449L370.286 -130.549C374.87 -130.713 379.458 -130.316 383.946 -129.367C388.645 -128.379 393.229 -126.906 397.625 -124.973C406.684 -120.934 414.96 -115.33 422.073 -108.419L422.077 -108.426Z" fill="#434F3E" fill-opacity="0.1"/>
</svg>
