<svg width="485" height="240" viewBox="0 0 485 240" fill="none" xmlns="http://www.w3.org/2000/svg">
<mask id="mask0_417_228" style="mask-type:alpha" maskUnits="userSpaceOnUse" x="0" y="0" width="486" height="240">
<path d="M0 12.6802C0 6.05276 5.37258 0.680176 12 0.680176H474C480.627 0.680176 486 6.05276 486 12.6802V227.68C486 234.308 480.627 239.68 474 239.68H12C5.37258 239.68 0 234.308 0 227.68V12.6802Z" fill="#CD6A65"/>
</mask>
<g mask="url(#mask0_417_228)">
<path d="M505.904 68.3045C504.396 61.9966 502.197 55.8747 499.346 50.0499C496.427 44.107 492.754 38.5655 488.418 33.5624C485.403 30.1321 482.076 26.9901 478.479 24.1772C476.724 22.7984 474.899 21.5115 473.01 20.3216C475.108 15.0341 476.638 9.53839 477.574 3.92714C479.178 -5.37383 479.572 -14.843 478.749 -24.2453C477.948 -33.4639 476.024 -42.5501 473.019 -51.3017C472.022 -54.4724 470.669 -57.5331 469.368 -60.6023C468.7 -62.1327 467.897 -63.6123 467.162 -65.1258L466.021 -67.3749C465.624 -68.1105 465.176 -68.8291 464.753 -69.5563C463.908 -71.0021 463.063 -72.4564 462.158 -73.9022C461.254 -75.3481 460.257 -76.7854 459.217 -78.1298C457.188 -80.9025 455.001 -83.5562 452.667 -86.0776C443.345 -96.1607 431.962 -104.117 419.292 -109.405C412.884 -112.1 406.185 -114.038 399.329 -115.18C395.846 -115.747 392.332 -116.106 388.806 -116.254C385.228 -116.366 381.645 -116.25 378.081 -115.907C374.48 -115.54 370.91 -114.915 367.398 -114.039C366.553 -113.844 365.64 -113.591 364.762 -113.328C363.883 -113.066 363.012 -112.838 362.15 -112.534L359.564 -111.621C358.719 -111.333 357.814 -110.927 356.952 -110.572C355.177 -109.879 353.512 -108.991 351.822 -108.162C350.977 -107.706 350.182 -107.241 349.371 -106.767C348.56 -106.294 347.757 -105.82 346.979 -105.296C343.855 -103.287 340.901 -101.025 338.147 -98.532C336.37 -96.9303 334.677 -95.237 333.076 -93.4589C333.288 -94.575 333.482 -95.708 333.642 -96.841C334.414 -102.277 334.564 -107.783 334.09 -113.252C332.994 -124.556 328.962 -135.376 322.393 -144.638C316.183 -153.475 308.165 -160.891 298.872 -166.393C289.66 -171.931 279.391 -175.479 268.725 -176.81C263.272 -177.466 257.762 -177.489 252.304 -176.877C246.962 -176.257 241.705 -175.052 236.626 -173.284C226.727 -169.835 217.577 -164.529 209.665 -157.65C201.95 -150.985 195.398 -143.081 190.277 -134.263C185.873 -126.711 182.604 -118.552 180.574 -110.048C179.501 -111.063 178.394 -112.052 177.236 -112.99C174.088 -115.496 170.689 -117.669 167.094 -119.475C163.49 -121.286 159.701 -122.703 155.794 -123.703C151.868 -124.722 147.839 -125.29 143.784 -125.394C142.779 -125.394 141.764 -125.462 140.759 -125.394L137.733 -125.242C135.738 -125.022 133.744 -124.811 131.817 -124.396C124.176 -122.887 116.871 -120.005 110.257 -115.89C107.08 -113.918 104.042 -111.732 101.163 -109.346C98.3568 -106.974 95.698 -104.432 93.2011 -101.737C90.7518 -99.0534 88.4604 -96.2303 86.3383 -93.2814C84.2416 -90.3169 82.3171 -87.2341 80.5743 -84.0484C78.8424 -80.8419 77.3015 -77.5359 75.9597 -74.1475C74.615 -70.7181 73.4859 -67.208 72.579 -63.6377L71.9705 -60.9236C71.7592 -60.0105 71.6578 -59.1734 71.4887 -58.2941C71.2098 -56.5523 70.8802 -54.819 70.6436 -53.0772L70.0858 -47.8605C69.9759 -47.015 69.9336 -46.1187 69.8914 -45.2478L69.7646 -42.6521C69.4695 -35.8085 69.6814 -28.9523 70.3985 -22.14C71.7338 -8.69632 74.6243 4.12163 77.7091 16.5168C80.794 28.912 84.3183 40.9353 87.006 52.6118C88.316 58.4797 89.5415 64.3391 90.3866 70.1562C91.2585 75.8996 91.8228 81.6855 92.077 87.4892C92.2946 93.1071 92.1026 98.7333 91.5023 104.323C90.831 109.701 89.6538 115.003 87.9864 120.16L86.575 123.88C86.3595 124.504 86.0996 125.111 85.7974 125.698L84.9522 127.49L84.1071 129.283L83.2619 130.839L82.3322 132.352C82.0195 132.851 81.6645 133.324 81.3434 133.815C78.6304 137.628 75.1567 140.748 72.1141 142.126C70.8506 142.749 69.4657 143.087 68.0574 143.115C67.7518 143.134 67.4452 143.114 67.1446 143.056C66.8196 143.038 66.4971 142.99 66.1811 142.912C65.5748 142.762 64.9856 142.55 64.4231 142.278C63.1462 141.585 62.0313 140.628 61.1523 139.471C60.5476 138.724 60.0076 137.926 59.5381 137.087C58.9829 136.136 58.4889 135.15 58.059 134.136C56.134 129.327 54.8579 124.283 54.2642 119.137C54.0783 117.767 53.9262 116.38 53.8079 114.985L53.6388 112.88L53.4867 110.563L52.8866 101.263C51.3146 76.4045 50.1539 51.5239 49.4045 26.6208C48.7876 6.32848 49.2524 -13.9047 49.1679 -33.9518C49.0833 -53.9989 48.4664 -73.8938 45.6689 -93.6449C45.6013 -94.1353 45.4914 -95.2092 45.4322 -95.7504C44.1391 -108.771 40.9021 -104.315 38.6117 -108.348C33.4478 -117.531 29.8812 -118.638 27.6246 -110.631C25.368 -102.624 24.3031 -85.5112 24.7933 -58.4294C25.0468 -46.643 24.5228 -34.1547 24.2439 -22.0724C23.8974 -8.12987 23.9227 10.5898 24.3031 29.3264C24.6834 48.0629 25.4103 66.8248 26.0695 80.9026C26.247 85.1302 26.5005 89.4592 26.7709 93.7882C27.0414 98.1172 27.3541 102.489 27.7007 106.868C27.8697 109.05 28.0472 111.24 28.2162 113.438C28.3007 114.478 28.4106 115.772 28.5374 116.972C28.6641 118.173 28.7994 119.407 28.9684 120.625C29.6099 125.641 30.6413 130.599 32.0532 135.455C33.5587 140.777 35.7883 145.867 38.6794 150.581C40.3258 153.218 42.2651 155.66 44.4603 157.861C46.8361 160.244 49.5501 162.264 52.5147 163.856C55.4991 165.445 58.7126 166.561 62.0398 167.162C62.8588 167.318 63.6853 167.431 64.5161 167.5C65.3613 167.576 66.2064 167.694 67.0516 167.686C68.7066 167.73 70.3624 167.645 72.0043 167.432C75.1174 167.042 78.1644 166.237 81.0645 165.04C83.6676 163.939 86.1536 162.579 88.485 160.981C92.9444 157.913 96.8919 154.161 100.182 149.863C101.769 147.826 103.232 145.694 104.56 143.479L105.507 141.788C105.836 141.221 106.141 140.663 106.352 140.097L107.907 136.867C111.889 128.305 114.611 119.212 115.987 109.87C117.3 100.875 117.693 91.7698 117.162 82.6951C116.663 73.9477 115.607 65.241 114.001 56.628C112.479 48.1729 110.527 39.7938 108.507 31.753C106.487 23.7122 104.467 15.8489 102.65 8.07863C99.0243 -7.41962 96.3028 -22.5966 96.531 -37.0548C96.531 -37.9511 96.531 -38.8642 96.5733 -39.7604L96.7507 -42.4238C96.8184 -43.2693 96.8353 -44.2079 96.9367 -45.0872L97.2579 -47.6998C97.3762 -48.5453 97.4353 -49.4584 97.6044 -50.3124L98.0777 -52.8489L98.3059 -54.1341C98.3819 -54.5654 98.4495 -54.9797 98.551 -55.3771C98.7538 -56.1465 98.9059 -56.9244 99.1341 -57.6938C100.901 -64.023 103.69 -70.0207 107.391 -75.4496C111.023 -80.8418 115.524 -85.5934 120.711 -89.5105C125.385 -93.1158 130.815 -95.616 136.592 -96.8241C141.772 -97.8337 147.133 -97.3289 152.033 -95.3698C157.044 -93.3229 161.407 -89.957 164.66 -85.6295C168.371 -80.6666 171.126 -75.0553 172.782 -69.0828C174.626 -62.6408 175.568 -55.9736 175.579 -49.2724C175.6 -45.3615 175.317 -41.4548 174.734 -37.5875C174.607 -36.6236 174.43 -35.6767 174.236 -34.7381C174.041 -33.7996 173.838 -32.861 173.627 -31.9225L173.467 -31.2292L173.255 -30.4682L172.841 -28.9632L171.996 -25.9448C169.371 -17.6082 166.165 -9.46584 162.403 -1.57715C158.6 6.63277 154.332 14.9696 150.055 23.6276C145.779 32.2857 141.519 41.3833 137.843 50.9461C137.386 52.1467 136.922 53.3389 136.482 54.5564L135.223 58.2513C134.378 60.6441 133.532 63.3244 132.848 65.9878C131.442 71.2654 130.397 76.6327 129.721 82.0525C128.318 92.9908 128.535 104.076 130.363 114.951C131.319 120.581 132.807 126.108 134.809 131.456C136.899 137.033 139.637 142.345 142.964 147.284C146.441 152.423 150.649 157.026 155.456 160.947C160.294 164.908 165.709 168.105 171.514 170.426C177.277 172.722 183.339 174.177 189.516 174.746C195.485 175.235 201.491 174.988 207.4 174.01C213.01 173.061 218.515 171.571 223.838 169.563C228.948 167.647 233.909 165.355 238.68 162.706C247.876 157.578 256.501 151.484 264.406 144.527C272.182 137.673 279.325 130.132 285.747 121.995C291.869 114.323 297.101 105.981 301.34 97.128L302.43 97.7621C308.197 101.025 314.323 103.604 320.686 105.448C322.275 105.964 323.915 106.293 325.546 106.682C327.177 107.071 328.825 107.342 330.482 107.612C332.138 107.883 333.803 108.077 335.476 108.23C336.322 108.306 337.167 108.407 338.012 108.449L340.438 108.568C343.658 108.661 346.785 108.627 349.827 108.509C352.87 108.39 355.786 108.187 358.634 107.993C364.314 107.587 369.621 107.147 374.599 107.147C375.85 107.147 377.042 107.147 378.25 107.215C379.459 107.283 380.642 107.35 381.631 107.486C383.776 107.701 385.899 108.094 387.978 108.661C391.836 109.618 395.472 111.312 398.686 113.649C399.97 114.629 401.125 115.765 402.126 117.031C402.958 118.177 403.602 119.447 404.036 120.794C404.496 122.192 404.708 123.66 404.662 125.131C404.662 125.954 404.606 126.777 404.493 127.592C404.408 128.031 404.324 128.437 404.256 128.902C404.189 129.367 404.02 129.807 403.918 130.264C402.707 134.393 400.868 138.311 398.467 141.881C397.157 143.89 395.746 145.831 394.241 147.698C392.66 149.668 390.911 151.748 389.102 153.87C385.485 158.14 381.563 162.706 377.836 167.999C375.915 170.775 374.165 173.667 372.596 176.657C370.926 179.873 369.554 183.235 368.497 186.702L367.753 189.399C367.534 190.405 367.289 191.513 367.145 192.544C366.824 194.611 366.677 196.701 366.705 198.792C366.722 200.817 366.888 202.838 367.204 204.838C367.505 206.815 367.948 208.767 368.531 210.68C369.105 212.605 369.819 214.484 370.669 216.303C371.523 218.172 372.523 219.97 373.661 221.68C376.096 225.408 379.22 228.637 382.865 231.192C387.011 234.07 391.835 235.818 396.861 236.266C399.364 236.467 401.883 236.35 404.358 235.919C406.649 235.492 408.89 234.826 411.043 233.932C414.646 232.386 418.03 230.373 421.109 227.946C423.847 225.84 426.129 223.794 428.2 221.985C445.179 207.104 462.632 191.546 477.6 172.81C485.217 163.307 491.775 153.001 497.157 142.075L499.075 137.848C499.397 137.138 499.718 136.453 500.03 135.726L500.918 133.519C501.535 132.048 502.025 130.551 502.608 129.063C503.191 127.575 503.597 126.061 504.053 124.548C505.84 118.503 507.129 112.321 507.907 106.065C509.495 93.4594 508.816 80.6713 505.904 68.3045ZM352.126 -75.9907C356.254 -80.5493 361.3 -84.1804 366.934 -86.6442C368.346 -87.2382 369.787 -87.7602 371.252 -88.2083C372.005 -88.4113 372.74 -88.6565 373.501 -88.834C374.261 -89.0116 375.022 -89.1976 375.791 -89.3582C378.879 -89.9856 382.021 -90.3169 385.172 -90.3475C397.9 -90.5166 411.009 -86.1199 421.92 -78.6794C427.376 -74.9837 432.281 -70.5345 436.491 -65.464C436.998 -64.8299 437.522 -64.2042 438.012 -63.5616L439.449 -61.6001L440.801 -59.6047L442.077 -57.4655L443.362 -55.3263C443.793 -54.6246 444.123 -53.8467 444.511 -53.1111C445.255 -51.623 446.067 -50.1688 446.675 -48.6046C451.163 -38.4584 453.436 -28.3714 454.966 -19.1976C456.496 -10.0238 456.868 -1.66171 457.316 5.38986C457.493 7.97713 457.637 10.3869 457.789 12.619C452.971 10.7413 448.033 9.19051 443.007 7.97717C426.814 4.03709 411.043 2.77731 396.126 0.621262C388.895 -0.345612 381.732 -1.75748 374.675 -3.60631C367.956 -5.53407 361.634 -7.97766 356.386 -11.4865C355.744 -11.9347 355.034 -12.332 354.434 -12.8055L352.591 -14.2345C352.279 -14.4619 351.982 -14.7105 351.704 -14.9785L350.858 -15.7648C350.262 -16.2587 349.698 -16.7896 349.168 -17.3543L347.596 -19.0454C347.055 -19.5865 346.641 -20.246 346.151 -20.8378C345.218 -21.9919 344.37 -23.2128 343.615 -24.4905C340.603 -29.6397 338.964 -35.4775 338.857 -41.443C338.451 -53.6776 343.607 -66.7239 352.126 -75.9907ZM206.893 -91.3705C206.893 -93.4843 207.214 -95.5982 207.408 -97.6527C207.667 -99.6958 208.054 -101.721 208.566 -103.715C210.617 -111.844 214.276 -119.48 219.325 -126.172C224.296 -132.833 230.6 -138.385 237.834 -142.473C241.335 -144.427 245.058 -145.952 248.923 -147.014C250.821 -147.525 252.749 -147.918 254.695 -148.189C255.186 -148.282 255.65 -148.299 256.124 -148.35C256.597 -148.4 257.062 -148.468 257.535 -148.485C258.482 -148.485 259.428 -148.595 260.392 -148.553C268.323 -148.415 276.089 -146.268 282.966 -142.313C289.899 -138.45 295.749 -132.905 299.979 -126.189C300.972 -124.566 301.84 -122.87 302.574 -121.116C302.971 -120.27 303.242 -119.425 303.58 -118.52C303.732 -118.08 303.842 -117.632 303.977 -117.201C304.126 -116.766 304.25 -116.323 304.349 -115.873L304.662 -114.546L304.898 -113.202C305.093 -112.356 305.127 -111.401 305.253 -110.505L305.397 -107.621L305.338 -104.73C304.924 -97.0271 302.27 -89.113 298.162 -81.1314C294.055 -73.1498 288.663 -65.1343 282.949 -56.8398C277.236 -48.5454 271.252 -39.9295 265.928 -30.2484C263.173 -25.3117 260.764 -20.1897 258.718 -14.9193C258.287 -13.8032 257.873 -12.6533 257.485 -11.4781C255.794 -12.6702 254.104 -13.8455 252.414 -15.0207C248.382 -17.8616 244.477 -20.6772 240.843 -23.5773C239.018 -25.0147 237.277 -26.4859 235.586 -27.974C234.741 -28.7181 233.989 -29.4874 233.186 -30.2399C232.383 -30.9924 231.572 -31.7281 230.845 -32.5483L228.58 -34.9495C227.828 -35.795 227.16 -36.6405 226.442 -37.4861C224.971 -39.1263 223.72 -40.9442 222.376 -42.6944C219.822 -46.2755 217.539 -50.0429 215.547 -53.9651C211.551 -61.6954 208.842 -70.026 207.527 -78.6287C206.919 -82.847 206.707 -87.1128 206.893 -91.3705ZM269.993 97.5424C266.093 103.319 261.734 108.774 256.96 113.852C252.173 118.996 247.002 123.77 241.494 128.133C236.109 132.432 230.338 136.223 224.253 139.454C218.503 142.555 212.363 144.87 205.997 146.337C200.21 147.683 194.208 147.819 188.367 146.734C182.84 145.63 177.664 143.201 173.281 139.657C168.81 135.921 165.234 131.229 162.817 125.926C160.17 120.141 158.437 113.98 157.679 107.663C156.833 101.033 156.782 94.3258 157.527 87.6837C157.887 84.3289 158.426 80.9956 159.141 77.6981L159.724 75.2462C159.919 74.4007 160.155 73.6228 160.375 72.8111C160.84 71.1877 161.296 69.6489 161.905 67.9409C164.244 61.1113 166.958 54.4158 170.035 47.8853C176.247 34.4755 183.668 20.9474 190.252 6.30309C192.948 0.384491 195.415 -5.86389 197.621 -12.2391L199.193 -17.0838C199.692 -18.7072 200.123 -20.3728 200.588 -22.0216C200.799 -22.8164 201.027 -23.5774 201.23 -24.3806C202.887 -22.1992 204.617 -20.0741 206.42 -18.0054L207.315 -16.8894L208.532 -15.5281L210.992 -12.8224C211.795 -11.9008 212.682 -11.0722 213.527 -10.2183L216.156 -7.68173C219.689 -4.41805 223.306 -1.49252 226.923 1.24693C234.149 6.71739 241.35 11.3931 248.103 16.0434C249.861 17.244 251.591 18.4418 253.292 19.6368C253.666 25.7151 254.652 31.7403 256.234 37.6209C259.64 50.1603 265.463 61.9131 273.374 72.2192C275.256 74.6937 277.261 77.0809 279.391 79.3806C279.324 79.5498 279.264 79.7273 279.205 79.9049C276.825 86.1199 273.734 92.0385 269.993 97.5424ZM478.597 112.254C478.022 114.672 477.262 117.04 476.493 119.39C476.061 120.54 475.647 121.716 475.191 122.848C474.735 123.981 474.287 125.123 473.703 126.298L472.081 129.807C471.54 130.974 470.881 132.107 470.289 133.257C469.14 135.582 467.754 137.806 466.418 140.021C465.776 141.162 464.981 142.236 464.28 143.352C463.578 144.468 462.877 145.576 462.074 146.65C460.502 148.814 458.998 151.004 457.299 153.109C454.053 157.388 450.428 161.505 446.76 165.598C439.271 173.706 431.124 181.51 422.579 189.196C418.894 192.55 415.015 195.98 410.941 199.486L407.899 202.149C406.902 202.995 405.997 203.789 405.135 204.491C403.824 205.607 402.409 206.595 400.909 207.442C400.418 207.732 399.876 207.924 399.312 208.008C399.312 208.008 399.236 208.009 399.177 207.932C398.549 207.53 398.014 207 397.605 206.377C396.838 205.283 396.24 204.08 395.83 202.809C395.386 201.442 395.15 200.017 395.128 198.581C395.107 197.964 395.15 197.346 395.255 196.738C395.268 196.604 395.291 196.471 395.323 196.34C395.351 196.183 395.391 196.027 395.441 195.875C395.568 195.436 395.686 195.03 395.796 194.565C397.237 190.475 399.326 186.644 401.983 183.218C404.932 179.16 408.676 174.898 412.649 170.206L414.145 168.43L415.666 166.578C416.156 165.995 416.714 165.268 417.246 164.608C417.779 163.949 418.303 163.256 418.81 162.545C420.907 159.758 422.835 156.847 424.582 153.828C425.495 152.315 426.323 150.674 427.118 149.059C427.912 147.444 428.69 145.72 429.366 143.936C430.825 140.286 431.887 136.491 432.535 132.614C433.237 128.44 433.354 124.189 432.882 119.982C432.364 115.667 431.193 111.456 429.408 107.494C427.644 103.702 425.341 100.185 422.571 97.0519C421.92 96.2825 421.219 95.623 420.534 94.9212L419.503 93.8982C419.148 93.5768 418.793 93.2725 418.438 92.9681C417.72 92.3593 417.01 91.7336 416.283 91.1671L414.094 89.5776C411.31 87.6381 408.35 85.965 405.253 84.5806C402.435 83.3001 399.529 82.2236 396.557 81.3592C393.779 80.5723 390.957 79.9511 388.105 79.4991L386.06 79.1862L384.023 78.9664C382.645 78.8057 381.487 78.755 380.22 78.6705C375.351 78.4084 371.016 78.5183 367.196 78.6705C359.589 79.0678 353.901 79.5921 349.81 79.7443C346.43 79.9134 343.328 80.0486 340.657 80.0317C339.288 80.0317 338.122 79.9388 337.015 79.8796C335.964 79.8203 334.919 79.6875 333.888 79.4821C324.974 77.7386 316.594 73.9276 309.42 68.3552C309.628 66.0841 309.721 63.8039 309.699 61.5234C309.671 58.5299 309.445 55.5416 309.023 52.578C308.586 49.6021 307.939 46.6608 307.087 43.7761C306.245 40.9081 305.218 38.0979 304.011 35.3633C302.791 32.6726 301.406 30.0605 299.861 27.5424C298.352 25.0799 296.707 22.7032 294.934 20.4231C293.167 18.2163 291.35 16.0603 289.44 14.0818C287.184 11.6974 284.851 9.49069 282.493 7.39383C282.578 6.71741 282.679 6.04945 282.789 5.3815C283.144 3.82576 283.406 2.24464 283.896 0.731186C284.386 -0.782288 284.876 -2.41412 285.451 -4.0206C286.72 -7.36179 288.197 -10.6206 289.871 -13.7778C293.601 -20.6901 297.726 -27.3808 302.228 -33.8166C305.752 -39.0249 309.488 -44.36 313.215 -50.0165C312.854 -46.6472 312.744 -43.2559 312.885 -39.8703C313.041 -36.0334 313.544 -32.2186 314.39 -28.4729C315.259 -24.6501 316.49 -20.9188 318.066 -17.3291C319.704 -13.7118 321.685 -10.2603 323.982 -7.0222C325.132 -5.50029 326.306 -4.0206 327.49 -2.54095C328.673 -1.06129 330.067 0.257645 331.369 1.63583C336.71 6.86276 342.839 11.2168 349.532 14.5384C355.75 17.6035 362.263 20.0312 368.97 21.7844C375.17 23.4115 381.45 24.7182 387.784 25.6991C400.013 27.6522 411.668 28.819 422.596 30.6538C433.524 32.4885 443.725 34.9406 452.118 39.0413C456.176 40.9624 459.954 43.4256 463.35 46.3635C464.988 47.7945 466.519 49.3431 467.931 50.9969C468.616 51.8424 469.351 52.6878 469.968 53.5925C470.289 54.0491 470.635 54.4381 470.94 54.9454L471.861 56.3404C474.295 60.2285 476.245 64.3997 477.667 68.7611C479.161 73.325 480.178 78.0314 480.701 82.805C481.733 92.6694 481.017 102.638 478.589 112.254H478.597Z" fill="#C75E5A" fill-opacity="0.1"/>
</g>
</svg>
