<svg width="485" height="320" viewBox="0 0 485 320" fill="none" xmlns="http://www.w3.org/2000/svg">
<mask id="mask0_317_5552" style="mask-type:alpha" maskUnits="userSpaceOnUse" x="0" y="0" width="486" height="320">
<path d="M0 12.6802C0 6.05276 5.37258 0.680176 12 0.680176H474C480.627 0.680176 486 6.05276 486 12.6802V307.68C486 314.308 480.627 319.68 474 319.68H12C5.37258 319.68 0 314.308 0 307.68V12.6802Z" fill="#CD6A65"/>
</mask>
<g mask="url(#mask0_317_5552)">
<path opacity="0.3" d="M565.005 204.766C566.495 198.454 567.283 191.997 567.356 185.512C567.42 178.891 566.632 172.29 565.008 165.872C563.858 161.452 562.299 157.149 560.351 153.019C559.403 150.999 558.352 149.029 557.201 147.117C561.452 143.337 565.29 139.117 568.649 134.525C574.263 126.939 578.874 118.658 582.366 109.89C585.796 101.296 588.163 92.3148 589.414 83.1468C589.949 79.8663 590.118 76.5243 590.335 73.1977C590.427 71.5305 590.375 69.8479 590.399 68.1654L590.391 65.6435C590.367 64.8078 590.29 63.9645 590.24 63.125C590.135 61.4535 590.034 59.7745 589.877 58.0765C589.719 56.3784 589.475 54.6461 589.151 52.9779C588.585 49.5888 587.825 46.2352 586.874 42.9336C583.082 29.7357 576.492 17.5105 567.552 7.08955C563.041 1.80156 557.929 -2.94207 552.318 -7.04517C549.462 -9.1177 546.485 -11.018 543.403 -12.7358C540.257 -14.4453 537.005 -15.9527 533.667 -17.2489C530.286 -18.5398 526.816 -19.5874 523.285 -20.3836C522.443 -20.5899 521.513 -20.7737 520.61 -20.9349C519.707 -21.096 518.827 -21.2836 517.92 -21.3993L515.2 -21.7466C514.316 -21.8698 513.325 -21.914 512.396 -21.9844C510.499 -22.1632 508.612 -22.119 506.73 -22.139C505.77 -22.1112 504.851 -22.053 503.913 -21.995C502.976 -21.9369 502.046 -21.875 501.115 -21.7564C497.421 -21.3668 493.766 -20.6744 490.185 -19.6862C487.877 -19.0547 485.604 -18.3033 483.374 -17.4351C484.065 -18.337 484.748 -19.2616 485.401 -20.2014C488.534 -24.7097 491.144 -29.56 493.181 -34.6586C497.284 -45.2476 498.548 -56.7252 496.846 -67.9518C495.272 -78.6379 491.446 -88.8667 485.619 -97.9598C479.881 -107.049 472.304 -114.836 463.376 -120.82C458.801 -123.859 453.889 -126.357 448.739 -128.265C443.689 -130.112 438.451 -131.4 433.119 -132.105C422.727 -133.475 412.168 -132.851 402.008 -130.264C392.12 -127.78 382.714 -123.667 374.175 -118.093C366.845 -113.328 360.256 -107.51 354.62 -100.827C354.117 -102.216 353.573 -103.597 352.961 -104.956C351.276 -108.61 349.217 -112.079 346.818 -115.309C344.413 -118.547 341.666 -121.516 338.626 -124.166C335.578 -126.842 332.234 -129.161 328.659 -131.077C327.761 -131.529 326.885 -132.046 325.957 -132.438L323.186 -133.662C321.305 -134.363 319.429 -135.071 317.521 -135.567C310.017 -137.655 302.197 -138.365 294.439 -137.665C290.715 -137.332 287.018 -136.745 283.373 -135.909C279.801 -135.051 276.283 -133.977 272.841 -132.692C269.446 -131.397 266.13 -129.905 262.909 -128.226C259.703 -126.52 256.598 -124.632 253.609 -122.571C250.62 -120.485 247.757 -118.225 245.035 -115.802C242.292 -113.344 239.705 -110.716 237.289 -107.935L235.525 -105.784C234.926 -105.064 234.459 -104.362 233.913 -103.652C232.88 -102.222 231.807 -100.822 230.812 -99.3727L227.968 -94.9639C227.49 -94.2581 227.049 -93.4765 226.619 -92.7177L225.339 -90.4562C221.998 -84.4761 219.104 -78.257 216.682 -71.8498C211.829 -59.2415 208.647 -46.4927 205.829 -34.0342C203.011 -21.5757 200.752 -9.25179 197.902 2.38619C196.434 8.21641 194.894 14.0011 193.033 19.577C191.229 25.099 189.131 30.5207 186.749 35.8189C184.417 40.9346 181.715 45.8736 178.666 50.5966C175.648 55.0981 172.212 59.3049 168.404 63.1608L165.471 65.849C164.998 66.3092 164.492 66.735 163.959 67.1231L162.398 68.3441L160.837 69.5651L159.382 70.5747L157.871 71.5084C157.368 71.8134 156.838 72.0767 156.33 72.3703C152.193 74.5563 147.687 75.7812 144.35 75.644C142.941 75.6323 141.552 75.3111 140.281 74.7033C140 74.5823 139.735 74.4267 139.493 74.2401C139.21 74.0781 138.944 73.89 138.697 73.6784C138.223 73.2718 137.792 72.817 137.412 72.3215C136.583 71.1283 136.017 69.7723 135.752 68.3435C135.548 67.4039 135.425 66.4485 135.383 65.4879C135.315 64.3886 135.316 63.2862 135.388 62.1871C135.832 57.0261 136.96 51.9468 138.744 47.0833C139.193 45.7763 139.681 44.4694 140.203 43.1701L140.998 41.2135L141.904 39.0758L145.55 30.4987C155.324 7.58866 165.475 -15.1565 176.004 -37.7369C184.578 -56.1394 194.091 -74.0026 203.03 -91.9467C211.969 -109.891 220.364 -127.938 226.746 -146.838C226.907 -147.306 227.291 -148.315 227.482 -148.825C232.182 -161.037 227.287 -158.512 227.055 -163.144C226.571 -173.668 223.883 -176.261 218.267 -170.124C212.651 -163.987 204.005 -149.18 192.265 -124.77C187.192 -114.129 181.108 -103.21 175.426 -92.5434C168.847 -80.2458 160.452 -63.514 152.367 -46.6075C144.281 -29.701 136.494 -12.6161 130.753 0.254582C129.01 4.11045 127.29 8.09113 125.585 12.0794C123.88 16.0677 122.194 20.1127 120.534 24.1805C119.704 26.205 118.878 28.2408 118.04 30.2804C117.648 31.2473 117.164 32.4522 116.738 33.5816C116.311 34.711 115.877 35.8744 115.48 37.0379C113.798 41.8067 112.489 46.6994 111.567 51.6714C110.519 57.102 110.221 62.6507 110.684 68.1617C110.969 71.2573 111.603 74.3107 112.574 77.2635C113.624 80.4606 115.14 83.4851 117.072 86.2397C119.023 89.0015 121.392 91.4427 124.094 93.4757C124.755 93.9832 125.443 94.4557 126.153 94.8913C126.874 95.3393 127.576 95.825 128.334 96.1975C129.793 96.9808 131.31 97.6496 132.872 98.198C135.828 99.249 138.912 99.9004 142.041 100.135C144.861 100.322 147.693 100.226 150.494 99.8465C155.856 99.1117 161.069 97.5354 165.941 95.1753C168.275 94.0696 170.539 92.8228 172.722 91.4421L174.328 90.3573C174.877 89.9995 175.4 89.6379 175.843 89.2269L178.685 87.0412C186.091 81.1847 192.611 74.2862 198.041 66.5606C203.258 59.1167 207.704 51.1609 211.31 42.8164C214.798 34.7789 217.77 26.5274 220.208 18.1119C222.651 9.87577 224.675 1.51371 226.486 -6.57663C228.298 -14.667 230.03 -22.5987 231.9 -30.3562C235.631 -45.8296 240.025 -60.6093 246.73 -73.4208C247.133 -74.2213 247.543 -75.0369 247.984 -75.8185L249.34 -78.1176C249.781 -78.8424 250.218 -79.6731 250.704 -80.4129L252.166 -82.6021C252.652 -83.3041 253.115 -84.0931 253.65 -84.7798L255.213 -86.8326L255.995 -87.878C256.257 -88.2289 256.504 -88.5686 256.773 -88.878C257.3 -89.474 257.786 -90.1004 258.336 -90.685C262.76 -95.5438 267.948 -99.6467 273.695 -102.831C279.363 -106.015 285.52 -108.235 291.915 -109.401C297.711 -110.52 303.685 -110.312 309.388 -108.793C314.469 -107.365 319.03 -104.504 322.526 -100.55C326.081 -96.469 328.465 -91.5006 329.425 -86.1726C330.508 -80.0709 330.445 -73.8203 329.239 -67.7409C327.99 -61.1574 325.833 -54.779 322.83 -48.7884C321.089 -45.2859 319.08 -41.9235 316.82 -38.7315C316.274 -37.9275 315.689 -37.1615 315.094 -36.4106C314.498 -35.6597 313.895 -34.9126 313.284 -34.1694L312.829 -33.6223L312.298 -33.0376L311.251 -31.8796L309.139 -29.5635C303.046 -23.2978 296.521 -17.4664 289.614 -12.1119C282.525 -6.48895 274.964 -0.961741 267.251 4.84861C259.538 10.659 251.642 16.8696 244.059 23.7578C243.111 24.625 242.16 25.4808 241.22 26.3707L238.434 29.1047C236.603 30.8619 234.643 32.8759 232.833 34.947C229.204 39.0287 225.858 43.353 222.817 47.8898C216.645 57.0292 211.854 67.028 208.597 77.5639C206.919 83.0224 205.763 88.6278 205.146 94.3046C204.506 100.226 204.562 106.202 205.314 112.11C206.108 118.263 207.797 124.267 210.327 129.931C212.867 135.644 216.267 140.934 220.408 145.617C224.523 150.26 229.284 154.286 234.545 157.571C239.656 160.692 245.132 163.172 250.849 164.956C256.287 166.63 261.874 167.775 267.532 168.375C272.957 168.961 278.419 169.145 283.872 168.924C294.392 168.479 304.835 166.914 315.025 164.256C325.052 161.63 334.823 158.106 344.218 153.725C353.136 149.626 361.56 144.527 369.328 138.526L370.017 139.583C373.7 145.09 378.012 150.149 382.866 154.657C384.054 155.832 385.37 156.864 386.652 157.944C387.934 159.025 389.285 160.008 390.643 160.995C392 161.981 393.4 162.904 394.826 163.792C395.547 164.24 396.256 164.711 396.992 165.128L399.106 166.325C401.94 167.856 404.748 169.232 407.519 170.494C410.29 171.757 412.986 172.887 415.617 173.994C420.873 176.185 425.811 178.179 430.257 180.417C431.375 180.98 432.439 181.516 433.488 182.12C434.537 182.723 435.564 183.316 436.386 183.881C438.205 185.038 439.925 186.344 441.527 187.785C444.542 190.375 447.028 193.523 448.848 197.056C449.554 198.508 450.075 200.042 450.4 201.624C450.628 203.021 450.632 204.445 450.414 205.843C450.196 207.299 449.725 208.705 449.022 209.999C448.653 210.734 448.233 211.443 447.765 212.12C447.492 212.475 447.234 212.8 446.964 213.185C446.695 213.57 446.346 213.886 446.05 214.248C443.112 217.392 439.708 220.065 435.957 222.174C433.884 223.379 431.751 224.479 429.567 225.469C427.27 226.518 424.772 227.59 422.202 228.672C417.051 230.859 411.495 233.174 405.786 236.225C402.821 237.841 399.958 239.637 397.212 241.603C394.275 243.724 391.537 246.11 389.034 248.731L387.157 250.806C386.509 251.606 385.792 252.485 385.199 253.342C383.984 255.044 382.912 256.844 381.997 258.725C381.101 260.541 380.342 262.421 379.724 264.349C379.104 266.25 378.622 268.194 378.282 270.164C377.929 272.141 377.723 274.141 377.664 276.148C377.586 278.201 377.671 280.257 377.918 282.296C378.417 286.721 379.755 291.009 381.862 294.931C384.271 299.366 387.793 303.096 392.082 305.756C394.227 307.061 396.53 308.09 398.934 308.817C401.172 309.467 403.473 309.879 405.798 310.049C409.712 310.288 413.639 310.012 417.481 309.228C420.874 308.579 423.832 307.777 426.495 307.092C448.352 301.436 470.937 295.388 492.731 285.383C503.808 280.32 514.3 274.064 524.02 266.725L527.634 263.811C528.241 263.321 528.835 262.854 529.442 262.345L531.227 260.773C532.439 259.737 533.55 258.62 534.74 257.553C535.93 256.486 536.973 255.317 538.061 254.17C542.376 249.574 546.307 244.633 549.815 239.395C556.901 228.849 562.045 217.122 565.005 204.766ZM492.535 6.73355C498.271 4.51769 504.412 3.54384 510.551 3.87623C512.08 3.98071 513.602 4.16258 515.112 4.42112C515.875 4.57811 516.642 4.68973 517.402 4.87318C518.161 5.05662 518.924 5.23251 519.683 5.43486C522.724 6.26328 525.679 7.37992 528.507 8.76968C539.952 14.3421 549.684 24.1636 556.084 35.7158C559.295 41.4699 561.676 47.6498 563.156 54.0716C563.324 54.8661 563.51 55.6605 563.659 56.4549L564.061 58.853L564.371 61.2434L564.549 63.728L564.735 66.2163C564.804 67.037 564.749 67.88 564.765 68.7118C564.76 70.3754 564.831 72.0392 564.671 73.71C564.118 84.7905 561.612 94.8225 558.854 103.704C556.095 112.586 552.667 120.223 549.896 126.722C548.891 129.113 547.936 131.33 547.068 133.392C543.61 129.549 539.896 125.943 535.952 122.599C523.26 111.798 509.74 103.582 497.386 94.9482C491.363 90.8334 485.599 86.3511 480.127 81.5267C474.993 76.7835 470.445 71.7582 467.335 66.264C466.962 65.5749 466.507 64.9008 466.184 64.208L465.181 62.1032C465.004 61.7595 464.851 61.4041 464.723 61.0395L464.321 59.9572C464.011 59.2479 463.745 58.5199 463.526 57.7773L462.883 55.56C462.643 54.8335 462.569 54.0582 462.398 53.3091C462.083 51.8588 461.875 50.3872 461.776 48.9064C461.4 42.9524 462.561 37.0014 465.148 31.6249C470.287 20.5146 480.759 11.1799 492.535 6.73355ZM369.729 -72.3098C370.679 -74.1979 371.917 -75.9415 373.014 -77.6893C374.164 -79.3978 375.42 -81.0324 376.774 -82.5834C382.262 -88.9223 388.963 -94.0977 396.482 -97.8039C403.917 -101.519 412.044 -103.643 420.345 -104.041C424.35 -104.213 428.361 -103.9 432.291 -103.111C434.216 -102.714 436.114 -102.198 437.975 -101.565C438.455 -101.428 438.878 -101.234 439.323 -101.066C439.769 -100.899 440.214 -100.75 440.645 -100.552C441.49 -100.127 442.385 -99.7992 443.227 -99.3282C450.248 -95.6386 456.22 -90.2287 460.584 -83.6038C465.039 -77.0362 467.772 -69.4531 468.53 -61.5518C468.687 -59.6562 468.699 -57.7513 468.566 -55.8538C468.541 -54.92 468.402 -54.0431 468.297 -53.083C468.236 -52.6219 468.132 -52.1723 468.059 -51.7263C467.996 -51.2708 467.908 -50.8191 467.794 -50.3733L467.477 -49.0471L467.084 -47.7398C466.877 -46.8972 466.478 -46.0287 466.188 -45.1711L465.02 -42.5312L463.667 -39.9751C459.833 -33.2813 453.904 -27.4059 446.646 -22.1237C439.388 -16.8415 430.968 -12.1068 422.135 -7.26722C413.302 -2.42768 404.083 2.57727 394.974 8.83017C390.294 12.0009 385.839 15.4927 381.642 19.2804C380.755 20.0834 379.868 20.9243 378.992 21.7992C378.019 19.9743 377.037 18.1645 376.056 16.3547C373.732 12.0044 371.511 7.73375 369.569 3.50919C368.585 1.40446 367.691 -0.692553 366.85 -2.7818C366.43 -3.82642 366.104 -4.85186 365.725 -5.88503C365.347 -6.9182 364.953 -7.94016 364.672 -8.99955L363.729 -12.1628C363.437 -13.2563 363.221 -14.3117 362.96 -15.39C362.384 -17.5163 362.084 -19.7025 361.671 -21.8701C360.999 -26.2173 360.654 -30.6088 360.639 -35.0077C360.546 -43.7093 361.872 -52.3683 364.565 -60.6438C365.919 -64.6848 367.648 -68.5904 369.729 -72.3098ZM341.142 124.801C335.061 128.207 328.715 131.119 322.168 133.508C315.578 135.95 308.814 137.889 301.932 139.309C295.189 140.728 288.329 141.518 281.441 141.669C274.911 141.853 268.385 141.159 262.04 139.607C256.266 138.208 250.844 135.63 246.114 132.034C241.674 128.563 238.143 124.066 235.821 118.93C233.508 113.582 232.424 107.783 232.65 101.96C232.887 95.6026 234.109 89.32 236.273 83.3369C238.498 77.0347 241.469 71.0207 245.121 65.4229C246.951 62.5886 248.932 59.8537 251.053 57.2297L252.676 55.3019C253.23 54.6341 253.791 54.0457 254.352 53.4195C255.498 52.1785 256.597 51.0092 257.909 49.7573C263.069 44.709 268.504 39.9492 274.189 35.4997C285.768 26.3154 298.479 17.5688 310.944 7.44907C316.014 3.37494 321.028 -1.09641 325.865 -5.79879L329.447 -9.41924C330.623 -10.645 331.757 -11.9389 332.913 -13.2026C333.46 -13.8175 334.006 -14.3946 334.548 -15.0208C335.047 -12.3275 335.636 -9.65154 336.316 -6.99305L336.615 -5.59337L337.09 -3.83023L338.07 -0.307584C338.372 0.876644 338.793 2.01577 339.163 3.15856L340.371 6.6061C342.058 11.1098 343.974 15.3494 345.973 19.4229C349.968 27.5585 354.297 34.9727 358.238 42.1629C359.268 44.0258 360.274 45.8735 361.257 47.706C358.858 53.3033 357.028 59.128 355.797 65.0919C353.201 77.8238 353.117 90.9395 355.549 103.702C356.117 106.759 356.835 109.793 357.703 112.805C357.567 112.925 357.434 113.057 357.302 113.189C352.381 117.67 346.958 121.567 341.142 124.801ZM520.852 231.743C519.251 233.644 517.507 235.417 515.763 237.171C514.861 238.004 513.963 238.867 513.046 239.674C512.128 240.481 511.215 241.299 510.166 242.086L507.139 244.491C506.131 245.29 505.032 246.005 503.987 246.767C501.915 248.327 499.677 249.689 497.488 251.068C496.401 251.798 495.208 252.4 494.08 253.082C492.952 253.763 491.827 254.437 490.627 255.035C488.25 256.262 485.921 257.541 483.457 258.658C478.634 261.02 473.544 263.067 468.428 265.073C458.093 268.948 447.307 272.255 436.219 275.278C431.42 276.617 426.412 277.936 421.197 279.236L417.282 280.246C416.011 280.553 414.846 280.857 413.76 281.096C412.087 281.503 410.379 281.749 408.659 281.831C408.09 281.869 407.519 281.797 406.977 281.619C406.977 281.619 406.909 281.585 406.891 281.49C406.511 280.849 406.271 280.134 406.186 279.394C405.993 278.072 406 276.729 406.205 275.409C406.423 273.989 406.853 272.61 407.48 271.317C407.738 270.756 408.054 270.224 408.422 269.728C408.493 269.614 408.573 269.505 408.661 269.403C408.757 269.275 408.862 269.154 408.976 269.041C409.287 268.705 409.575 268.396 409.882 268.03C413.008 265.025 416.596 262.543 420.51 260.677C424.97 258.378 430.23 256.256 435.888 253.85L438.023 252.937L440.214 251.967C440.914 251.667 441.739 251.268 442.512 250.918C443.284 250.569 444.064 250.185 444.836 249.779C447.962 248.232 450.993 246.499 453.912 244.588C455.408 243.647 456.885 242.554 458.321 241.469C459.756 240.384 461.227 239.193 462.633 237.903C465.577 235.3 468.232 232.387 470.554 229.216C473.058 225.803 475.074 222.058 476.544 218.089C478.022 214.002 478.869 209.714 479.057 205.373C479.186 201.192 478.711 197.015 477.645 192.971C477.41 191.991 477.08 191.087 476.784 190.152L476.323 188.775C476.15 188.328 475.97 187.897 475.79 187.465C475.422 186.598 475.069 185.72 474.675 184.888L473.434 182.483C471.82 179.499 469.929 176.674 467.785 174.045C465.844 171.634 463.732 169.366 461.466 167.257C459.338 165.305 457.097 163.481 454.753 161.795L453.067 160.596L451.347 159.484C450.188 158.721 449.177 158.155 448.083 157.509C443.852 155.086 439.93 153.235 436.45 151.653C429.477 148.587 424.16 146.498 420.438 144.794C417.343 143.425 414.511 142.151 412.134 140.935C410.911 140.32 409.911 139.712 408.948 139.162C408.037 138.636 407.163 138.048 406.334 137.4C399.156 131.835 393.385 124.663 389.483 116.46C390.69 114.524 391.798 112.53 392.804 110.483C394.125 107.797 395.267 105.026 396.223 102.189C397.17 99.3342 397.915 96.4163 398.452 93.4568C398.989 90.5164 399.335 87.5443 399.487 84.5591C399.607 81.6074 399.544 78.6511 399.297 75.7074C399.056 72.8292 398.655 69.9666 398.097 67.1329C397.512 64.3675 396.858 61.6246 396.042 58.9985C395.098 55.8541 394.007 52.8342 392.844 49.9009C393.223 49.3348 393.614 48.7838 394.013 48.2366C395.03 47.0066 395.975 45.7122 397.093 44.5808C398.211 43.4494 399.383 42.2122 400.619 41.0357C403.255 38.6221 406.039 36.3752 408.954 34.3082C415.393 29.8111 422.087 25.6901 429.002 21.9659C434.492 18.8985 440.227 15.813 446.1 12.4366C444.263 15.284 442.639 18.2636 441.243 21.3509C439.657 24.8479 438.391 28.4818 437.462 32.2076C436.52 36.0132 435.941 39.8996 435.735 43.8144C435.571 47.7817 435.788 51.7554 436.384 55.6808C436.727 57.557 437.111 59.4069 437.502 61.2606C437.894 63.1143 438.546 64.9194 439.089 66.7357C441.509 73.8058 445.025 80.4509 449.51 86.4272C453.686 91.9614 458.412 97.0583 463.614 101.64C468.42 105.882 473.442 109.872 478.658 113.597C488.703 120.84 498.589 127.123 507.525 133.676C516.46 140.229 524.47 147.006 530.122 154.443C532.883 157.983 535.15 161.882 536.862 166.033C537.681 168.048 538.352 170.12 538.87 172.232C539.101 173.295 539.378 174.381 539.522 175.466C539.604 176.018 539.738 176.522 539.782 177.112L539.978 178.772C540.403 183.339 540.269 187.942 539.579 192.477C538.86 197.225 537.652 201.886 535.974 206.385C532.459 215.66 527.337 224.242 520.844 231.739L520.852 231.743Z" fill="#F5791F" fill-opacity="0.3"/>
</g>
</svg>
