<svg width="491" height="464" viewBox="0 0 491 464" fill="none" xmlns="http://www.w3.org/2000/svg">
<path d="M-47.6875 188.499C-46.002 195.574 -43.5433 202.441 -40.3561 208.974C-37.0929 215.64 -32.987 221.855 -28.1402 227.467C-24.7704 231.314 -21.0508 234.838 -17.0297 237.994C-15.0679 239.54 -13.0277 240.984 -10.9171 242.318C-13.2623 248.249 -14.9725 254.413 -16.0188 260.707C-17.8111 271.139 -18.2525 281.76 -17.3321 292.306C-16.4364 302.646 -14.2853 312.837 -10.9266 322.654C-9.81173 326.21 -8.30007 329.643 -6.84514 333.085C-6.09877 334.802 -5.20125 336.462 -4.37929 338.159L-3.10381 340.682C-2.65978 341.507 -2.15905 342.313 -1.68667 343.129C-0.741902 344.75 0.202891 346.381 1.21379 348.003C2.22468 349.625 3.33952 351.237 4.50157 352.745C6.76997 355.855 9.21464 358.831 11.8236 361.659C22.2441 372.969 34.9689 381.893 49.1325 387.825C56.2949 390.847 63.784 393.021 71.448 394.302C75.3415 394.938 79.2693 395.34 83.2104 395.506C87.211 395.632 91.2155 395.502 95.1996 395.118C99.2249 394.705 103.216 394.005 107.141 393.022C108.086 392.804 109.107 392.519 110.089 392.225C111.072 391.931 112.045 391.675 113.009 391.334L115.9 390.309C116.844 389.987 117.855 389.532 118.819 389.133C120.803 388.356 122.664 387.36 124.554 386.431C125.498 385.918 126.386 385.397 127.293 384.866C128.2 384.335 129.098 383.804 129.967 383.216C133.459 380.962 136.762 378.425 139.84 375.629C141.827 373.832 143.719 371.933 145.509 369.939C145.272 371.19 145.055 372.461 144.876 373.732C144.013 379.829 143.845 386.005 144.375 392.14C145.6 404.818 150.108 416.954 157.451 427.343C164.393 437.255 173.355 445.573 183.744 451.744C194.042 457.956 205.521 461.936 217.443 463.428C223.539 464.165 229.699 464.19 235.8 463.504C241.771 462.808 247.648 461.456 253.326 459.473C264.391 455.605 274.62 449.653 283.464 441.938C292.088 434.462 299.413 425.597 305.137 415.706C310.06 407.236 313.715 398.084 315.983 388.545C317.183 389.683 318.421 390.793 319.715 391.846C323.234 394.656 327.033 397.094 331.052 399.12C335.081 401.15 339.316 402.74 343.684 403.861C348.072 405.005 352.577 405.641 357.109 405.758C358.233 405.758 359.367 405.834 360.491 405.758L363.874 405.588C366.103 405.341 368.333 405.104 370.487 404.639C379.029 402.946 387.194 399.713 394.588 395.099C398.139 392.887 401.535 390.434 404.754 387.758C407.89 385.097 410.862 382.247 413.653 379.223C416.391 376.214 418.953 373.047 421.325 369.74C423.669 366.414 425.82 362.957 427.768 359.383C429.704 355.787 431.427 352.079 432.927 348.278C434.43 344.432 435.692 340.495 436.706 336.49L437.386 333.446C437.622 332.422 437.736 331.483 437.925 330.496C438.236 328.543 438.605 326.599 438.869 324.645L439.493 318.794C439.616 317.845 439.663 316.84 439.71 315.863L439.852 312.952C440.182 305.276 439.945 297.586 439.143 289.945C437.651 274.866 434.42 260.489 430.971 246.586C427.523 232.683 423.583 219.197 420.579 206.1C419.114 199.519 417.744 192.947 416.8 186.422C415.825 179.98 415.194 173.49 414.91 166.981C414.667 160.679 414.881 154.369 415.553 148.099C416.303 142.067 417.619 136.12 419.483 130.336L421.061 126.163C421.301 125.464 421.592 124.782 421.93 124.124L422.874 122.114L423.819 120.103L424.764 118.358L425.803 116.661C426.153 116.101 426.55 115.57 426.909 115.02C429.941 110.743 433.824 107.243 437.226 105.698C438.638 104.999 440.186 104.62 441.76 104.588C442.102 104.568 442.445 104.59 442.781 104.655C443.144 104.674 443.505 104.728 443.858 104.816C444.536 104.984 445.194 105.222 445.823 105.527C447.25 106.304 448.497 107.378 449.479 108.676C450.155 109.514 450.759 110.409 451.284 111.35C451.904 112.417 452.457 113.522 452.937 114.66C455.089 120.054 456.515 125.711 457.179 131.484C457.387 133.02 457.557 134.575 457.689 136.14L457.878 138.501L458.048 141.1L458.719 151.532C460.476 179.414 461.774 207.321 462.612 235.253C463.301 258.013 462.782 280.708 462.876 303.193C462.971 325.679 463.66 347.994 466.787 370.147C466.863 370.697 466.986 371.902 467.052 372.509C468.497 387.114 472.116 382.116 474.676 386.639C480.449 396.938 484.436 398.181 486.958 389.2C489.481 380.219 490.671 361.024 490.123 330.648C489.84 317.428 490.426 303.421 490.737 289.869C491.125 274.23 491.096 253.234 490.671 232.218C490.246 211.203 489.434 190.158 488.697 174.368C488.498 169.627 488.215 164.771 487.913 159.915C487.61 155.06 487.261 150.157 486.873 145.244C486.684 142.798 486.486 140.341 486.297 137.876C486.202 136.709 486.08 135.258 485.938 133.911C485.796 132.565 485.645 131.18 485.456 129.814C484.739 124.188 483.586 118.627 482.008 113.18C480.325 107.211 477.833 101.502 474.601 96.2141C472.76 93.2564 470.592 90.5172 468.138 88.0487C465.483 85.3755 462.449 83.11 459.135 81.3249C455.799 79.542 452.207 78.2909 448.487 77.6168C447.572 77.442 446.648 77.3153 445.719 77.2374C444.774 77.1521 443.829 77.0193 442.885 77.0288C441.035 76.9797 439.184 77.0748 437.348 77.3134C433.868 77.7514 430.462 78.6539 427.22 79.9972C424.311 81.2318 421.532 82.7569 418.925 84.5493C413.94 87.9901 409.528 92.1987 405.85 97.0202C404.075 99.305 402.441 101.696 400.956 104.18L399.898 106.077C399.529 106.712 399.189 107.338 398.953 107.974L397.215 111.597C392.763 121.2 389.721 131.399 388.182 141.878C386.715 151.967 386.275 162.179 386.869 172.358C387.427 182.169 388.607 191.935 390.403 201.596C392.103 211.079 394.286 220.477 396.544 229.496C398.802 238.515 401.06 247.335 403.091 256.05C407.144 273.434 410.186 290.457 409.931 306.674C409.931 307.679 409.931 308.703 409.884 309.708L409.685 312.696C409.61 313.644 409.591 314.697 409.478 315.683L409.119 318.614C408.986 319.562 408.92 320.586 408.731 321.544L408.202 324.389L407.947 325.831C407.862 326.314 407.786 326.779 407.673 327.225C407.446 328.088 407.276 328.96 407.021 329.823C405.046 336.922 401.928 343.649 397.791 349.739C393.732 355.787 388.7 361.116 382.901 365.51C377.676 369.554 371.607 372.358 365.149 373.713C359.359 374.846 353.366 374.279 347.888 372.082C342.287 369.786 337.409 366.011 333.773 361.157C329.624 355.59 326.545 349.296 324.694 342.598C322.632 335.372 321.58 327.894 321.567 320.377C321.544 315.991 321.86 311.609 322.511 307.271C322.653 306.19 322.852 305.128 323.069 304.075C323.286 303.023 323.513 301.97 323.749 300.917L323.929 300.14L324.165 299.286L324.628 297.598L325.573 294.212C328.507 284.862 332.09 275.729 336.296 266.881C340.547 257.672 345.318 248.321 350.099 238.61C354.879 228.899 359.641 218.695 363.751 207.969C364.261 206.622 364.781 205.285 365.272 203.919L366.679 199.775C367.624 197.091 368.569 194.085 369.334 191.097C370.906 185.178 372.074 179.158 372.83 173.079C374.398 160.81 374.156 148.376 372.112 136.178C371.044 129.863 369.38 123.665 367.142 117.666C364.805 111.411 361.745 105.452 358.025 99.9127C354.139 94.1488 349.435 88.9857 344.062 84.5872C338.654 80.1444 332.6 76.5591 326.111 73.9561C319.669 71.3801 312.892 69.7481 305.987 69.11C299.315 68.5617 292.601 68.8388 285.996 69.9351C279.725 71.0004 273.571 72.671 267.62 74.9235C261.909 77.0726 256.363 79.6434 251.03 82.6146C240.75 88.3665 231.109 95.2017 222.271 103.004C213.579 110.692 205.595 119.151 198.416 128.278C191.572 136.882 185.724 146.24 180.985 156.169L179.766 155.458C173.32 151.799 166.472 148.906 159.359 146.837C157.583 146.259 155.75 145.889 153.927 145.453C152.103 145.017 150.261 144.713 148.409 144.41C146.557 144.106 144.696 143.888 142.825 143.717C141.881 143.632 140.936 143.518 139.991 143.471L137.28 143.338C133.68 143.234 130.184 143.272 126.783 143.404C123.382 143.537 120.123 143.765 116.939 143.983C110.59 144.438 104.657 144.931 99.092 144.931C97.6938 144.931 96.3617 144.931 95.0106 144.855C93.6596 144.78 92.3369 144.704 91.2316 144.552C88.8342 144.311 86.4609 143.87 84.1364 143.234C79.8245 142.16 75.7599 140.26 72.1661 137.638C70.7318 136.54 69.4401 135.265 68.3209 133.845C67.3916 132.56 66.6709 131.136 66.1857 129.625C65.6717 128.056 65.4351 126.41 65.4866 124.76C65.4862 123.836 65.5493 122.914 65.6755 122C65.77 121.507 65.8645 121.052 65.94 120.53C66.0156 120.008 66.2046 119.515 66.3179 119.003C67.672 114.372 69.7273 109.977 72.4117 105.973C73.8761 103.719 75.4527 101.542 77.1356 99.448C78.9023 97.2383 80.858 94.9053 82.8798 92.5249C86.9234 87.7357 91.3072 82.6146 95.4736 76.6779C97.6214 73.5637 99.5776 70.3206 101.331 66.9667C103.198 63.3596 104.732 59.5883 105.913 55.7002L106.745 52.675C106.99 51.5465 107.264 50.304 107.425 49.147C107.784 46.8288 107.948 44.4845 107.916 42.1387C107.898 39.8677 107.712 37.6013 107.359 35.358C107.023 33.1405 106.527 30.9504 105.876 28.8048C105.234 26.6465 104.435 24.5386 103.485 22.4982C102.531 20.4019 101.413 18.3851 100.141 16.4666C97.4189 12.2855 93.9269 8.66433 89.8522 5.79763C85.2174 2.57015 79.8255 0.609156 74.2068 0.107477C71.4083 -0.118201 68.5925 0.0124752 65.8267 0.496331C63.2648 0.974816 60.7601 1.72176 58.3536 2.72494C54.3263 4.45919 50.5432 6.71654 47.1013 9.43929C44.0403 11.8007 41.4894 14.0958 39.1747 16.1253C20.1943 32.8164 0.684728 50.2662 -16.0472 71.2818C-24.5622 81.9402 -31.8929 93.4995 -37.9092 105.755L-40.0538 110.496C-40.4128 111.293 -40.7718 112.061 -41.1214 112.877L-42.1134 115.352C-42.8031 117.002 -43.3511 118.681 -44.003 120.35C-44.6549 122.019 -45.1083 123.716 -45.6185 125.414C-47.6161 132.195 -49.057 139.128 -49.9267 146.145C-51.701 160.284 -50.9427 174.628 -47.6875 188.499ZM124.214 350.346C119.6 355.459 113.958 359.531 107.661 362.295C106.082 362.961 104.471 363.547 102.833 364.049C101.993 364.277 101.171 364.552 100.32 364.751C99.4699 364.95 98.6197 365.159 97.7599 365.339C94.3074 366.043 90.7958 366.414 87.273 366.449C73.0447 366.638 58.3913 361.707 46.1943 353.361C40.0959 349.216 34.6123 344.226 29.9065 338.539C29.3396 337.827 28.7538 337.125 28.2059 336.405L26.5998 334.205L25.0881 331.966L23.6615 329.567L22.2255 327.168C21.7437 326.381 21.3752 325.508 20.9406 324.683C20.1092 323.014 19.2022 321.383 18.522 319.628C13.5052 308.248 10.9638 296.934 9.25377 286.644C7.54375 276.355 7.12804 266.975 6.62731 259.066C6.42891 256.164 6.2683 253.461 6.09825 250.958C11.4835 253.064 17.004 254.803 22.6223 256.164C40.7241 260.583 58.3535 261.996 75.0287 264.415C83.1109 265.499 91.1189 267.083 99.007 269.157C106.518 271.319 113.585 274.06 119.452 277.995C120.17 278.498 120.963 278.944 121.634 279.475L123.694 281.078C124.043 281.333 124.375 281.611 124.686 281.912L125.631 282.794C126.297 283.348 126.928 283.943 127.52 284.577L129.277 286.474C129.882 287.081 130.345 287.82 130.893 288.484C131.936 289.779 132.883 291.148 133.727 292.581C137.095 298.357 138.927 304.904 139.046 311.596C139.5 325.318 133.737 339.952 124.214 350.346ZM286.563 367.596C286.563 369.967 286.204 372.338 285.987 374.643C285.698 376.934 285.265 379.205 284.692 381.442C282.4 390.56 278.31 399.125 272.665 406.631C267.109 414.102 260.062 420.329 251.975 424.915C248.062 427.106 243.9 428.816 239.579 430.008C237.458 430.582 235.303 431.022 233.127 431.326C232.579 431.43 232.059 431.449 231.53 431.506C231.001 431.563 230.481 431.639 229.952 431.658C228.894 431.658 227.836 431.781 226.759 431.734C217.893 431.579 209.211 429.171 201.524 424.735C193.775 420.402 187.235 414.183 182.506 406.65C181.396 404.83 180.426 402.928 179.605 400.96C179.161 400.011 178.859 399.063 178.481 398.048C178.311 397.555 178.188 397.052 178.037 396.569C177.871 396.08 177.732 395.583 177.621 395.08L177.272 393.591L177.007 392.083C176.79 391.134 176.752 390.063 176.61 389.058L176.45 385.824L176.516 382.58C176.979 373.941 179.946 365.064 184.537 356.112C189.129 347.159 195.156 338.169 201.543 328.865C207.93 319.562 214.619 309.898 220.571 299.039C223.65 293.502 226.343 287.757 228.63 281.846C229.111 280.594 229.574 279.304 230.009 277.986C231.898 279.323 233.788 280.641 235.678 281.959C240.184 285.146 244.549 288.304 248.611 291.557C250.652 293.169 252.598 294.819 254.488 296.488C255.433 297.323 256.274 298.186 257.171 299.03C258.069 299.874 258.976 300.699 259.788 301.619L262.32 304.312C263.161 305.261 263.907 306.209 264.71 307.157C266.354 308.997 267.753 311.036 269.255 312.999C272.11 317.016 274.662 321.242 276.888 325.641C281.355 334.312 284.384 343.655 285.854 353.305C286.534 358.036 286.771 362.821 286.563 367.596ZM216.026 155.705C220.386 149.225 225.258 143.107 230.595 137.411C235.947 131.641 241.726 126.287 247.884 121.393C253.903 116.571 260.355 112.319 267.157 108.694C273.585 105.216 280.449 102.62 287.564 100.975C294.033 99.4645 300.743 99.3128 307.272 100.529C313.45 101.768 319.237 104.492 324.136 108.467C329.134 112.657 333.131 117.92 335.833 123.868C338.792 130.357 340.73 137.267 341.577 144.353C342.522 151.789 342.579 159.312 341.747 166.762C341.344 170.525 340.741 174.264 339.942 177.963L339.291 180.713C339.073 181.661 338.809 182.534 338.563 183.444C338.044 185.265 337.533 186.991 336.853 188.907C334.238 196.567 331.204 204.077 327.764 211.402C320.82 226.443 312.525 241.616 305.165 258.042C302.152 264.68 299.393 271.689 296.927 278.839L295.17 284.273C294.612 286.094 294.131 287.963 293.611 289.812C293.375 290.703 293.12 291.557 292.893 292.458C291.041 290.011 289.108 287.628 287.092 285.307L286.091 284.055L284.73 282.529L281.981 279.494C281.083 278.46 280.091 277.531 279.146 276.573L276.208 273.728C272.259 270.067 268.215 266.786 264.172 263.713C256.094 257.577 248.045 252.333 240.496 247.117C238.531 245.77 236.597 244.427 234.695 243.086C234.277 236.269 233.175 229.511 231.407 222.915C227.599 208.85 221.091 195.668 212.247 184.108C210.144 181.332 207.901 178.655 205.521 176.075C205.596 175.886 205.662 175.687 205.728 175.487C208.389 168.516 211.845 161.878 216.026 155.705ZM-17.162 139.203C-16.5196 136.491 -15.6693 133.835 -14.8095 131.199C-14.3277 129.909 -13.8648 128.591 -13.3546 127.32C-12.8444 126.049 -12.3437 124.769 -11.6918 123.451L-9.87778 119.515C-9.27313 118.207 -8.53622 116.936 -7.87488 115.646C-6.59 113.038 -5.04062 110.544 -3.54788 108.059C-2.82983 106.779 -1.94174 105.574 -1.15756 104.323C-0.373412 103.071 0.410737 101.828 1.30826 100.624C3.06555 98.1961 4.74726 95.7399 6.64624 93.3785C10.2742 88.5798 14.3272 83.9613 18.4275 79.3712C26.7982 70.2764 35.9058 61.5232 45.4574 52.9026C49.5766 49.1408 53.9131 45.2936 58.4669 41.361L61.8681 38.3737C62.9829 37.4253 63.9938 36.5339 64.9575 35.7467C66.4236 34.495 68.0053 33.3868 69.6813 32.437C70.2304 32.112 70.8366 31.8963 71.467 31.8016C71.467 31.8016 71.552 31.8016 71.6181 31.887C72.3194 32.3383 72.9182 32.9329 73.3754 33.6319C74.2321 34.859 74.9009 36.208 75.3594 37.634C75.8554 39.1663 76.1197 40.7647 76.1436 42.3758C76.167 43.0679 76.1195 43.7608 76.0019 44.4432C75.9874 44.5934 75.9622 44.7424 75.9263 44.8889C75.8946 45.0657 75.8503 45.24 75.794 45.4105C75.6523 45.9037 75.52 46.3589 75.3972 46.8805C73.7865 51.4674 71.4514 55.7646 68.4815 59.6074C65.1842 64.1596 60.9989 68.9393 56.5585 74.2027L54.8862 76.1942L53.1856 78.2712C52.6377 78.9256 52.0141 79.7411 51.4189 80.4808C50.8237 81.2205 50.2379 81.9981 49.6711 82.7948C47.3266 85.921 45.1718 89.1861 43.2183 92.5724C42.198 94.2699 41.2721 96.1098 40.384 97.9211C39.4959 99.7325 38.6267 101.667 37.8709 103.668C36.2404 107.761 35.0526 112.019 34.328 116.367C33.5436 121.048 33.4132 125.817 33.9406 130.535C34.5193 135.375 35.8286 140.098 37.8236 144.542C39.7957 148.796 42.3701 152.741 45.4669 156.255C46.1943 157.118 46.9785 157.857 47.7437 158.645L48.8964 159.792C49.2932 160.152 49.69 160.494 50.0868 160.835C50.8898 161.518 51.6835 162.22 52.496 162.855L54.9429 164.638C58.0545 166.814 61.3632 168.69 64.8252 170.243C67.9756 171.679 71.2245 172.887 74.5469 173.856C77.6522 174.739 80.807 175.436 83.9946 175.943L86.2809 176.293L88.5579 176.54C90.0978 176.72 91.3922 176.777 92.8093 176.872C98.2512 177.166 103.098 177.043 107.368 176.872C115.871 176.426 122.229 175.838 126.802 175.668C130.581 175.478 134.049 175.326 137.034 175.345C138.565 175.345 139.868 175.449 141.106 175.516C142.28 175.582 143.448 175.731 144.602 175.962C154.566 177.917 163.934 182.192 171.953 188.442C171.721 190.989 171.617 193.547 171.641 196.105C171.672 199.462 171.924 202.814 172.397 206.138C172.885 209.476 173.608 212.775 174.56 216.011C175.502 219.228 176.65 222.38 177.999 225.447C179.363 228.465 180.912 231.395 182.638 234.219C184.326 236.981 186.164 239.647 188.146 242.204C190.121 244.68 192.152 247.098 194.287 249.317C196.81 251.991 199.417 254.467 202.053 256.818C201.959 257.577 201.845 258.326 201.722 259.076C201.326 260.821 201.033 262.594 200.485 264.292C199.937 265.989 199.389 267.819 198.746 269.621C197.328 273.369 195.677 277.024 193.805 280.565C189.637 288.318 185.025 295.823 179.993 303.042C176.053 308.883 171.877 314.867 167.711 321.212C168.114 317.433 168.237 313.629 168.079 309.832C167.905 305.528 167.343 301.249 166.398 297.048C165.425 292.76 164.049 288.575 162.288 284.549C160.457 280.491 158.243 276.62 155.674 272.988C154.389 271.281 153.076 269.621 151.754 267.962C150.431 266.302 148.872 264.823 147.417 263.277C141.447 257.414 134.596 252.53 127.114 248.805C120.162 245.367 112.882 242.644 105.384 240.678C98.4538 238.852 91.4343 237.387 84.3536 236.287C70.6828 234.096 57.6544 232.787 45.4385 230.729C33.2226 228.671 21.8192 225.921 12.4376 221.321C7.90142 219.167 3.67751 216.404 -0.118356 213.109C-1.9488 211.504 -3.6602 209.767 -5.23899 207.912C-6.00425 206.963 -6.82618 206.015 -7.51588 205C-7.87489 204.488 -8.26228 204.052 -8.60239 203.483L-9.63221 201.918C-12.3532 197.557 -14.5328 192.879 -16.1228 187.987C-17.7923 182.868 -18.929 177.589 -19.5145 172.234C-20.6671 161.17 -19.8676 149.989 -17.1525 139.203L-17.162 139.203Z" fill="#282935"/>
</svg>
