<svg width="28" height="29" viewBox="0 0 28 29" fill="none" xmlns="http://www.w3.org/2000/svg">
<path d="M23.5774 14.9684C24.8211 13.2932 25.8498 11.6334 26.6045 10.0672C28.827 5.4547 27.9848 3.17838 26.887 2.08053C25.7892 0.983441 23.5129 0.142008 18.9005 2.36382C17.3344 3.1185 15.6746 4.14803 13.9994 5.39098C12.3243 4.14726 10.6645 3.1185 9.09835 2.36382C4.48593 0.141241 2.20966 0.983439 1.11183 2.08129C0.0147642 3.17915 -0.827417 5.45547 1.39511 10.068C2.14977 11.6342 3.17928 13.294 4.4222 14.9692C3.17851 16.6444 2.14977 18.3042 1.39511 19.8704C-0.827417 24.4821 0.0147649 26.7592 1.11259 27.8563C1.70604 28.4498 2.64341 28.9688 4.10974 28.9688C5.35497 28.9688 6.98022 28.5949 9.09911 27.5738C10.6652 26.8191 12.325 25.7896 14.0002 24.5466C15.6753 25.7903 17.3351 26.8191 18.9013 27.5738C21.0202 28.5949 22.6454 28.9688 23.8906 28.9688C25.3562 28.9688 26.2943 28.4498 26.8878 27.8563C27.9856 26.7592 28.827 24.4821 26.6053 19.8704C25.8506 18.3042 24.8211 16.6444 23.5782 14.9692L23.5774 14.9684ZM24.9777 3.99064C25.9228 4.93572 24.9562 8.40816 21.837 12.7812C20.9956 11.7892 20.0897 10.8035 19.1277 9.84151C18.1658 8.87955 17.1801 7.97286 16.1882 7.13219C20.5611 4.01367 24.0334 3.04633 24.9777 3.99141V3.99064ZM20.1511 14.9684C19.2859 16.0148 18.3101 17.0927 17.2177 18.186C16.1252 19.2785 15.0466 20.2542 14.0002 21.1195C12.9538 20.2542 11.8759 19.2785 10.7827 18.186C9.69025 17.0935 8.71449 16.0148 7.84928 14.9684C8.71449 13.922 9.69025 12.8441 10.7827 11.7509C11.8752 10.6584 12.953 9.68336 13.9987 8.81813C15.0458 9.68336 16.1237 10.6568 17.2169 11.7509C18.3094 12.8433 19.2851 13.922 20.1503 14.9684H20.1511ZM3.02343 3.99064C3.25374 3.76032 3.63376 3.64363 4.13969 3.64363C5.71196 3.64363 8.5049 4.77756 11.8099 7.13373C10.8188 7.97439 9.83458 8.87955 8.8734 9.84075C7.91146 10.8027 7.00479 11.7885 6.16414 12.7804C3.04493 8.40739 2.07838 4.93495 3.02343 3.98987V3.99064ZM3.02343 25.9462C2.07838 25.0011 3.04493 21.5287 6.16414 17.1557C7.00556 18.1476 7.91146 19.1334 8.8734 20.0953C9.83535 21.0573 10.8211 21.964 11.813 22.8046C7.44008 25.9232 3.96772 26.8897 3.02267 25.9454L3.02343 25.9462ZM24.9785 25.9462C24.0334 26.8913 20.5611 25.9247 16.1882 22.8054C17.1801 21.964 18.1658 21.0581 19.1277 20.0961C20.0897 19.1341 20.9964 18.1484 21.837 17.1565C24.9562 21.5294 25.9228 25.0019 24.9777 25.947L24.9785 25.9462Z" fill="#F7F4F9"/>
</svg>
