<svg width="40" height="44" viewBox="0 0 40 44" fill="none" xmlns="http://www.w3.org/2000/svg">
<path d="M20.0005 0.400391C20.0005 0.400391 20.8873 11.1555 21.0538 19.4994C25.8573 14.9732 32.2418 9.78165 32.2418 9.78165C32.2418 9.78165 27.0617 16.1522 22.539 20.9539C30.0056 21.1361 39.4405 22.0004 39.4405 22.0004C39.4405 22.0004 29.987 22.8664 22.5169 23.0475C27.0396 27.8491 32.2194 34.2192 32.2194 34.2192C32.2194 34.2192 25.8543 29.0436 21.0534 24.5222C20.8858 32.8632 20.0005 43.6004 20.0005 43.6004C20.0005 43.6004 19.1167 32.881 18.9482 24.543C14.1498 29.0595 7.80422 34.2193 7.80422 34.2193C7.80422 34.2193 12.9836 27.8496 17.5062 23.048C10.0327 22.8681 0.560547 22.0004 0.560547 22.0004C0.560547 22.0004 10.0141 21.1344 17.4841 20.9533C12.9615 16.1517 7.78174 9.78162 7.78174 9.78162C7.78174 9.78162 14.1468 14.9572 18.9477 19.4786C19.1153 11.1377 20.0005 0.400391 20.0005 0.400391Z" fill="url(#paint0_radial_44_2349)"/>
<defs>
<radialGradient id="paint0_radial_44_2349" cx="0" cy="0" r="1" gradientUnits="userSpaceOnUse" gradientTransform="translate(20.0005 21.1904) rotate(57.4396) scale(26.5892 20.5709)">
<stop stop-color="white"/>
<stop offset="1" stop-color="white"/>
</radialGradient>
</defs>
</svg>
