<svg width="48" height="48" viewBox="0 0 48 48" fill="none" xmlns="http://www.w3.org/2000/svg">
<path d="M33.5774 23.9997C34.8211 22.3245 35.8498 20.6646 36.6045 19.0985C38.827 14.486 37.9848 12.2096 36.887 11.1118C35.7892 10.0147 33.5129 9.17326 28.9005 11.3951C27.3344 12.1497 25.6746 13.1793 23.9994 14.4222C22.3243 13.1785 20.6645 12.1497 19.0983 11.3951C14.4859 9.17249 12.2097 10.0147 11.1118 11.1125C10.0148 12.2104 9.17258 14.4867 11.3951 19.0992C12.1498 20.6654 13.1793 22.3252 14.4222 24.0004C13.1785 25.6756 12.1498 27.3355 11.3951 28.9016C9.17258 33.5134 10.0148 35.7905 11.1126 36.8876C11.706 37.481 12.6434 38 14.1097 38C15.355 38 16.9802 37.6261 19.0991 36.605C20.6652 35.8504 22.325 34.8208 24.0002 33.5779C25.6753 34.8216 27.3351 35.8504 28.9013 36.605C31.0202 37.6261 32.6454 38 33.8906 38C35.3562 38 36.2943 37.481 36.8878 36.8876C37.9856 35.7905 38.827 33.5134 36.6053 28.9016C35.8506 27.3355 34.8211 25.6756 33.5782 24.0004L33.5774 23.9997ZM34.9777 13.0219C35.9228 13.967 34.9562 17.4394 31.837 21.8124C30.9956 20.8205 30.0897 19.8347 29.1277 18.8728C28.1658 17.9108 27.1801 17.0041 26.1882 16.1634C30.5611 13.0449 34.0334 12.0776 34.9777 13.0227V13.0219ZM30.1511 23.9997C29.2859 25.0461 28.3101 26.124 27.2177 27.2172C26.1252 28.3097 25.0466 29.2855 24.0002 30.1507C22.9538 29.2855 21.8759 28.3097 20.7827 27.2172C19.6903 26.1247 18.7145 25.0461 17.8493 23.9997C18.7145 22.9533 19.6903 21.8754 20.7827 20.7821C21.8752 19.6896 22.953 18.7146 23.9987 17.8494C25.0458 18.7146 26.1237 19.6881 27.2169 20.7821C28.3094 21.8746 29.2851 22.9533 30.1503 23.9997H30.1511ZM13.0234 13.0219C13.2537 12.7916 13.6338 12.6749 14.1397 12.6749C15.712 12.6749 18.5049 13.8088 21.8099 16.165C20.8188 17.0056 19.8346 17.9108 18.8734 18.872C17.9115 19.834 17.0048 20.8197 16.1641 21.8116C13.0449 17.4386 12.0784 13.9662 13.0234 13.0211V13.0219ZM13.0234 34.9774C12.0784 34.0324 13.0449 30.5599 16.1641 26.1869C17.0056 27.1788 17.9115 28.1646 18.8734 29.1266C19.8353 30.0885 20.8211 30.9952 21.813 31.8359C17.4401 34.9544 13.9677 35.921 13.0227 34.9767L13.0234 34.9774ZM34.9785 34.9774C34.0334 35.9225 30.5611 34.9559 26.1882 31.8367C27.1801 30.9952 28.1658 30.0893 29.1277 29.1273C30.0897 28.1654 30.9964 27.1796 31.837 26.1877C34.9562 30.5607 35.9228 34.0331 34.9777 34.9782L34.9785 34.9774Z" fill="#F7F4F9"/>
</svg>
