<svg width="28" height="28" viewBox="0 0 28 28" fill="none" xmlns="http://www.w3.org/2000/svg">
<path d="M23.5774 13.9997C24.8211 12.3245 25.8498 10.6646 26.6045 9.09847C28.827 4.48595 27.9848 2.20963 26.887 1.11178C25.7892 0.0146908 23.5129 -0.826742 18.9005 1.39507C17.3344 2.14975 15.6746 3.17928 13.9994 4.42223C12.3243 3.17851 10.6645 2.14975 9.09835 1.39507C4.48593 -0.827509 2.20966 0.0146892 1.11183 1.11254C0.0147642 2.2104 -0.827417 4.48672 1.39511 9.09924C2.14977 10.6654 3.17928 12.3252 4.4222 14.0004C3.17851 15.6756 2.14977 17.3355 1.39511 18.9016C-0.827417 23.5134 0.0147649 25.7905 1.11259 26.8876C1.70604 27.481 2.64341 28 4.10974 28C5.35497 28 6.98022 27.6261 9.09911 26.605C10.6652 25.8504 12.325 24.8208 14.0002 23.5779C15.6753 24.8216 17.3351 25.8504 18.9013 26.605C21.0202 27.6261 22.6454 28 23.8906 28C25.3562 28 26.2943 27.481 26.8878 26.8876C27.9856 25.7905 28.827 23.5134 26.6053 18.9016C25.8506 17.3355 24.8211 15.6756 23.5782 14.0004L23.5774 13.9997ZM24.9777 3.02189C25.9228 3.96697 24.9562 7.43941 21.837 11.8124C20.9956 10.8205 20.0897 9.83473 19.1277 8.87276C18.1658 7.9108 17.1801 7.00411 16.1882 6.16344C20.5611 3.04492 24.0334 2.07758 24.9777 3.02266V3.02189ZM20.1511 13.9997C19.2859 15.0461 18.3101 16.124 17.2177 17.2172C16.1252 18.3097 15.0466 19.2855 14.0002 20.1507C12.9538 19.2855 11.8759 18.3097 10.7827 17.2172C9.69025 16.1247 8.71449 15.0461 7.84928 13.9997C8.71449 12.9533 9.69025 11.8754 10.7827 10.7821C11.8752 9.68963 12.953 8.71461 13.9987 7.84938C15.0458 8.71461 16.1237 9.68809 17.2169 10.7821C18.3094 11.8746 19.2851 12.9533 20.1503 13.9997H20.1511ZM3.02343 3.02189C3.25374 2.79157 3.63376 2.67488 4.13969 2.67488C5.71196 2.67488 8.5049 3.80881 11.8099 6.16498C10.8188 7.00564 9.83458 7.9108 8.8734 8.872C7.91146 9.83396 7.00479 10.8197 6.16414 11.8116C3.04493 7.43864 2.07838 3.9662 3.02343 3.02112V3.02189ZM3.02343 24.9774C2.07838 24.0324 3.04493 20.5599 6.16414 16.1869C7.00556 17.1788 7.91146 18.1646 8.8734 19.1266C9.83535 20.0885 10.8211 20.9952 11.813 21.8359C7.44008 24.9544 3.96772 25.921 3.02267 24.9767L3.02343 24.9774ZM24.9785 24.9774C24.0334 25.9225 20.5611 24.9559 16.1882 21.8367C17.1801 20.9952 18.1658 20.0893 19.1277 19.1273C20.0897 18.1654 20.9964 17.1796 21.837 16.1877C24.9562 20.5607 25.9228 24.0331 24.9777 24.9782L24.9785 24.9774Z" fill="#F7F4F9"/>
</svg>
